# Blender 4.4.0
# www.blender.org
mtllib armor.mtl
o å¹³é¢
v -2.623194 1.368814 -0.069640
v 2.623194 1.368814 -0.069640
v -2.609267 3.115865 0.242525
v 2.609267 3.115865 0.242525
v -0.874113 1.368075 -0.069626
v 0.874113 1.368075 -0.069626
v 0.863343 3.950815 0.247481
v -0.863343 3.950815 0.247481
v -2.606498 3.111818 1.472759
v 2.606498 3.111818 1.472759
v 0.856542 3.943079 1.472824
v -0.856542 3.943079 1.472824
v -1.347697 2.091717 1.790620
v 1.347697 2.091717 1.790620
v 0.871046 2.933377 1.672015
v -0.871046 2.933377 1.672015
v -2.622170 2.582209 0.049239
v 2.622170 2.582209 0.049239
v -0.873100 3.151365 0.049129
v 0.873100 3.151365 0.049129
v -1.349152 1.352575 1.851891
v 1.349152 1.352575 1.851891
v 0.875793 1.352575 1.851891
v -0.875793 1.352575 1.851891
v -2.622134 0.015786 0.125228
v 2.622134 0.015786 0.125228
v -0.873581 0.013998 -0.069662
v 0.873581 0.013998 -0.069662
v -1.348328 -0.001633 1.851817
v 1.348328 -0.001633 1.851817
v 0.874970 -0.001633 1.851817
v -0.874970 -0.001633 1.851817
v -2.624909 1.369004 -0.119610
v 2.624909 1.369004 -0.119610
v -2.624909 3.150352 0.209876
v 2.624909 3.150352 0.209876
v -0.874970 1.369004 -0.119610
v 0.874970 1.369004 -0.119610
v 0.874970 3.981648 0.209876
v -0.874970 3.981648 0.209876
v -2.624909 3.150352 1.498762
v 2.624909 3.150352 1.498762
v 0.874970 3.981648 1.498762
v -0.874970 3.981648 1.498762
v -1.348328 2.098595 1.840140
v 1.348328 2.098595 1.840140
v 0.874970 2.942685 1.720984
v -0.874970 2.942685 1.720984
v -2.624909 2.590457 0.000000
v 2.624909 2.590457 0.000000
v -0.874970 3.160469 0.000000
v 0.874970 3.160469 0.000000
v -1.348328 1.355165 1.901817
v 1.348328 1.355165 1.901817
v 0.874970 1.355165 1.901817
v -0.874970 1.355165 1.901817
v -2.624909 0.012207 0.075433
v 2.624909 0.012207 0.075433
v -0.874970 0.012207 -0.119610
v 0.874970 0.012207 -0.119610
v -1.348328 -0.001633 1.901817
v 1.348328 -0.001633 1.901817
v 0.874970 -0.001633 1.901817
v -0.874970 -0.001633 1.901817
vn -0.1123 -0.2406 0.9641
vn 0.1110 -0.3408 0.9336
vn -0.0000 -0.2408 0.9706
vn -0.4312 -0.9023 -0.0045
vn -0.4294 -0.9031 -0.0076
vn -0.4291 -0.9032 -0.0081
vn 0.4312 -0.9023 -0.0045
vn 0.4294 -0.9031 -0.0076
vn 0.4314 -0.9021 -0.0039
vn -0.0924 -0.1921 -0.9770
vn -0.0928 -0.1904 -0.9773
vn -0.0922 -0.1940 -0.9767
vn 0.0924 -0.1921 -0.9770
vn 0.0928 -0.1904 -0.9773
vn 0.0927 -0.1902 -0.9774
vn -0.0000 -0.0664 0.9978
vn -0.0000 -0.0975 0.9952
vn -0.0217 -0.0664 0.9976
vn 0.0478 -0.1128 -0.9925
vn -0.0000 -0.0826 -0.9966
vn -0.0000 -0.0000 1.0000
vn -0.0000 0.0001 -1.0000
vn -0.1098 0.1418 0.9838
vn 0.1136 0.3487 -0.9303
vn -0.1136 0.3487 -0.9303
vn -0.0000 0.2476 -0.9689
vn 0.4291 0.9033 -0.0000
vn -0.4291 0.9033 -0.0000
vn 0.0989 0.2081 0.9731
vn -0.0989 0.2081 0.9731
vn -0.0000 0.0666 -0.9978
vn -0.0000 0.0975 -0.9952
vn -0.0482 0.1130 0.9924
vn 0.0482 0.1130 0.9924
vn -0.0000 -0.0000 -1.0000
vn -0.9994 -0.0033 0.0342
vn -0.9994 -0.0034 0.0343
vn -0.9994 0.0007 0.0343
vn 0.9389 -0.1208 0.3222
vn -0.0000 0.7733 0.6340
vn -0.9357 0.3528 -0.0000
vn 0.9021 -0.4314 0.0006
vn -0.9107 -0.4131 -0.0000
vn 0.9017 0.4324 -0.0023
vn -0.8758 0.1010 0.4721
vn 0.6413 -0.7610 0.0975
vn -0.6334 -0.6174 0.4665
vn 0.9968 0.0014 0.0796
vn 0.9969 0.0051 0.0789
vn 0.9969 0.0052 0.0789
vn -0.9984 0.0038 0.0562
vn -0.9984 0.0035 0.0564
vn -0.9985 -0.0045 0.0554
vn 0.9985 -0.0045 0.0548
vn 0.9984 0.0035 0.0564
vn 0.9985 -0.0045 0.0554
vn -0.9969 0.0052 0.0789
vn -0.9969 0.0089 0.0782
vn -0.9969 0.0051 0.0789
vn 0.9999 0.0033 0.0163
vn 0.9999 0.0016 0.0164
vn 0.9999 0.0017 0.0164
vn -0.9999 -0.0010 -0.0126
vn 0.9999 -0.0048 -0.0162
vn 0.9999 -0.0024 -0.0164
vn 0.9999 -0.0025 -0.0164
vn -0.0069 -0.9974 0.0713
vn -0.0000 -0.9994 0.0357
vn 0.0040 -0.9994 0.0357
vn 0.0020 -0.9994 0.0358
vn -0.0020 -0.9994 0.0358
vn -0.0000 -1.0000 -0.0000
vn -0.9985 0.0072 0.0551
vn -0.9999 0.0017 0.0164
vn -0.9999 -0.0000 0.0165
vn -0.9999 0.0016 0.0164
vn 1.0000 0.0006 -0.0000
vn 0.9994 -0.0033 0.0342
vn 0.9994 0.0049 0.0343
vn 0.9994 0.0007 0.0343
vn -0.9999 -0.0025 -0.0164
vn -0.9999 -0.0000 -0.0165
vn -0.9999 -0.0024 -0.0164
vn 1.0000 -0.0006 -0.0000
vn -0.1110 -0.3408 0.9336
vn 0.1123 -0.2406 0.9641
vn -0.4314 -0.9021 -0.0039
vn 0.4291 -0.9032 -0.0081
vn -0.0927 -0.1902 -0.9774
vn 0.0922 -0.1940 -0.9767
vn 0.0217 -0.0664 0.9976
vn -0.0478 -0.1128 -0.9925
vn 0.1098 0.1418 0.9838
vn 0.1168 0.2459 -0.9622
vn -0.1168 0.2459 -0.9622
vn 0.1009 0.1943 0.9757
vn -0.1009 0.1943 0.9757
vn -0.0217 0.0666 -0.9975
vn 0.0217 0.0666 -0.9975
vn -0.0000 0.0827 0.9966
vn -0.1097 -0.1414 -0.9839
vn 0.1097 -0.1414 -0.9839
vn -0.9985 -0.0045 0.0548
vn 0.9984 0.0038 0.0562
vn -0.9017 0.4324 -0.0023
vn 0.9107 -0.4131 -0.0000
vn -0.9021 -0.4314 0.0006
vn 0.9357 0.3528 -0.0000
vn -0.9968 0.0014 0.0796
vn 0.6334 -0.6174 0.4665
vn -0.6413 -0.7610 0.0975
vn 0.8758 0.1010 0.4721
vn -0.9389 -0.1208 0.3222
vn 0.9994 -0.0034 0.0343
vn -0.9999 -0.0048 -0.0162
vn 0.9999 -0.0010 -0.0126
vn -0.9999 0.0033 0.0163
vn 0.9969 0.0089 0.0782
vn -0.0040 -0.9994 0.0357
vn 0.0069 -0.9974 0.0713
vn -0.9994 0.0049 0.0343
vn -1.0000 -0.0006 -0.0000
vn 0.9999 -0.0000 -0.0165
vn 0.9985 0.0072 0.0551
vn -1.0000 0.0006 -0.0000
vn 0.9999 -0.0000 0.0165
vt 0.666667 0.685690
vt 1.000000 0.681818
vt 0.666667 1.000000
vt 0.333333 0.685690
vt 0.000000 0.681818
vt 0.000000 0.467516
vt 0.333333 1.000000
vt 0.666667 0.000000
vt 0.333333 0.000000
vt 0.000000 0.000000
vt 1.000000 0.467516
vt 1.000000 0.000000
s 1
f 20/1/1 4/2/1 7/3/1
f 19/4/2 3/5/2 17/6/2
f 20/1/3 8/7/3 19/4/3
f 7/3/4 10/2/5 11/3/6
f 8/7/7 9/5/8 3/5/9
f 10/2/10 15/3/11 11/3/12
f 9/5/13 16/7/14 13/5/15
f 6/8/16 19/4/16 5/9/16
f 5/9/17 17/6/17 1/10/17
f 6/8/18 18/11/18 20/1/18
f 14/2/19 23/3/19 15/3/19
f 13/5/20 24/7/20 21/5/20
f 1/10/21 27/9/21 5/9/21
f 24/7/22 29/5/22 21/5/22
f 5/9/21 28/8/21 6/8/21
f 2/12/23 28/8/23 26/12/23
f 23/3/22 30/2/22 31/3/22
f 52/1/24 36/2/24 50/11/24
f 35/5/25 51/4/25 49/6/25
f 40/7/26 52/1/26 51/4/26
f 43/3/27 36/2/27 39/3/27
f 41/5/28 40/7/28 35/5/28
f 47/3/29 42/2/29 43/3/29
f 41/5/30 48/7/30 44/7/30
f 51/4/31 38/8/31 37/9/31
f 49/6/32 37/9/32 33/10/32
f 38/8/32 50/11/32 34/12/32
f 55/3/33 46/2/33 47/3/33
f 45/5/34 56/7/34 48/7/34
f 59/9/35 33/10/35 37/9/35
f 61/5/21 56/7/21 53/5/21
f 60/8/35 37/9/35 38/8/35
f 34/12/35 60/8/35 38/8/35
f 63/3/21 54/2/21 55/3/21
f 1/10/36 49/6/37 33/10/38
f 4/2/39 50/11/39 36/2/39
f 7/3/40 40/7/40 8/7/40
f 7/3/41 43/3/41 39/3/41
f 4/2/42 42/2/42 10/2/42
f 3/5/43 41/5/43 35/5/43
f 8/7/44 44/7/44 12/7/44
f 11/3/45 47/3/45 43/3/45
f 10/2/46 46/2/46 14/2/46
f 9/5/47 45/5/47 41/5/47
f 12/7/48 48/7/49 16/7/50
f 3/5/51 49/6/52 17/6/53
f 2/12/54 50/11/55 18/11/56
f 15/3/57 55/3/58 47/3/59
f 14/2/60 54/2/61 22/2/62
f 13/5/63 53/5/63 45/5/63
f 16/7/64 56/7/65 24/7/66
f 28/8/67 58/12/67 26/12/67
f 27/9/68 57/10/69 59/9/70
f 27/9/68 60/8/68 28/8/71
f 32/7/72 61/5/72 29/5/72
f 30/2/72 63/3/72 31/3/72
f 1/10/73 57/10/73 25/10/73
f 21/5/74 61/5/75 53/5/76
f 24/7/77 64/7/77 32/7/77
f 2/12/78 58/12/79 34/12/80
f 23/3/81 63/3/82 55/3/83
f 22/2/84 62/2/84 30/2/84
f 20/1/85 18/11/85 4/2/85
f 19/4/86 8/7/86 3/5/86
f 20/1/3 7/3/3 8/7/3
f 7/3/4 4/2/87 10/2/5
f 8/7/7 12/7/88 9/5/8
f 10/2/10 14/2/89 15/3/11
f 9/5/13 12/7/90 16/7/14
f 6/8/16 20/1/16 19/4/16
f 5/9/91 19/4/91 17/6/91
f 6/8/17 2/12/17 18/11/17
f 14/2/20 22/2/20 23/3/20
f 13/5/92 16/7/92 24/7/92
f 1/10/93 25/10/93 27/9/93
f 24/7/22 32/7/22 29/5/22
f 5/9/21 27/9/21 28/8/21
f 2/12/21 6/8/21 28/8/21
f 23/3/22 22/2/22 30/2/22
f 52/1/94 39/3/94 36/2/94
f 35/5/95 40/7/95 51/4/95
f 40/7/26 39/3/26 52/1/26
f 43/3/27 42/2/27 36/2/27
f 41/5/28 44/7/28 40/7/28
f 47/3/96 46/2/96 42/2/96
f 41/5/97 45/5/97 48/7/97
f 51/4/31 52/1/31 38/8/31
f 49/6/98 51/4/98 37/9/98
f 38/8/99 52/1/99 50/11/99
f 55/3/100 54/2/100 46/2/100
f 45/5/100 53/5/100 56/7/100
f 59/9/101 57/10/101 33/10/101
f 61/5/21 64/7/21 56/7/21
f 60/8/35 59/9/35 37/9/35
f 34/12/102 58/12/102 60/8/102
f 63/3/21 62/2/21 54/2/21
f 1/10/103 17/6/53 49/6/52
f 4/2/104 18/11/56 50/11/55
f 7/3/40 39/3/40 40/7/40
f 7/3/105 11/3/105 43/3/105
f 4/2/106 36/2/106 42/2/106
f 3/5/107 9/5/107 41/5/107
f 8/7/108 40/7/108 44/7/108
f 11/3/109 15/3/57 47/3/59
f 10/2/110 42/2/110 46/2/110
f 9/5/111 13/5/111 45/5/111
f 12/7/112 44/7/112 48/7/112
f 3/5/113 35/5/113 49/6/113
f 2/12/78 34/12/80 50/11/114
f 15/3/115 23/3/81 55/3/83
f 14/2/116 46/2/116 54/2/116
f 13/5/117 21/5/74 53/5/76
f 16/7/50 48/7/49 56/7/118
f 28/8/71 60/8/68 58/12/119
f 27/9/120 25/10/120 57/10/120
f 27/9/68 59/9/70 60/8/68
f 32/7/72 64/7/72 61/5/72
f 30/2/72 62/2/72 63/3/72
f 1/10/36 33/10/38 57/10/121
f 21/5/122 29/5/122 61/5/122
f 24/7/66 56/7/65 64/7/123
f 2/12/124 26/12/124 58/12/124
f 23/3/125 31/3/125 63/3/125
f 22/2/62 54/2/61 62/2/126
