# Blender 4.4.0
# www.blender.org
mtllib building_2.mtl
o 立方体
v -3.840134 0.002122 1.973905
v -3.840134 19.825150 1.973905
v -3.840134 0.002122 -4.181369
v -3.840134 19.825150 -4.181369
v 1.973905 0.002122 1.973905
v 1.973905 19.825150 1.973905
v 1.973905 0.002122 -4.181369
v 1.973905 19.825150 -4.181369
v 5.952873 19.825150 -4.181369
v 5.952873 0.002122 -4.181369
v 5.952873 0.002122 1.973905
v 5.952873 19.825150 1.973905
v -3.840134 0.002122 9.960059
v -3.840134 19.825150 9.960059
v 1.973905 19.825150 9.960059
v 1.973905 0.002122 9.960059
v 5.794032 7.814052 -4.001642
v 5.794032 8.048614 -4.001642
v 1.937443 8.048614 -4.001642
v 1.937443 7.814052 -4.001642
v 5.794032 3.849446 -4.001642
v 5.794032 4.084008 -4.001642
v 1.937443 4.084008 -4.001642
v 1.937443 3.849446 -4.001642
v 1.937443 15.977825 9.704849
v 1.937443 15.743263 9.704849
v 1.937443 12.013220 9.704849
v 1.937443 11.778658 9.704849
v 1.937443 8.048614 9.704849
v 1.937443 7.814052 9.704849
v 1.937443 4.084008 9.704849
v 1.937443 3.849446 9.704849
v -3.697778 4.084008 9.704849
v -3.697778 3.849446 9.704849
v -3.697778 3.849446 1.964319
v -3.697778 4.084008 1.964319
v -3.697778 8.048614 9.704849
v -3.697778 7.814052 9.704849
v -3.697778 7.814052 1.964319
v -3.697778 8.048614 1.964319
v -3.697778 12.013220 9.704849
v -3.697778 11.778658 9.704849
v -3.697778 11.778658 1.964319
v -3.697778 12.013220 1.964319
v -3.697778 15.977825 9.704849
v -3.697778 15.743263 9.704849
v -3.697778 15.743263 1.964319
v -3.697778 15.977825 1.964319
v -3.840134 4.084008 1.973905
v -3.840134 3.849447 1.973905
v -3.840134 8.048614 1.973905
v -3.840134 7.814052 1.973905
v -3.840134 12.013220 1.973905
v -3.840134 11.778658 1.973905
v -3.840134 15.977825 1.973905
v -3.840134 15.743263 1.973905
v -3.840134 15.743263 -4.181369
v -3.840134 15.977825 -4.181369
v -3.840134 11.778658 -4.181369
v -3.840134 12.013220 -4.181369
v -3.840134 7.814052 -4.181369
v -3.840134 8.048614 -4.181369
v -3.840134 3.849447 -4.181369
v -3.840134 4.084008 -4.181369
v 1.973905 15.743263 -4.181369
v 1.973905 15.977825 -4.181369
v 1.973905 11.778658 -4.181369
v 1.973905 12.013220 -4.181369
v 1.973905 7.814052 -4.181369
v 1.973905 8.048614 -4.181369
v 1.973905 3.849447 -4.181369
v 1.973905 4.084008 -4.181369
v 1.973905 15.743263 1.973905
v 1.973905 15.977825 1.973905
v 1.973905 11.778658 1.973905
v 1.973905 12.013220 1.973905
v 1.973905 7.814052 1.973905
v 1.973905 8.048614 1.973905
v 1.973905 3.849447 1.973905
v 1.973905 4.084008 1.973905
v 5.952873 15.977825 -4.181369
v 5.952873 15.743263 -4.181369
v 5.952873 12.013220 -4.181369
v 5.952873 11.778658 -4.181369
v 5.952873 8.048614 -4.181369
v 5.952873 7.814052 -4.181369
v 5.952873 4.084008 -4.181369
v 5.952873 3.849447 -4.181369
v 5.952873 15.977825 1.973905
v 5.952873 15.743263 1.973905
v 5.952873 12.013220 1.973905
v 5.952873 11.778658 1.973905
v 5.952873 8.048614 1.973905
v 5.952873 7.814052 1.973905
v 5.952873 4.084008 1.973905
v 5.952873 3.849447 1.973905
v -3.840134 3.849447 9.960059
v -3.840134 4.084008 9.960059
v -3.840134 7.814052 9.960059
v -3.840134 8.048614 9.960059
v -3.840134 11.778658 9.960059
v -3.840134 12.013220 9.960059
v -3.840134 15.743263 9.960059
v -3.840134 15.977825 9.960059
v 1.973905 15.743263 9.960059
v 1.973905 15.977825 9.960059
v 1.973905 11.778658 9.960059
v 1.973905 12.013220 9.960059
v 1.973905 7.814052 9.960059
v 1.973905 8.048614 9.960059
v 1.973905 3.849447 9.960059
v 1.973905 4.084008 9.960059
v 1.937443 11.778658 -4.001642
v 1.937443 12.013220 -4.001642
v 5.794032 12.013220 -4.001642
v 5.794032 11.778658 -4.001642
v 1.937443 15.743263 -4.001642
v 1.937443 15.977825 -4.001642
v 5.794032 15.977825 -4.001642
v 5.794032 15.743263 -4.001642
v 5.794032 4.084008 1.964319
v 5.794032 3.849446 1.964319
v 5.794032 8.048614 1.964319
v 5.794032 7.814052 1.964319
v 5.794032 12.013220 1.964319
v 5.794032 11.778658 1.964319
v 5.794032 15.977825 1.964319
v 5.794032 15.743263 1.964319
v 1.937443 3.849446 1.964319
v 1.937443 4.084008 1.964319
v 1.937443 7.814052 1.964319
v 1.937443 8.048614 1.964319
v 1.937443 11.778658 1.964319
v 1.937443 12.013220 1.964319
v 1.937443 15.743263 1.964319
v 1.937443 15.977825 1.964319
v -3.697778 3.849446 -4.001642
v -3.697778 4.084008 -4.001642
v -3.697778 7.814052 -4.001642
v -3.697778 8.048614 -4.001642
v -3.697778 11.778658 -4.001642
v -3.697778 12.013220 -4.001642
v -3.697778 15.743263 -4.001642
v -3.697778 15.977825 -4.001642
vn -0.0000 -0.0000 -1.0000
vn 1.0000 -0.0000 -0.0000
vn -0.0000 -0.0000 1.0000
vn -0.0000 -1.0000 -0.0000
vn -0.0000 1.0000 -0.0000
vn -1.0000 -0.0000 -0.0000
vn 0.0001 -1.0000 -0.0000
vn -0.0001 1.0000 -0.0000
vt 0.625000 0.250000
vt 0.576479 0.500000
vt 0.576479 0.250000
vt 0.573521 0.250000
vt 0.526479 0.500000
vt 0.526479 0.250000
vt 0.625000 0.500000
vt 0.576479 0.750000
vt 0.526479 0.750000
vt 0.573521 0.750000
vt 0.573521 0.750000
vt 0.375000 0.500000
vt 0.125000 0.750000
vt 0.125000 0.500000
vt 0.875000 0.500000
vt 0.625000 0.750000
vt 0.573521 0.500000
vt 0.375000 0.750000
vt 0.573521 0.000000
vt 0.576479 0.000000
vt 0.573521 0.000000
vt 0.473521 0.000000
vt 0.426479 0.250000
vt 0.426479 0.000000
vt 0.875000 0.750000
vt 0.625000 0.000000
vt 0.526479 0.000000
vt 0.523521 0.000000
vt 0.476479 0.250000
vt 0.476479 0.000000
vt 0.473521 0.750000
vt 0.426479 1.000000
vt 0.426479 0.750000
vt 0.523521 0.750000
vt 0.476479 1.000000
vt 0.476479 0.750000
vt 0.526479 1.000000
vt 0.576479 1.000000
vt 0.423521 0.500000
vt 0.473521 0.500000
vt 0.426479 0.500000
vt 0.426479 0.500000
vt 0.523521 0.500000
vt 0.476479 0.500000
vt 0.423521 0.750000
vt 0.375000 1.000000
vt 0.423521 0.500000
vt 0.426479 0.750000
vt 0.423521 0.750000
vt 0.423521 0.250000
vt 0.375000 0.250000
vt 0.473521 0.250000
vt 0.426479 0.500000
vt 0.426479 0.250000
vt 0.523521 0.250000
vt 0.375000 0.000000
vt 0.423521 0.000000
vt 0.423521 0.000000
vt 0.426479 0.000000
vt 0.573521 0.500000
vt 0.573521 1.000000
vt 0.523521 1.000000
vt 0.426479 0.750000
vt 0.423521 0.250000
vt 0.573521 0.250000
vt 0.423521 1.000000
vt 0.473521 1.000000
vt 0.625000 1.000000
s 0
f 4/1/1 66/2/1 58/3/1
f 57/4/1 68/5/1 60/6/1
f 9/7/2 89/8/2 81/2/2
f 76/9/3 90/10/3 73/11/3
f 7/12/4 1/13/4 3/14/4
f 4/15/5 6/16/5 8/7/5
f 82/17/2 91/9/2 83/5/2
f 7/12/4 11/18/4 5/18/4
f 6/16/5 9/7/5 8/7/5
f 65/17/1 83/5/1 68/5/1
f 46/19/6 48/20/6 47/21/6
f 52/22/6 64/23/6 49/24/6
f 5/18/4 13/13/4 1/13/4
f 2/25/5 15/16/5 6/16/5
f 2/26/6 58/3/6 55/20/6
f 55/20/6 14/26/6 2/26/6
f 56/19/6 60/6/6 53/27/6
f 54/28/6 62/29/6 51/30/6
f 109/31/3 98/32/3 112/33/3
f 107/34/3 100/35/3 110/36/3
f 105/10/3 102/37/3 108/9/3
f 15/16/3 104/38/3 106/8/3
f 74/8/3 12/16/3 6/16/3
f 71/39/1 10/12/1 7/12/1
f 69/40/1 87/41/1 72/42/1
f 67/43/1 85/44/1 70/44/1
f 111/45/3 13/46/3 16/18/3
f 88/47/2 11/18/2 10/12/2
f 86/40/2 95/48/2 87/41/2
f 84/43/2 93/36/2 85/44/2
f 5/18/3 96/49/3 79/49/3
f 79/45/2 16/18/2 5/18/2
f 80/33/3 94/31/3 77/31/3
f 78/36/3 92/34/3 75/34/3
f 6/16/2 106/8/2 74/8/2
f 73/10/2 108/9/2 76/9/2
f 75/34/2 110/36/2 78/36/2
f 77/31/2 112/48/2 80/33/2
f 8/7/1 81/2/1 66/2/1
f 63/50/1 7/12/1 3/51/1
f 61/52/1 72/53/1 64/54/1
f 59/55/1 70/44/1 62/29/1
f 1/56/6 97/57/6 50/58/6
f 49/59/6 99/22/6 52/22/6
f 51/30/6 101/28/6 54/28/6
f 53/27/6 103/19/6 56/21/6
f 52/22/5 38/22/5 39/22/5
f 69/40/5 17/40/5 86/40/5
f 77/31/5 30/31/5 109/31/5
f 65/60/5 143/4/5 117/60/5
f 78/36/4 29/36/4 132/36/4
f 66/2/4 144/3/4 58/3/4
f 53/27/4 41/27/4 102/27/4
f 70/44/4 18/44/4 19/44/4
f 79/45/5 32/49/5 111/49/5
f 67/43/5 141/55/5 113/43/5
f 54/28/5 42/28/5 43/28/5
f 71/39/5 21/39/5 88/39/5
f 80/33/4 31/48/4 130/33/4
f 68/5/4 142/6/4 60/6/4
f 55/20/4 45/20/4 104/20/4
f 72/42/4 22/41/4 23/42/4
f 90/11/5 120/17/5 128/11/5
f 69/40/5 139/52/5 20/40/5
f 70/44/4 140/29/4 62/29/4
f 56/21/5 46/19/5 47/21/5
f 105/10/5 46/61/5 103/61/5
f 89/8/4 119/2/4 81/2/4
f 106/8/4 45/38/4 25/8/4
f 92/34/5 116/43/5 126/34/5
f 71/39/5 137/50/5 24/39/5
f 72/53/4 138/54/4 64/54/4
f 107/34/5 42/62/5 101/62/5
f 91/9/4 115/5/4 83/5/4
f 108/9/4 41/37/4 27/9/4
f 94/31/5 17/40/5 124/31/5
f 80/33/4 121/63/4 95/63/4
f 79/49/5 122/49/5 129/49/5
f 50/57/6 3/51/6 1/56/6
f 42/28/6 44/27/6 43/28/6
f 38/22/6 40/30/6 39/22/6
f 34/57/6 36/59/6 35/58/6
f 33/32/3 32/45/3 31/33/3
f 37/35/3 30/31/3 29/36/3
f 41/37/3 28/34/3 27/9/3
f 45/38/3 26/10/3 25/8/3
f 22/41/1 24/39/1 23/42/1
f 18/44/1 20/40/1 19/44/1
f 115/5/1 113/43/1 114/5/1
f 119/2/1 117/17/1 118/2/1
f 121/48/2 21/47/2 22/41/2
f 123/36/2 17/40/2 18/44/2
f 125/9/2 116/43/2 115/5/2
f 127/8/2 120/17/2 119/2/2
f 31/48/2 129/45/2 130/33/2
f 29/36/2 131/31/2 132/36/2
f 27/9/2 133/34/2 134/9/2
f 25/8/2 135/10/2 136/8/2
f 128/10/3 136/8/3 135/11/3
f 126/34/3 134/9/3 133/34/3
f 124/31/3 132/36/3 131/31/3
f 122/49/3 130/33/3 129/49/3
f 23/53/1 137/50/1 138/54/1
f 19/44/1 139/52/1 140/29/1
f 114/5/1 141/55/1 142/6/1
f 118/2/1 143/4/1 144/3/1
f 138/23/6 35/57/6 36/24/6
f 140/29/6 39/22/6 40/30/6
f 142/6/6 43/28/6 44/27/6
f 144/3/6 47/19/6 48/20/6
f 49/24/4 138/23/4 36/24/4
f 50/57/5 137/64/5 63/64/5
f 76/9/7 27/9/7 134/9/7
f 68/5/4 115/5/4 114/5/4
f 51/30/4 37/30/4 100/30/4
f 51/30/4 140/29/4 40/30/4
f 75/34/5 28/34/5 107/34/5
f 52/22/5 139/52/5 61/52/5
f 67/43/5 116/43/5 84/43/5
f 50/58/5 34/57/5 35/58/5
f 53/27/4 142/6/4 44/27/4
f 74/8/4 25/8/4 136/8/4
f 54/28/5 141/55/5 59/55/5
f 73/10/5 26/11/5 105/11/5
f 66/2/4 119/2/4 118/2/4
f 49/59/4 33/24/4 98/24/4
f 55/20/4 144/3/4 48/20/4
f 73/11/5 128/10/5 135/11/5
f 56/19/5 143/65/5 57/65/5
f 74/8/4 127/8/4 89/8/4
f 65/17/5 120/60/5 82/60/5
f 112/33/4 33/32/4 31/33/4
f 75/34/5 126/34/5 133/34/5
f 95/48/4 22/41/4 87/41/4
f 111/45/5 34/66/5 97/66/5
f 76/9/4 125/9/4 91/9/4
f 77/31/5 124/31/5 131/31/5
f 96/49/5 21/47/5 122/49/5
f 110/36/4 37/35/4 29/36/4
f 78/36/4 123/36/4 93/36/4
f 93/36/4 18/44/4 85/44/4
f 109/31/5 38/67/5 99/67/5
f 4/1/1 8/7/1 66/2/1
f 57/4/1 65/60/1 68/5/1
f 9/7/2 12/16/2 89/8/2
f 76/9/3 91/9/3 90/10/3
f 7/12/4 5/18/4 1/13/4
f 4/15/5 2/25/5 6/16/5
f 82/17/2 90/11/2 91/9/2
f 7/12/4 10/12/4 11/18/4
f 6/16/5 12/16/5 9/7/5
f 65/17/1 82/60/1 83/5/1
f 46/19/6 45/20/6 48/20/6
f 52/22/6 61/52/6 64/23/6
f 5/18/4 16/18/4 13/13/4
f 2/25/5 14/25/5 15/16/5
f 2/26/6 4/1/6 58/3/6
f 55/20/6 104/20/6 14/26/6
f 56/19/6 57/65/6 60/6/6
f 54/28/6 59/55/6 62/29/6
f 109/31/3 99/67/3 98/32/3
f 107/34/3 101/62/3 100/35/3
f 105/10/3 103/61/3 102/37/3
f 15/16/3 14/68/3 104/38/3
f 74/8/3 89/8/3 12/16/3
f 71/39/1 88/39/1 10/12/1
f 69/40/1 86/40/1 87/41/1
f 67/43/1 84/43/1 85/44/1
f 111/45/3 97/66/3 13/46/3
f 88/47/2 96/49/2 11/18/2
f 86/40/2 94/31/2 95/48/2
f 84/43/2 92/34/2 93/36/2
f 5/18/3 11/18/3 96/49/3
f 79/45/2 111/49/2 16/18/2
f 80/33/3 95/63/3 94/31/3
f 78/36/3 93/36/3 92/34/3
f 6/16/2 15/16/2 106/8/2
f 73/10/2 105/11/2 108/9/2
f 75/34/2 107/34/2 110/36/2
f 77/31/2 109/31/2 112/48/2
f 8/7/1 9/7/1 81/2/1
f 63/50/1 71/39/1 7/12/1
f 61/52/1 69/40/1 72/53/1
f 59/55/1 67/43/1 70/44/1
f 1/56/6 13/56/6 97/57/6
f 49/59/6 98/24/6 99/22/6
f 51/30/6 100/30/6 101/28/6
f 53/27/6 102/27/6 103/19/6
f 52/22/5 99/22/5 38/22/5
f 69/40/5 20/40/5 17/40/5
f 77/31/5 131/31/5 30/31/5
f 65/60/5 57/4/5 143/4/5
f 78/36/4 110/36/4 29/36/4
f 66/2/4 118/2/4 144/3/4
f 53/27/4 44/27/4 41/27/4
f 70/44/4 85/44/4 18/44/4
f 79/45/5 129/45/5 32/49/5
f 67/43/5 59/55/5 141/55/5
f 54/28/5 101/28/5 42/28/5
f 71/39/5 24/39/5 21/39/5
f 80/33/4 112/48/4 31/48/4
f 68/5/4 114/5/4 142/6/4
f 55/20/4 48/20/4 45/20/4
f 72/42/4 87/41/4 22/41/4
f 90/11/5 82/17/5 120/17/5
f 69/40/5 61/52/5 139/52/5
f 70/44/4 19/44/4 140/29/4
f 56/21/5 103/19/5 46/19/5
f 105/10/5 26/10/5 46/61/5
f 89/8/4 127/8/4 119/2/4
f 106/8/4 104/38/4 45/38/4
f 92/34/5 84/43/5 116/43/5
f 71/39/5 63/50/5 137/50/5
f 72/53/4 23/53/4 138/54/4
f 107/34/5 28/34/5 42/62/5
f 91/9/4 125/9/4 115/5/4
f 108/9/4 102/37/4 41/37/4
f 94/31/5 86/40/5 17/40/5
f 80/33/4 130/33/4 121/63/4
f 79/49/5 96/49/5 122/49/5
f 50/57/6 63/64/6 3/51/6
f 42/28/6 41/27/6 44/27/6
f 38/22/6 37/30/6 40/30/6
f 34/57/6 33/24/6 36/59/6
f 33/32/3 34/66/3 32/45/3
f 37/35/3 38/67/3 30/31/3
f 41/37/3 42/62/3 28/34/3
f 45/38/3 46/61/3 26/10/3
f 22/41/1 21/39/1 24/39/1
f 18/44/1 17/40/1 20/40/1
f 115/5/1 116/43/1 113/43/1
f 119/2/1 120/60/1 117/17/1
f 121/48/2 122/49/2 21/47/2
f 123/36/2 124/31/2 17/40/2
f 125/9/2 126/34/2 116/43/2
f 127/8/2 128/11/2 120/17/2
f 31/48/2 32/49/2 129/45/2
f 29/36/2 30/31/2 131/31/2
f 27/9/2 28/34/2 133/34/2
f 25/8/2 26/11/2 135/10/2
f 128/10/3 127/8/3 136/8/3
f 126/34/3 125/9/3 134/9/3
f 124/31/3 123/36/3 132/36/3
f 122/49/3 121/63/3 130/33/3
f 23/53/1 24/39/1 137/50/1
f 19/44/1 20/40/1 139/52/1
f 114/5/1 113/43/1 141/55/1
f 118/2/1 117/60/1 143/4/1
f 138/23/6 137/64/6 35/57/6
f 140/29/6 139/52/6 39/22/6
f 142/6/6 141/55/6 43/28/6
f 144/3/6 143/65/6 47/19/6
f 49/24/4 64/23/4 138/23/4
f 50/57/5 35/57/5 137/64/5
f 76/9/4 108/9/4 27/9/4
f 68/5/4 83/5/4 115/5/4
f 51/30/4 40/30/4 37/30/4
f 51/30/4 62/29/4 140/29/4
f 75/34/8 133/34/8 28/34/8
f 52/22/5 39/22/5 139/52/5
f 67/43/5 113/43/5 116/43/5
f 50/58/5 97/57/5 34/57/5
f 53/27/4 60/6/4 142/6/4
f 74/8/4 106/8/4 25/8/4
f 54/28/5 43/28/5 141/55/5
f 73/10/5 135/10/5 26/11/5
f 66/2/4 81/2/4 119/2/4
f 49/59/4 36/59/4 33/24/4
f 55/20/4 58/3/4 144/3/4
f 73/11/5 90/10/5 128/10/5
f 56/19/5 47/19/5 143/65/5
f 74/8/4 136/8/4 127/8/4
f 65/17/5 117/17/5 120/60/5
f 112/33/4 98/32/4 33/32/4
f 75/34/5 92/34/5 126/34/5
f 95/48/4 121/48/4 22/41/4
f 111/45/5 32/45/5 34/66/5
f 76/9/4 134/9/4 125/9/4
f 77/31/5 94/31/5 124/31/5
f 96/49/5 88/47/5 21/47/5
f 110/36/4 100/35/4 37/35/4
f 78/36/4 132/36/4 123/36/4
f 93/36/4 123/36/4 18/44/4
f 109/31/5 30/31/5 38/67/5
