# Blender 4.4.0
# www.blender.org
mtllib body.mtl
o 立方体
v -0.305707 -0.073222 0.802066
v -0.305707 0.089503 0.802066
v -0.305707 -0.073222 -0.802066
v -0.305707 0.022705 -0.802066
v 0.305707 -0.073222 0.802066
v 0.305707 0.089503 0.802066
v 0.305707 -0.073222 -0.802066
v 0.305707 0.022705 -0.802066
v 0.101902 -0.089503 -0.979193
v -0.101902 -0.089503 -0.979193
v -0.101902 0.033709 -0.979193
v 0.101902 0.033709 -0.979193
v -0.101902 -0.089503 0.979193
v 0.101902 -0.089503 0.979193
v 0.101902 0.100507 0.979193
v -0.101902 0.100507 0.979193
v 0.101902 0.055045 1.260574
v -0.101902 -0.049376 1.260574
v -0.101902 0.055045 1.260574
v 0.101902 -0.049376 1.260574
v 0.229362 -0.049376 1.260574
v 0.229362 0.031948 1.260574
v -0.229362 0.031948 1.260574
v -0.229362 -0.049376 1.260574
v -0.305707 -0.073222 0.356959
v -0.305707 -0.073222 -0.269968
v -0.305707 0.089503 -0.269968
v -0.305707 0.089503 0.356959
v 0.305707 -0.073222 -0.269968
v 0.305707 -0.073222 0.356959
v 0.305707 0.089503 0.356959
v 0.305707 0.089503 -0.269968
v 0.101902 0.209905 0.356959
v 0.101902 0.230881 -0.269968
v -0.101902 0.230881 -0.269968
v -0.101902 0.209905 0.356959
v -0.101902 -0.121872 0.356959
v -0.101902 -0.121872 -0.269968
v 0.101902 -0.121872 -0.269968
v 0.101902 -0.121872 0.356959
v 0.150258 -0.089503 1.119884
v 0.267534 -0.073222 1.119884
v 0.150258 0.126435 1.119884
v 0.267534 0.096421 1.119884
v -0.150258 0.126435 1.119884
v -0.267534 -0.073222 1.119884
v -0.267534 0.096421 1.119884
v -0.150258 -0.089503 1.119884
v 0.101902 -0.121872 0.043495
v -0.101902 -0.121872 0.043495
v -0.305707 -0.073222 0.043495
v -0.101902 0.230881 0.043495
v 0.101902 0.230881 0.043495
v 0.305707 0.089503 0.043495
v -0.305707 0.089503 0.043495
v 0.305707 -0.073222 0.043495
v -0.203804 -0.089503 -0.890629
v -0.203804 0.095005 0.890629
v -0.203804 0.028207 -0.890629
v -0.203804 -0.089503 0.890629
v -0.165632 -0.049376 1.260574
v -0.165632 0.043496 1.260574
v -0.203804 -0.107748 0.356959
v -0.203804 -0.107748 -0.269968
v -0.150904 0.268323 0.423479
v -0.203804 0.160192 -0.269968
v -0.208896 -0.089503 1.119884
v -0.208896 0.111428 1.119884
v -0.203804 0.160192 0.043495
v -0.203804 -0.107748 0.043495
v 0.203804 0.028207 -0.890629
v 0.203804 -0.089503 0.890629
v 0.203804 -0.089503 -0.890629
v 0.203804 0.095005 0.890629
v 0.208896 -0.089503 1.119884
v 0.165632 0.043496 1.260574
v 0.165632 -0.049376 1.260574
v 0.208896 0.111428 1.119884
v 0.150904 0.268323 0.423479
v 0.203804 0.160192 -0.269968
v 0.203804 -0.107748 0.356959
v 0.203804 -0.107748 -0.269968
v 0.203804 -0.107748 0.043495
v 0.203804 0.160192 0.043495
v -0.305707 -0.073222 0.579512
v -0.305707 0.089503 0.579512
v -0.101902 -0.121872 0.668076
v -0.101902 0.155206 0.668076
v 0.101902 -0.121872 0.668076
v 0.305707 -0.073222 0.579512
v 0.305707 0.089503 0.579512
v 0.101902 0.155206 0.668076
v -0.150904 0.240974 0.557274
v -0.203804 -0.107748 0.623794
v 0.203804 -0.107748 0.623794
v 0.150904 0.240974 0.557274
v -0.270292 0.089503 0.468236
v -0.101902 0.182555 0.512517
v 0.101902 -0.121872 0.512517
v -0.305707 -0.073222 0.468236
v -0.101902 -0.121872 0.512517
v 0.305707 -0.073222 0.468236
v 0.270292 0.089503 0.468236
v 0.101902 0.182555 0.512517
v -0.150904 0.254648 0.490377
v -0.203804 -0.107748 0.490377
v 0.203804 -0.107748 0.490377
v 0.150904 0.254648 0.490377
v 0.035458 -0.049334 -2.302330
v -0.035458 -0.049334 -2.302330
v -0.035458 -0.006461 -2.302330
v 0.035458 -0.006461 -2.302330
v 0.065527 -0.067512 -1.378312
v 0.065527 0.011718 -1.378312
v -0.065527 0.011718 -1.378312
v -0.065527 -0.067512 -1.378312
vn -0.2275 0.9525 -0.2025
vn 0.6560 -0.0000 -0.7548
vn -0.4436 0.7930 0.4176
vn -0.9457 -0.0000 -0.3250
vn 0.1821 -0.9828 -0.0289
vn 1.0000 -0.0000 -0.0000
vn 0.5615 0.8094 -0.1721
vn -0.0000 0.9635 -0.2679
vn -1.0000 -0.0000 -0.0000
vn -0.0000 -0.9985 -0.0549
vn -0.0000 -0.9990 -0.0456
vn -0.0000 -0.9617 0.2743
vn -0.0000 -0.0000 1.0000
vn -0.6560 -0.0000 -0.7548
vn 0.9995 -0.0000 -0.0325
vn -0.1656 -0.9839 0.0673
vn -0.0000 -0.9946 0.1035
vn -0.0000 0.9849 0.1732
vn -0.3365 0.8811 0.3324
vn 0.2136 -0.9746 0.0666
vn -0.1372 -0.9901 -0.0291
vn -0.0000 -1.0000 -0.0000
vn -0.3209 -0.9471 -0.0000
vn -0.0000 1.0000 -0.0000
vn 0.5700 0.8217 -0.0000
vn -0.5700 0.8217 -0.0000
vn 0.1373 -0.9905 -0.0000
vn -0.1575 0.8694 0.4683
vn 0.9651 -0.0000 0.2619
vn 0.2178 0.8510 0.4779
vn 0.9457 -0.0000 -0.3250
vn -0.9651 -0.0000 0.2619
vn -0.0081 0.9974 -0.0713
vn 0.9929 -0.0000 0.1193
vn 0.2675 -0.9635 -0.0059
vn -0.9457 -0.0000 0.3250
vn -0.9929 -0.0000 0.1193
vn 0.9457 -0.0000 0.3250
vn -0.2472 0.9661 -0.0747
vn 0.5353 0.7898 -0.2993
vn 0.7366 0.6705 -0.0883
vn -0.0000 0.9978 0.0668
vn -0.1373 -0.9905 -0.0000
vn -0.2397 0.9367 -0.2550
vn -0.1756 -0.9842 0.0211
vn -0.2604 -0.9378 0.2296
vn -0.1555 0.8583 0.4890
vn -0.1996 0.9651 0.1697
vn -0.2739 0.9266 -0.2576
vn 0.5691 0.8204 0.0549
vn 0.3209 -0.9471 -0.0000
vn 0.0391 0.9991 -0.0170
vn 0.2208 0.8626 0.4552
vn 0.0896 -0.9906 0.1031
vn 0.5670 0.8173 -0.1026
vn 0.0396 -0.9982 -0.0456
vn 0.6994 0.7148 -0.0000
vn 0.6980 0.6808 -0.2222
vn 0.7998 0.5912 0.1039
vn -0.8122 0.5715 0.1168
vn -0.8038 0.5829 0.1192
vn -0.8038 0.5829 0.1191
vn 0.8155 0.5700 0.1002
vn 0.7762 0.5801 0.2470
vn -0.0000 -0.0000 -1.0000
vn -0.0000 0.9998 -0.0197
vn -0.9995 -0.0000 -0.0325
vn -0.0000 -0.9998 -0.0197
vn -0.0000 -0.9985 -0.0550
vn -0.9959 -0.0000 -0.0908
vn -0.0000 0.9985 -0.0550
vn 0.9959 -0.0000 -0.0908
vn -0.5670 0.8173 -0.1026
vn 0.1996 0.9651 0.1697
vn 0.2739 0.9266 -0.2576
vn 0.2604 -0.9378 0.2296
vn -0.0896 -0.9906 0.1031
vn -0.6994 0.7148 -0.0000
vn -0.0396 -0.9982 -0.0456
vn -0.9331 0.2031 0.2970
vn -0.2208 0.8626 0.4552
vn 0.1555 0.8583 0.4890
vn 0.2397 0.9367 -0.2550
vn 0.1756 -0.9842 0.0211
vn -0.0391 0.9991 -0.0170
vn -0.5691 0.8204 0.0549
vn -0.7366 0.6705 -0.0883
vn 0.0081 0.9974 -0.0713
vn -0.2675 -0.9635 -0.0059
vn -0.2178 0.8510 0.4779
vn -0.1821 -0.9828 -0.0289
vn 0.4436 0.7930 0.4176
vn -0.2136 -0.9746 0.0666
vn -0.5615 0.8094 -0.1721
vn -0.5353 0.7898 -0.2993
vn 0.2472 0.9661 -0.0747
vn 0.1575 0.8694 0.4683
vn 0.1656 -0.9839 0.0673
vn 0.2275 0.9525 -0.2025
vn 0.1372 -0.9901 -0.0291
vn 0.3365 0.8811 0.3324
vn 0.8122 0.5715 0.1168
vn 0.8038 0.5829 0.1192
vn 0.8038 0.5829 0.1191
vn 0.9330 0.2031 -0.2970
vn -0.6980 0.6808 -0.2222
vn -0.7998 0.5912 0.1039
vn -0.8155 0.5700 0.1002
vn -0.7762 0.5801 0.2470
vn 0.9331 0.2031 0.2970
vn -0.9330 0.2031 -0.2970
vt 0.875000 0.500000
vt 0.833333 0.637379
vt 0.833333 0.500000
vt 0.625000 0.458333
vt 0.375000 0.500000
vt 0.375000 0.458333
vt 0.708333 0.719973
vt 0.666667 0.750000
vt 0.666667 0.719973
vt 0.375000 0.833333
vt 0.625000 0.833333
vt 0.333333 0.637379
vt 0.333333 0.500000
vt 0.625000 0.500000
vt 0.375000 0.637379
vt 0.666667 0.500000
vt 0.708333 0.637379
vt 0.666667 0.637379
vt 0.791667 0.500000
vt 0.708333 0.500000
vt 0.375000 0.112621
vt 0.625000 0.250000
vt 0.375000 0.250000
vt 0.208333 0.500000
vt 0.291667 0.637379
vt 0.208333 0.637379
vt 0.329431 0.753902
vt 0.359392 0.765608
vt 0.325529 0.757804
vt 0.375000 0.916667
vt 0.625000 0.291667
vt 0.375000 0.333333
vt 0.375000 0.291667
vt 0.625000 0.416667
vt 0.375000 0.416667
vt 0.375000 0.942725
vt 0.625000 0.968784
vt 0.375000 0.968784
vt 0.208333 0.719973
vt 0.166667 0.750000
vt 0.166667 0.719973
vt 0.291667 0.719973
vt 0.208333 0.750000
vt 0.791667 0.719973
vt 0.708333 0.750000
vt 0.833333 0.719973
vt 0.875000 0.750000
vt 0.833333 0.750000
vt 0.625000 0.719973
vt 0.375000 0.750000
vt 0.375000 0.719973
vt 0.333333 0.719973
vt 0.333333 0.750000
vt 0.166667 0.500000
vt 0.166667 0.637379
vt 0.208333 0.663662
vt 0.291667 0.663662
vt 0.125000 0.663662
vt 0.166667 0.663662
vt 0.708333 0.663662
vt 0.791667 0.637379
vt 0.791667 0.663662
vt 0.625000 0.663662
vt 0.666667 0.663662
vt 0.833333 0.663662
vt 0.333333 0.663662
vt 0.375000 0.663662
vt 0.625000 0.637379
vt 0.375000 0.086338
vt 0.625000 0.060055
vt 0.625000 0.086338
vt 0.375000 0.045041
vt 0.375000 0.060055
vt 0.632383 0.799892
vt 0.367196 0.799471
vt 0.825529 0.750000
vt 0.843784 0.750000
vt 0.817725 0.750000
vt 0.367196 0.757804
vt 0.639766 0.766451
vt 0.674049 0.758225
vt 0.670358 0.754113
vt 0.182275 0.750000
vt 0.174471 0.750000
vt 0.625000 0.916667
vt 0.375000 0.000000
vt 0.644321 0.000000
vt 0.634661 0.000000
vt 0.625000 0.750000
vt 0.625000 0.000000
vt 0.859392 0.750000
vt 0.625000 0.112621
vt 0.375000 0.689945
vt 0.625000 0.689945
vt 0.291667 0.689945
vt 0.333333 0.689945
vt 0.791667 0.689945
vt 0.833333 0.689945
vt 0.666667 0.689945
vt 0.708333 0.689945
vt 0.125000 0.689945
vt 0.166667 0.689945
vt 0.208333 0.689945
vt 0.875000 0.689945
vt 0.875000 0.663662
vt 0.791667 0.750000
vt 0.140608 0.750000
vt 0.125000 0.750000
vt 0.156216 0.750000
vt 0.875000 0.637379
vt 0.125000 0.500000
vt 0.125000 0.637379
vt 0.125000 0.719973
vt 0.625000 0.942725
vt 0.291667 0.750000
vt 0.632383 0.758225
vt 0.291667 0.500000
vt 0.625000 0.704959
vt 0.291667 0.704959
vt 0.166667 0.704959
vt 0.125000 0.704959
vt 0.791667 0.704959
vt 0.375000 0.030027
vt 0.333333 0.704959
vt 0.375000 0.704959
vt 0.875000 0.704959
vt 0.833333 0.704959
vt 0.708333 0.704959
vt 0.208333 0.704959
vt 0.666667 0.704959
vt 0.625000 0.030027
vt 0.625000 0.333333
vt 0.875000 0.719973
vt 0.625000 0.045041
s 1
f 4/1/1 66/2/1 59/3/1
f 71/4/2 7/5/2 73/6/2
f 92/7/3 74/8/3 96/9/3
f 41/10/4 17/11/4 43/11/4
f 7/5/5 82/12/5 73/13/5
f 8/14/6 29/15/6 7/5/6
f 71/16/7 34/17/7 80/18/7
f 11/19/8 34/17/8 12/20/8
f 26/21/9 4/22/9 3/23/9
f 10/24/10 39/25/11 38/26/11
f 75/27/12 21/28/12 77/29/12
f 15/11/13 13/30/13 14/10/13
f 59/31/14 10/32/14 57/33/14
f 114/34/15 109/35/15 112/34/15
f 61/36/13 23/37/13 24/38/13
f 87/39/16 60/40/16 94/41/16
f 89/42/17 13/43/17 87/39/17
f 88/44/18 15/45/18 92/7/18
f 93/46/19 2/47/19 58/48/19
f 91/49/6 5/50/6 90/51/6
f 95/52/20 5/50/20 72/53/20
f 57/54/21 38/26/21 64/55/21
f 50/56/22 39/25/22 49/57/22
f 51/58/23 64/55/23 70/59/23
f 53/60/24 35/61/24 52/62/24
f 54/63/25 80/18/25 84/64/25
f 52/62/26 66/2/26 69/65/26
f 49/57/27 82/12/27 83/66/27
f 56/67/6 32/68/6 54/63/6
f 51/69/9 28/70/9 55/71/9
f 100/72/9 28/70/9 25/73/9
f 76/74/13 20/10/13 77/75/13
f 68/76/28 23/77/28 62/78/28
f 42/79/29 22/80/29 21/28/29
f 43/45/30 76/81/30 78/82/30
f 48/43/12 61/83/12 67/84/12
f 48/30/31 19/85/31 18/30/31
f 46/86/32 23/87/32 47/88/32
f 15/45/33 78/82/33 74/8/33
f 6/89/34 42/79/34 5/50/34
f 72/53/35 42/79/35 75/27/35
f 15/11/36 41/10/36 43/11/36
f 2/90/37 46/86/37 47/88/37
f 16/85/38 48/30/38 13/30/38
f 13/43/22 67/84/22 60/40/22
f 58/48/39 47/91/39 68/76/39
f 26/21/9 55/71/9 27/92/9
f 30/93/6 54/63/6 31/94/6
f 40/95/27 83/66/27 81/96/27
f 36/97/40 69/65/40 65/98/40
f 31/94/41 84/64/41 79/99/41
f 33/100/42 52/62/42 36/97/42
f 25/101/23 70/59/23 63/102/23
f 37/103/22 49/57/22 40/95/22
f 63/102/43 50/56/43 37/103/43
f 28/104/26 69/65/26 55/105/26
f 16/106/44 68/76/44 45/106/44
f 60/40/45 46/107/45 1/108/45
f 67/84/46 24/109/46 46/107/46
f 45/106/47 62/78/47 19/106/47
f 69/65/26 27/110/26 55/105/26
f 70/59/43 38/26/43 50/56/43
f 3/111/23 64/55/23 26/112/23
f 88/44/48 58/48/48 16/106/48
f 94/41/23 1/108/23 85/113/23
f 18/30/13 62/114/13 61/36/13
f 3/23/14 59/31/14 57/33/14
f 59/3/49 35/61/49 11/19/49
f 33/100/50 84/64/50 53/60/50
f 30/93/51 83/66/51 56/67/51
f 14/115/22 75/27/22 41/115/22
f 74/8/52 44/116/52 6/89/52
f 78/82/53 22/80/53 44/116/53
f 22/80/13 77/75/13 21/28/13
f 83/66/51 29/15/51 56/67/51
f 84/64/25 34/17/25 53/60/25
f 89/42/54 72/53/54 14/115/54
f 41/115/12 77/29/12 20/115/12
f 8/14/55 80/18/55 32/68/55
f 73/13/56 39/25/56 9/117/56
f 96/9/57 6/89/57 91/49/57
f 9/35/2 71/4/2 73/6/2
f 103/118/58 96/9/58 91/49/58
f 99/119/27 95/52/27 89/42/27
f 106/120/23 85/113/23 100/121/23
f 98/122/59 93/46/59 88/44/59
f 2/90/9 85/123/9 1/86/9
f 107/124/51 90/51/51 95/52/51
f 102/125/6 91/49/6 90/51/6
f 97/126/60 93/46/60 105/127/60
f 98/122/18 92/7/18 104/128/18
f 99/119/22 87/39/22 101/129/22
f 101/129/43 94/41/43 106/120/43
f 104/128/61 96/9/62 108/130/61
f 79/99/61 104/128/61 108/130/61
f 37/103/43 106/120/43 63/102/43
f 40/95/22 101/129/22 37/103/22
f 36/97/18 104/128/18 33/100/18
f 65/98/60 97/126/60 105/127/60
f 31/94/6 102/125/6 30/93/6
f 81/96/51 102/125/51 107/124/51
f 65/98/63 98/122/63 36/97/63
f 63/102/23 100/121/23 25/101/23
f 40/95/27 107/124/27 99/119/27
f 79/99/64 103/118/64 31/94/64
f 86/131/9 100/72/9 85/123/9
f 111/132/65 109/35/65 110/32/65
f 114/20/66 111/19/66 115/19/66
f 116/32/67 111/132/67 110/32/67
f 116/24/68 109/117/68 113/117/68
f 10/24/10 113/117/69 9/117/10
f 11/132/70 116/32/70 10/32/70
f 12/20/71 115/19/71 11/19/71
f 9/35/72 114/34/72 12/34/72
f 4/1/73 27/110/73 66/2/73
f 71/4/2 8/14/2 7/5/2
f 92/7/74 15/45/74 74/8/74
f 41/10/4 20/10/4 17/11/4
f 7/5/51 29/15/51 82/12/51
f 8/14/6 32/68/6 29/15/6
f 71/16/75 12/20/75 34/17/75
f 11/19/8 35/61/8 34/17/8
f 26/21/9 27/92/9 4/22/9
f 10/24/10 9/117/10 39/25/11
f 75/27/76 42/79/76 21/28/76
f 15/11/13 16/85/13 13/30/13
f 59/31/14 11/132/14 10/32/14
f 114/34/15 113/35/15 109/35/15
f 61/36/13 62/114/13 23/37/13
f 87/39/77 13/43/77 60/40/77
f 89/42/17 14/115/17 13/43/17
f 88/44/18 16/106/18 15/45/18
f 93/46/78 86/133/78 2/47/78
f 91/49/6 6/89/6 5/50/6
f 95/52/51 90/51/51 5/50/51
f 57/54/79 10/24/79 38/26/79
f 50/56/22 38/26/22 39/25/22
f 51/58/23 26/112/23 64/55/23
f 53/60/24 34/17/24 35/61/24
f 54/63/25 32/68/25 80/18/25
f 52/62/26 35/61/26 66/2/26
f 49/57/27 39/25/27 82/12/27
f 56/67/6 29/15/6 32/68/6
f 51/69/9 25/73/9 28/70/9
f 100/72/80 97/134/80 28/70/80
f 76/74/13 17/11/13 20/10/13
f 68/76/81 47/91/81 23/77/81
f 42/79/29 44/116/29 22/80/29
f 43/45/82 17/45/82 76/81/82
f 48/43/12 18/43/12 61/83/12
f 48/30/31 45/85/31 19/85/31
f 46/86/32 24/86/32 23/87/32
f 15/45/83 43/45/83 78/82/83
f 6/89/34 44/116/34 42/79/34
f 72/53/84 5/50/84 42/79/84
f 15/11/36 14/10/36 41/10/36
f 2/90/37 1/86/37 46/86/37
f 16/85/38 45/85/38 48/30/38
f 13/43/22 48/43/22 67/84/22
f 58/48/85 2/47/85 47/91/85
f 26/21/9 51/69/9 55/71/9
f 30/93/6 56/67/6 54/63/6
f 40/95/27 49/57/27 83/66/27
f 36/97/86 52/62/86 69/65/86
f 31/94/25 54/63/25 84/64/25
f 33/100/42 53/60/42 52/62/42
f 25/101/23 51/58/23 70/59/23
f 37/103/22 50/56/22 49/57/22
f 63/102/43 70/59/43 50/56/43
f 28/104/87 65/98/87 69/65/87
f 16/106/88 58/48/88 68/76/88
f 60/40/89 67/84/89 46/107/89
f 67/84/12 61/83/12 24/109/12
f 45/106/90 68/76/90 62/78/90
f 69/65/26 66/2/26 27/110/26
f 70/59/43 64/55/43 38/26/43
f 3/111/91 57/54/91 64/55/91
f 88/44/92 93/46/92 58/48/92
f 94/41/93 60/40/93 1/108/93
f 18/30/13 19/85/13 62/114/13
f 3/23/14 4/22/14 59/31/14
f 59/3/94 66/2/94 35/61/94
f 33/100/95 79/99/95 84/64/95
f 30/93/51 81/96/51 83/66/51
f 14/115/22 72/53/22 75/27/22
f 74/8/96 78/82/96 44/116/96
f 78/82/97 76/81/97 22/80/97
f 22/80/13 76/74/13 77/75/13
f 83/66/51 82/12/51 29/15/51
f 84/64/25 80/18/25 34/17/25
f 89/42/98 95/52/98 72/53/98
f 41/115/12 75/27/12 77/29/12
f 8/14/99 71/16/99 80/18/99
f 73/13/100 82/12/100 39/25/100
f 96/9/101 74/8/101 6/89/101
f 9/35/2 12/34/2 71/4/2
f 103/118/102 108/130/102 96/9/102
f 99/119/27 107/124/27 95/52/27
f 106/120/23 94/41/23 85/113/23
f 98/122/103 105/127/103 93/46/104
f 2/90/9 86/131/9 85/123/9
f 107/124/51 102/125/51 90/51/51
f 102/125/105 103/118/105 91/49/105
f 97/126/106 86/133/106 93/46/106
f 98/122/18 88/44/18 92/7/18
f 99/119/22 89/42/22 87/39/22
f 101/129/43 87/39/43 94/41/43
f 104/128/107 92/7/107 96/9/107
f 79/99/108 33/100/108 104/128/108
f 37/103/43 101/129/43 106/120/43
f 40/95/22 99/119/22 101/129/22
f 36/97/18 98/122/18 104/128/18
f 65/98/109 28/104/109 97/126/109
f 31/94/110 103/118/110 102/125/110
f 81/96/51 30/93/51 102/125/51
f 65/98/103 105/127/103 98/122/103
f 63/102/23 106/120/23 100/121/23
f 40/95/27 81/96/27 107/124/27
f 79/99/102 108/130/102 103/118/102
f 86/131/111 97/134/111 100/72/111
f 111/132/65 112/34/65 109/35/65
f 114/20/66 112/20/66 111/19/66
f 116/32/67 115/132/67 111/132/67
f 116/24/68 110/24/68 109/117/68
f 10/24/10 116/24/69 113/117/69
f 11/132/70 115/132/70 116/32/70
f 12/20/71 114/20/71 115/19/71
f 9/35/72 113/35/72 114/34/72
