# Blender 4.4.0
# www.blender.org
mtllib body.mtl
o 立方体
v -2.733097 0.380998 1.613222
v -2.929222 2.813336 1.473619
v -2.733097 0.380998 0.201312
v -2.929222 2.813336 0.201312
v 2.733097 0.380998 1.613222
v 2.929222 2.813336 1.473619
v 2.733097 0.380998 0.201312
v 2.929222 2.813336 0.201312
v 0.911032 0.380998 0.201312
v -0.911032 0.380998 0.201312
v -0.748435 3.864485 0.264584
v 0.748435 3.864485 0.264584
v -0.911032 0.380998 1.613222
v 0.911032 0.380998 1.613222
v 0.748435 3.864485 1.263956
v -0.748435 3.864485 1.263956
v -2.733097 2.199728 1.613222
v -2.733097 2.199728 0.201312
v 2.733097 2.199728 0.201312
v 2.733097 2.199728 1.613222
v 0.789454 2.985703 1.418691
v -0.789454 2.985703 1.418691
v -0.789454 2.985703 0.248622
v 0.789454 2.985703 0.248622
vn -0.9525 -0.3045 -0.0000
vn -0.0202 0.0105 -0.9997
vn -0.0208 0.0150 -0.9997
vn -0.0173 0.0166 -0.9997
vn 0.9525 -0.3045 -0.0000
vn 0.0070 0.2240 0.9746
vn -0.0000 -1.0000 -0.0000
vn -0.4342 0.9008 -0.0000
vn 0.4342 0.9008 -0.0000
vn -0.0000 1.0000 -0.0000
vn -0.0070 0.2240 0.9746
vn -0.0002 0.1734 0.9849
vn -0.0009 0.1735 0.9848
vn 0.0003 0.1735 0.9848
vn 0.0208 0.0150 -0.9997
vn 0.0202 0.0105 -0.9997
vn 0.0173 0.0166 -0.9997
vn -0.0000 0.0182 -0.9998
vn -0.0000 -0.0000 -1.0000
vn -0.0000 0.0745 0.9972
vn -0.0000 -0.0000 1.0000
vn 1.0000 -0.0000 -0.0000
vn -1.0000 -0.0000 -0.0000
vn -0.0207 0.0172 -0.9996
vn 0.0114 0.1729 0.9849
vn -0.0114 0.1729 0.9849
vn -0.0103 0.1730 0.9849
vn 0.0207 0.0172 -0.9996
vn 0.0173 0.0173 -0.9997
vn -0.0709 0.0710 0.9950
vn 0.0709 0.0710 0.9950
vn -0.0173 0.0173 -0.9997
vt 0.625000 0.000000
vt 0.561932 0.250000
vt 0.561932 0.000000
vt 0.561932 0.416667
vt 0.625000 0.500000
vt 0.561932 0.500000
vt 0.625000 0.750000
vt 0.561932 0.750000
vt 0.561932 0.916667
vt 0.625000 1.000000
vt 0.561932 1.000000
vt 0.375000 0.500000
vt 0.291667 0.750000
vt 0.291667 0.500000
vt 0.875000 0.500000
vt 0.791667 0.750000
vt 0.791667 0.500000
vt 0.708333 0.750000
vt 0.708333 0.500000
vt 0.208333 0.500000
vt 0.125000 0.750000
vt 0.125000 0.500000
vt 0.208333 0.750000
vt 0.561932 0.833333
vt 0.625000 0.916667
vt 0.625000 0.250000
vt 0.561932 0.333333
vt 0.625000 0.333333
vt 0.375000 0.416667
vt 0.375000 0.333333
vt 0.375000 0.250000
vt 0.375000 0.916667
vt 0.375000 0.833333
vt 0.375000 0.750000
vt 0.375000 1.000000
vt 0.375000 0.000000
vt 0.625000 0.416667
vt 0.875000 0.750000
vt 0.625000 0.833333
s 1
f 2/1/1 18/2/1 17/3/1
f 24/4/2 8/5/3 19/6/4
f 19/6/5 6/7/5 20/8/5
f 22/9/6 2/10/6 17/11/6
f 7/12/7 14/13/7 9/14/7
f 4/15/8 16/16/8 11/17/8
f 8/5/9 15/18/9 6/7/9
f 11/17/10 15/18/10 12/19/10
f 10/20/7 1/21/7 3/22/7
f 9/14/7 13/23/7 10/20/7
f 6/7/11 21/24/11 20/8/11
f 21/24/12 16/25/13 22/9/14
f 4/26/15 23/27/16 18/2/17
f 11/28/18 24/4/18 23/27/18
f 23/27/18 9/29/18 10/30/18
f 18/2/19 10/30/19 3/31/19
f 21/24/20 13/32/20 14/33/20
f 20/8/21 14/33/21 5/34/21
f 13/32/21 17/11/21 1/35/21
f 19/6/22 5/34/22 7/12/22
f 9/29/19 19/6/19 7/12/19
f 17/3/23 3/31/23 1/36/23
f 2/1/1 4/26/1 18/2/1
f 24/4/2 12/37/24 8/5/3
f 19/6/5 8/5/5 6/7/5
f 22/9/14 16/25/13 2/10/25
f 7/12/7 5/34/7 14/13/7
f 4/15/8 2/38/8 16/16/8
f 8/5/9 12/19/9 15/18/9
f 11/17/10 16/16/10 15/18/10
f 10/20/7 13/23/7 1/21/7
f 9/14/7 14/13/7 13/23/7
f 6/7/26 15/39/27 21/24/12
f 21/24/12 15/39/27 16/25/13
f 4/26/15 11/28/28 23/27/16
f 11/28/18 12/37/18 24/4/18
f 23/27/18 24/4/18 9/29/18
f 18/2/17 23/27/16 10/30/29
f 21/24/20 22/9/20 13/32/20
f 20/8/30 21/24/30 14/33/30
f 13/32/31 22/9/31 17/11/31
f 19/6/22 20/8/22 5/34/22
f 9/29/32 24/4/2 19/6/4
f 17/3/23 18/2/23 3/31/23
