# Blender 4.4.0
# www.blender.org
mtllib bottomWingR.mtl
o 立方体.001
v -0.005153 -0.057422 0.353644
v -0.005153 -0.025002 0.357377
v -0.005153 0.005747 -0.330075
v -0.005153 0.038168 -0.326343
v -0.854805 -0.057204 0.406419
v -0.854805 -0.024784 0.410151
v -0.854805 -0.031343 0.193206
v -0.854805 0.001077 0.196938
v -0.005153 0.021515 -0.051441
v -0.005153 0.053935 -0.047709
v -0.854805 -0.044561 0.308023
v -0.854805 -0.012141 0.311755
v -0.578366 -0.007208 -0.147299
v -0.578366 0.025212 -0.143567
v -0.429979 -0.057422 0.353644
v -0.429979 -0.025002 0.357377
v -0.429979 0.053935 -0.047709
v -0.429979 0.021515 -0.051441
vn -1.0000 -0.0000 -0.0000
vn 0.7768 -0.0720 0.6256
vn 1.0000 -0.0000 -0.0000
vn -0.0000 0.1144 -0.9934
vn 0.0092 0.9815 0.1913
vn -0.0001 0.9817 0.1903
vn 0.0075 0.9817 0.1903
vn -0.0000 -0.9815 -0.1913
vn -0.0089 -0.9815 -0.1911
vn 0.0015 -0.9816 -0.1911
vn 0.0777 -0.9817 0.1739
vn -0.1549 0.9864 -0.0558
vn -0.0000 0.9984 -0.0565
vn 0.0576 -0.9918 -0.1142
vn -0.0163 -0.9917 -0.1274
vn -0.0000 0.9815 0.1913
vn -0.1224 0.1135 -0.9860
vn 0.3042 -0.1089 0.9464
vn 0.0163 0.9917 0.1274
vn -0.0000 -0.9984 0.0565
vn -0.0576 0.9918 0.1142
vn -0.0777 0.9817 -0.1739
vn 0.1549 -0.9864 0.0558
vn -0.0092 -0.9815 -0.1913
vt 0.375000 0.159722
vt 0.625000 0.250000
vt 0.375000 0.250000
vt 0.625000 0.480334
vt 0.375000 0.676567
vt 0.375000 0.480334
vt 0.375000 0.715843
vt 0.625000 0.750000
vt 0.375000 0.750000
vt 0.625000 0.875000
vt 0.375000 1.000000
vt 0.375000 0.875000
vt 0.250000 0.750000
vt 0.250000 0.590278
vt 0.875000 0.590278
vt 0.750000 0.750000
vt 0.750000 0.590278
vt 0.875000 0.500000
vt 0.706339 0.561673
vt 0.293661 0.561673
vt 0.625000 0.715843
vt 0.625000 0.000000
vt 0.375000 0.000000
vt 0.125000 0.500000
vt 0.125000 0.590278
vt 0.625000 0.676567
vt 0.125000 0.750000
vt 0.625000 0.159722
vt 0.625000 1.000000
vt 0.875000 0.750000
s 1
usemtl マテリアル
f 9/1/1 4/2/1 3/3/1
f 14/4/2 7/5/2 13/6/2
f 11/7/3 6/8/3 5/9/3
f 16/10/4 1/11/4 15/12/4
f 11/7/5 15/13/6 18/14/7
f 10/15/8 16/16/9 17/17/10
f 4/18/11 17/17/11 14/19/11
f 7/5/12 18/14/12 13/20/12
f 7/5/3 12/21/3 11/7/3
f 2/22/1 9/1/1 1/23/1
f 3/24/13 18/14/13 9/25/13
f 8/26/14 17/17/14 12/21/14
f 12/21/15 16/16/15 6/8/15
f 18/14/7 1/27/16 9/25/16
f 5/9/17 16/10/17 15/12/17
f 4/2/18 13/6/18 3/3/18
f 9/1/1 10/28/1 4/2/1
f 14/4/2 8/26/2 7/5/2
f 11/7/3 12/21/3 6/8/3
f 16/10/4 2/29/4 1/11/4
f 11/7/19 5/9/19 15/13/19
f 10/15/8 2/30/8 16/16/9
f 4/18/20 10/15/20 17/17/20
f 7/5/21 11/7/21 18/14/21
f 7/5/3 8/26/3 12/21/3
f 2/22/1 10/28/1 9/1/1
f 3/24/22 13/20/22 18/14/22
f 8/26/23 14/19/23 17/17/23
f 12/21/24 17/17/10 16/16/9
f 18/14/7 15/13/6 1/27/16
f 5/9/17 6/8/17 16/10/17
f 4/2/18 14/4/18 13/6/18
