# Blender 4.4.0
# www.blender.org
mtllib weapon.mtl
o 円柱
v 0.018943 0.030570 0.949611
v 0.018943 11.241602 0.949612
v 0.399534 0.030570 1.330202
v 0.399534 11.241602 1.330203
v 0.018943 0.030570 1.710794
v 0.018943 11.241602 1.710795
v -0.361648 0.030570 1.330202
v -0.361648 11.241602 1.330203
vn 0.7071 -0.0000 -0.7071
vn 0.7071 -0.0000 0.7071
vn -0.0000 1.0000 -0.0000
vn -0.7071 -0.0000 0.7071
vn -0.7071 -0.0000 -0.7071
vn -0.0000 -1.0000 -0.0000
vt 1.000000 1.000000
vt 0.750000 0.500000
vt 1.000000 0.500000
vt 0.750000 1.000000
vt 0.500000 0.500000
vt 0.250000 0.490000
vt 0.250000 0.010000
vt 0.490000 0.250000
vt 0.500000 1.000000
vt 0.250000 0.500000
vt 0.250000 1.000000
vt 0.000000 0.500000
vt 0.990000 0.250000
vt 0.510000 0.250000
vt 0.750000 0.490000
vt 0.010000 0.250000
vt 0.000000 1.000000
vt 0.750000 0.010000
s 1
f 2/1/1 3/2/1 1/3/1
f 4/4/2 5/5/2 3/2/2
f 2/6/3 6/7/3 4/8/3
f 6/9/4 7/10/4 5/5/4
f 8/11/5 1/12/5 7/10/5
f 3/13/6 7/14/6 1/15/6
f 2/1/1 4/4/1 3/2/1
f 4/4/2 6/9/2 5/5/2
f 2/6/3 8/16/3 6/7/3
f 6/9/4 8/11/4 7/10/4
f 8/11/5 2/17/5 1/12/5
f 3/13/6 5/18/6 7/14/6
o 立方体.004
v -0.131999 11.013319 1.606456
v -0.131999 15.026419 0.875654
v -0.131999 10.930190 1.158443
v -0.131999 15.286963 0.081654
v 0.177544 11.013319 1.606456
v 0.177544 15.026419 0.875654
v 0.177544 10.930190 1.158443
v 0.177544 15.286963 0.081654
v -0.131999 11.882085 1.816781
v -0.131999 12.706916 1.790324
v -0.131999 13.512392 1.659556
v -0.131999 14.291648 1.387483
v -0.131999 14.145650 0.600644
v -0.131999 13.361940 0.848719
v -0.131999 12.554935 0.971247
v -0.131999 11.728366 0.988339
v 0.177544 14.145650 0.600644
v 0.177544 13.361940 0.848719
v 0.177544 12.554935 0.971247
v 0.177544 11.728366 0.988339
v 0.177544 14.291648 1.387483
v 0.177544 13.512392 1.659556
v 0.177544 12.706916 1.790324
v 0.177544 11.882085 1.816781
vn -1.0000 -0.0000 -0.0000
vn -0.0000 -0.4139 -0.9103
vn 1.0000 -0.0000 -0.0000
vn -0.0000 0.5716 0.8205
vn -0.0000 -0.9832 0.1824
vn -0.0000 0.9502 0.3118
vn -0.0000 -0.2353 0.9719
vn -0.0000 0.0321 0.9995
vn -0.0000 0.1603 0.9871
vn -0.0000 0.3296 0.9441
vn -0.0000 -0.2084 -0.9780
vn -0.0000 -0.0207 -0.9998
vn -0.0000 -0.1501 -0.9887
vn -0.0000 -0.3018 -0.9534
vt 0.625000 0.000000
vt 0.575000 0.250000
vt 0.575000 0.000000
vt 0.625000 0.250000
vt 0.575000 0.500000
vt 0.625000 0.750000
vt 0.575000 0.750000
vt 0.575000 1.000000
vt 0.375000 0.500000
vt 0.125000 0.750000
vt 0.125000 0.500000
vt 0.875000 0.500000
vt 0.625000 0.500000
vt 0.425000 0.750000
vt 0.375000 1.000000
vt 0.375000 0.750000
vt 0.475000 0.750000
vt 0.425000 1.000000
vt 0.525000 0.750000
vt 0.475000 1.000000
vt 0.525000 1.000000
vt 0.425000 0.500000
vt 0.475000 0.500000
vt 0.525000 0.500000
vt 0.425000 0.250000
vt 0.375000 0.250000
vt 0.475000 0.250000
vt 0.525000 0.250000
vt 0.375000 0.000000
vt 0.425000 0.000000
vt 0.475000 0.000000
vt 0.525000 0.000000
vt 0.625000 1.000000
vt 0.875000 0.750000
s 1
f 10/19/7 21/20/7 20/21/7
f 12/22/8 25/23/8 21/20/8
f 25/23/9 14/24/9 29/25/9
f 14/24/10 20/26/10 29/25/10
f 15/27/11 9/28/11 11/29/11
f 12/30/12 14/24/12 16/31/12
f 32/32/13 9/33/13 13/34/13
f 31/35/14 17/36/14 32/32/14
f 30/37/15 18/38/15 31/35/15
f 29/25/16 19/39/16 30/37/16
f 28/40/9 13/34/9 15/27/9
f 27/41/9 32/32/9 28/40/9
f 26/42/9 31/35/9 27/41/9
f 26/42/9 29/25/9 30/37/9
f 24/43/17 15/27/17 11/44/17
f 23/45/18 28/40/18 24/43/18
f 22/46/19 27/41/19 23/45/19
f 21/20/20 26/42/20 22/46/20
f 9/47/7 24/43/7 11/44/7
f 17/48/7 23/45/7 24/43/7
f 18/49/7 22/46/7 23/45/7
f 20/21/7 22/46/7 19/50/7
f 10/19/7 12/22/7 21/20/7
f 12/22/8 16/31/8 25/23/8
f 25/23/9 16/31/9 14/24/9
f 14/24/10 10/51/10 20/26/10
f 15/27/11 13/34/11 9/28/11
f 12/30/12 10/52/12 14/24/12
f 32/32/13 17/36/13 9/33/13
f 31/35/14 18/38/14 17/36/14
f 30/37/15 19/39/15 18/38/15
f 29/25/16 20/26/16 19/39/16
f 28/40/9 32/32/9 13/34/9
f 27/41/9 31/35/9 32/32/9
f 26/42/9 30/37/9 31/35/9
f 26/42/9 25/23/9 29/25/9
f 24/43/17 28/40/17 15/27/17
f 23/45/18 27/41/18 28/40/18
f 22/46/19 26/42/19 27/41/19
f 21/20/20 25/23/20 26/42/20
f 9/47/7 17/48/7 24/43/7
f 17/48/7 18/49/7 23/45/7
f 18/49/7 19/50/7 22/46/7
f 20/21/7 21/20/7 22/46/7
