# Blender 4.4.0
# www.blender.org
mtllib enemyJet.mtl
o 立方体
v -2.862814 0.063258 -0.082175
v -2.862814 0.091115 -0.082175
v -2.862814 0.063257 -0.829226
v -2.862814 0.091115 -0.829226
v 2.862303 0.075446 -0.082177
v 2.862303 0.091115 -0.082177
v 2.862303 0.075445 -0.829229
v 2.862303 0.091115 -0.829229
v -0.233575 -0.076027 2.702017
v 0.235078 -0.076027 2.702017
v 0.235078 0.076027 2.702017
v -0.233575 0.076027 2.702017
v -0.771388 -0.090570 -1.346941
v 0.772887 -0.090570 -1.346941
v 0.772887 0.090570 -1.346941
v -0.694881 0.090570 -1.346941
v 0.938697 -0.090570 1.367260
v -0.937197 -0.090570 1.367260
v -0.846091 0.090570 1.367260
v 0.938697 0.090570 1.367260
v -2.629329 0.015141 -0.829226
v -2.755994 0.091115 -0.829226
v -2.629329 0.015141 -0.082175
v -2.755994 0.091115 -0.082175
v 2.649148 0.015141 -0.829229
v 2.649148 0.015141 -0.082177
v 2.760919 0.091115 -0.829229
v 2.760919 0.091115 -0.082177
v 0.504378 0.551583 -1.219615
v -0.502878 0.551583 -1.219615
v -0.502877 0.551583 1.219615
v 0.504378 0.551583 1.219615
v -2.686462 0.168271 -0.082175
v -2.686462 0.168271 -0.829226
v -2.629329 0.168271 -0.082175
v 2.699542 0.168271 -0.829229
v 2.699542 0.168271 -0.082177
v -2.629329 0.168271 -0.829226
v 2.649148 0.168271 -0.829229
v 2.649148 0.168271 -0.082177
v 1.049421 -0.090570 1.019033
v 1.049420 -0.090570 -1.184370
v 1.053820 0.090570 -1.184370
v 1.053820 0.090570 1.019033
v -0.947919 -0.090570 0.987266
v -0.947919 -0.090570 -1.178787
v -1.035090 0.090570 -1.178787
v -1.035090 0.090570 0.987266
v 0.696933 0.090570 1.548526
v -0.695433 -0.090570 1.548526
v 0.696933 -0.090570 1.548526
v -0.695433 0.090570 1.548526
v 0.052045 -0.090570 1.883657
v -0.050542 -0.090570 1.883657
v -0.050542 0.090570 1.883657
v 0.052045 0.090570 1.883657
v 0.258129 0.090570 -1.225639
v -0.256629 0.090570 -1.225639
v -0.311899 0.221423 1.440020
v 0.313399 0.221423 1.440020
v -0.256629 -0.090570 -1.225639
v 0.258129 -0.090570 -1.225639
v 0.313399 -0.090570 1.367260
v -0.311899 -0.090570 1.367260
v 0.197544 0.250930 -1.225639
v -0.196044 0.250930 -1.225639
v -0.196044 0.289136 1.219615
v 0.197544 0.289136 1.219615
v -0.231310 0.188780 1.548526
v 0.232812 0.188780 1.548526
v 0.232812 -0.090570 1.548526
v -0.231310 -0.090570 1.548526
v 0.029328 -0.050458 1.890755
v -0.027825 -0.050458 1.890755
v -0.027825 0.050458 1.890755
v 0.029328 0.050458 1.890755
v 0.247511 -0.116571 -1.225639
v 0.741032 -0.157704 -1.290953
v 0.900002 -0.157704 1.311272
v -0.299000 -0.116570 1.311272
v -0.898501 -0.157704 1.311272
v -0.739533 -0.157704 -1.290953
v -0.246011 -0.116571 -1.225639
v 0.300501 -0.116570 1.311272
v 2.395145 -0.001644 -0.975717
v 2.381838 0.091029 -0.975717
v 2.381838 0.091029 0.092672
v 2.395145 -0.001644 0.092672
v -2.370371 -0.002621 0.097520
v -2.370371 -0.002621 -0.978061
v -2.370371 0.091024 -0.978061
v -2.370371 0.091024 0.097520
v 1.203562 -0.080384 0.912927
v 1.203562 -0.080384 -1.160470
v 1.127830 0.090623 -1.160470
v 1.127831 0.090623 0.912927
v -1.122920 0.090626 -1.154093
v -1.122919 0.090626 0.877803
v -1.122919 -0.079750 0.877803
v -1.122920 -0.079750 -1.154093
v 0.988582 0.480828 -0.706685
v 0.988582 0.480828 0.520063
v -0.999959 0.480869 -0.713905
v -0.970412 0.480827 -0.728155
v -0.999958 0.480869 0.458608
v -0.970412 0.480827 0.521775
v 1.014735 0.480865 -0.693379
v 1.014735 0.480865 0.460988
v -0.234033 0.057445 -1.307165
v -0.636055 0.057445 -1.386271
v 0.238172 -0.060684 -1.307165
v 0.710377 -0.060684 -1.386271
v 0.710377 0.057445 -1.386271
v -0.706237 -0.060684 -1.386271
v 0.238172 0.057445 -1.307165
v -0.234033 -0.060684 -1.307165
vn -0.8369 0.5473 -0.0000
vn -1.0000 -0.0000 -0.0000
vn -0.0000 1.0000 -0.0000
vn 0.8451 0.5346 -0.0000
vn 1.0000 -0.0000 -0.0000
vn -0.9759 -0.0000 0.2183
vn -0.0000 -1.0000 -0.0000
vn 0.9527 -0.0231 0.3029
vn -0.0000 -0.0000 -1.0000
vn -0.0000 -0.0000 1.0000
vn 0.2722 -0.9622 -0.0000
vn -0.9231 0.3845 -0.0000
vn -0.9283 -0.0000 0.3717
vn -0.1133 -0.8695 -0.4807
vn -0.6546 -0.3150 -0.6872
vn 0.0233 -0.9997 0.0126
vn 0.3379 0.9367 0.0922
vn 0.9283 -0.0000 0.3717
vn -0.5457 -0.1060 0.8312
vn -0.3799 -0.5181 0.7663
vn -0.5701 -0.0000 0.8216
vn 0.0003 1.0000 -0.0000
vn 0.0002 1.0000 -0.0000
vn -0.2018 -0.9794 -0.0000
vn 0.0659 -0.9978 -0.0000
vn 0.4220 -0.6209 -0.6606
vn 0.4284 0.9036 -0.0000
vn -0.6556 0.7551 -0.0012
vn -0.6947 0.7192 -0.0100
vn -0.6997 0.7143 -0.0112
vn -0.5635 0.6588 0.4986
vn -0.0143 0.0054 -0.9999
vn 0.7343 0.6774 -0.0449
vn -0.4008 0.9162 -0.0000
vn 0.5202 -0.8540 -0.0000
vn -0.5681 -0.8230 -0.0000
vn 0.5068 -0.0123 -0.8620
vn 0.6385 0.1666 0.7514
vn 0.6678 0.1392 0.7312
vn 0.5391 0.2390 0.8076
vn 0.6190 0.6559 0.4321
vn -0.9008 -0.4335 0.0254
vn -0.1619 -0.0252 -0.9865
vn -0.2124 -0.0321 -0.9767
vn -0.1436 -0.0691 -0.9872
vn -0.0617 -0.9981 -0.0000
vn 0.5999 -0.0000 0.8001
vn -0.1889 0.8928 0.4089
vn -0.0000 -1.0000 0.0100
vn 0.0010 -1.0000 -0.0016
vn -0.7690 -0.0000 0.6392
vn -0.0010 -1.0000 -0.0016
vn 0.2290 0.9243 0.3054
vn -0.0000 0.9576 0.2881
vn -0.2273 0.1340 -0.9646
vn -0.2272 0.4464 0.8655
vn -0.0000 0.9559 0.2937
vn 0.6947 0.7192 -0.0100
vn 0.6556 0.7551 -0.0012
vn 0.6997 0.7143 -0.0112
vn -0.0000 0.9999 -0.0156
vn 0.2061 0.9739 0.0948
vn -0.0000 0.9596 0.2812
vn -0.0000 -0.9999 0.0126
vn -0.9713 -0.0000 0.2378
vn 0.0323 -0.8949 0.4452
vn -0.0272 -0.9042 0.4262
vn -0.0323 -0.8949 0.4452
vn 0.8839 -0.4645 -0.0540
vn 0.9759 -0.0000 0.2183
vn -0.0000 -0.1742 0.9847
vn 0.2982 -0.0000 0.9545
vn -0.2982 -0.0000 0.9545
vn -0.0000 0.1742 0.9847
vn 0.0414 -0.9991 0.0023
vn 0.0702 -0.9975 0.0019
vn 0.0824 -0.9966 0.0050
vn -0.0702 -0.9975 0.0019
vn -0.0414 -0.9991 0.0023
vn -0.0824 -0.9966 0.0050
vn 0.0347 -0.9994 0.0007
vn 0.0033 -0.6575 0.7534
vn 0.0272 -0.9042 0.4262
vn -0.1268 0.0518 -0.9906
vn -0.0033 -0.6575 0.7534
vn -0.0000 -0.6405 0.7680
vn 0.1876 -0.5751 -0.7963
vn -0.8839 -0.4645 -0.0540
vn -0.0003 1.0000 -0.0000
vn -0.0002 1.0000 -0.0000
vn 0.4525 -0.6657 0.5934
vn 0.1518 0.0218 -0.9882
vn -0.0679 -0.9977 -0.0000
vn -0.0684 -0.9977 -0.0000
vn -0.3376 -0.4593 -0.8216
vn -0.4749 -0.0952 -0.8749
vn -0.4983 -0.0000 -0.8670
vn -0.6644 -0.0000 0.7473
vn -0.5303 -0.0000 0.8478
vn -0.5920 -0.0787 0.8021
vn 0.1909 0.0473 -0.9805
vn 0.2079 0.0386 -0.9774
vn 0.1484 0.0657 -0.9867
vn 0.5616 0.0806 0.8235
vn -0.6564 -0.1382 0.7417
vn -0.5243 -0.2523 0.8133
vn -0.1766 0.7565 -0.6298
vn -0.0670 -0.9978 -0.0000
vn -0.1397 -0.0000 -0.9902
vn -0.2056 -0.0000 -0.9786
vn -0.0014 1.0000 -0.0000
vn 0.0014 1.0000 -0.0000
vn 0.9605 0.2784 -0.0000
vn -0.7277 0.5953 0.3408
vn -0.9538 0.3005 -0.0000
vn 0.2896 0.7679 -0.5714
vn -0.9863 -0.1649 -0.0000
vn 0.9865 -0.1635 -0.0000
vn 0.1931 -0.0000 -0.9812
vn -0.1652 -0.0000 -0.9863
vn 0.0553 -0.9423 -0.3301
vn 0.1402 0.8506 -0.5067
vn -0.5810 0.2454 -0.7760
vn -0.0608 0.9298 -0.3629
vn 0.9637 -0.0000 0.2671
vn 0.5325 -0.0000 -0.8464
vn 0.9495 -0.0000 0.3139
vn -0.8082 0.5872 -0.0450
vn -0.0556 -0.9418 -0.3316
vn -0.4355 0.1840 -0.8812
vn -0.2061 0.9739 0.0948
vn -0.3454 -0.5759 0.7410
vn 0.3600 0.0517 -0.9315
vn -0.6500 0.7599 -0.0000
vn 0.1974 0.4628 0.8642
vn 0.2636 0.1532 -0.9524
vn 0.8641 0.5033 -0.0000
vn 0.5009 -0.0000 -0.8655
vn 0.8200 -0.0199 0.5720
vn 0.7369 0.5918 0.3266
vn -0.8164 0.4106 0.4061
vn -0.2600 0.9411 0.2161
vn -0.5743 0.2889 0.7660
vn 0.1889 0.8928 0.4089
vn 0.0143 0.0054 -0.9999
vn 0.5635 0.6588 0.4986
vn 0.6500 0.7599 -0.0000
vn -0.3379 0.9367 0.0922
vn -0.0233 -0.9997 0.0126
vn -0.0347 -0.9994 0.0007
vn -0.1876 -0.5751 -0.7963
vn 0.1268 0.0518 -0.9906
vn 0.4181 0.0600 0.9064
vn 0.1454 0.0644 -0.9873
vn -0.3088 -0.5148 -0.7998
vn 0.3073 -0.0075 -0.9516
vn 0.5319 0.2356 0.8134
vn -0.2837 0.7555 -0.5905
vn -0.5865 0.6589 0.4709
vn 0.1947 0.7725 -0.6045
vn 0.1644 -0.0977 -0.9815
vn 0.1123 -0.8719 -0.4765
vn 0.0706 0.9308 -0.3586
vn -0.4329 0.2572 -0.8640
vn -0.1222 0.8463 -0.5185
vt 0.625000 0.000000
vt 0.375000 0.250000
vt 0.375000 0.000000
vt 0.707961 0.500000
vt 0.694600 0.750000
vt 0.694600 0.500000
vt 0.625000 0.500000
vt 0.375000 0.750000
vt 0.375000 0.500000
vt 0.375000 0.860987
vt 0.625000 0.832961
vt 0.625000 0.860987
vt 0.207961 0.500000
vt 0.192670 0.750000
vt 0.192670 0.500000
vt 0.625000 0.819600
vt 0.375000 0.832961
vt 0.375000 0.819600
vt 0.625000 0.250000
vt 0.625000 0.260196
vt 0.625000 0.490692
vt 0.375000 0.490692
vt 0.625000 0.989804
vt 0.375000 1.000000
vt 0.375000 0.989804
vt 0.365692 0.750000
vt 0.365692 0.500000
vt 0.792039 0.500000
vt 0.792039 0.750000
vt 0.375000 0.389013
vt 0.375000 0.360987
vt 0.375000 0.917039
vt 0.625000 0.917039
vt 0.375000 0.417039
vt 0.625000 0.317670
vt 0.375000 0.332961
vt 0.375000 0.317670
vt 0.264013 0.750000
vt 0.292039 0.750000
vt 0.764013 0.750000
vt 0.375000 0.260196
vt 0.625000 0.980147
vt 0.375000 0.980147
vt 0.855147 0.500000
vt 0.864804 0.750000
vt 0.855147 0.750000
vt 0.135196 0.500000
vt 0.125000 0.750000
vt 0.125000 0.500000
vt 0.356119 0.500000
vt 0.356119 0.750000
vt 0.375000 0.481119
vt 0.625000 0.750000
vt 0.375000 0.759308
vt 0.735987 0.750000
vt 0.735987 0.500000
vt 0.707961 0.750000
vt 0.625000 0.360987
vt 0.625000 0.332961
vt 0.875000 0.500000
vt 0.864804 0.500000
vt 0.634308 0.500000
vt 0.625000 1.000000
vt 0.634308 0.750000
vt 0.625000 0.759308
vt 0.625000 0.430400
vt 0.375000 0.430400
vt 0.292039 0.500000
vt 0.305400 0.750000
vt 0.625000 0.813790
vt 0.375000 0.813791
vt 0.807330 0.750000
vt 0.625000 0.932330
vt 0.375000 0.932330
vt 0.375000 0.311788
vt 0.186788 0.750000
vt 0.186788 0.500000
vt 0.235987 0.750000
vt 0.207961 0.750000
vt 0.625000 0.389013
vt 0.625000 0.417039
vt 0.764013 0.500000
vt 0.625000 0.889013
vt 0.375000 0.889013
vt 0.235987 0.500000
vt 0.264013 0.500000
vt 0.643881 0.500000
vt 0.375000 0.768881
vt 0.375000 0.436209
vt 0.625000 0.481119
vt 0.311209 0.500000
vt 0.311209 0.750000
vt 0.144853 0.500000
vt 0.135196 0.750000
vt 0.625000 0.269853
vt 0.375000 0.269853
vt 0.813213 0.500000
vt 0.813213 0.750000
vt 0.625000 0.938213
vt 0.375000 0.938212
vt 0.305400 0.500000
vt 0.625000 0.436209
vt 0.688791 0.500000
vt 0.643881 0.750000
vt 0.625000 0.768881
vt 0.625000 0.311788
vt 0.144853 0.750000
vt 0.688791 0.750000
vt 0.807330 0.500000
vt 0.875000 0.750000
s 1
usemtl マテリアル
f 2/1/1 3/2/2 1/3/2
f 15/4/3 44/5/3 43/6/3
f 8/7/4 5/8/5 7/9/5
f 53/10/6 11/11/6 56/12/6
f 13/13/7 45/14/7 46/15/7
f 44/16/8 17/17/8 41/18/8
f 4/19/9 38/20/9 22/20/9
f 27/21/9 7/9/9 25/22/9
f 24/23/10 1/24/10 23/25/10
f 7/9/11 26/26/11 25/27/11
f 16/28/12 31/29/12 30/28/12
f 62/30/9 83/31/9 61/31/9
f 50/32/13 12/33/13 52/33/13
f 62/30/14 112/34/14 14/34/14
f 47/35/15 13/36/15 46/37/15
f 71/38/16 10/39/16 53/38/16
f 69/40/17 12/29/17 55/40/17
f 49/11/18 10/17/18 51/17/18
f 4/19/9 21/41/9 3/2/9
f 92/42/19 23/25/20 89/43/21
f 91/44/22 24/45/23 92/46/22
f 21/47/24 1/48/24 3/49/24
f 85/50/25 26/26/25 88/51/25
f 85/52/26 27/21/26 25/22/26
f 6/53/10 26/54/10 5/8/10
f 8/7/4 37/53/27 6/53/4
f 68/55/28 29/4/29 65/56/30
f 60/55/31 32/57/31 68/55/31
f 58/58/32 30/59/32 66/58/32
f 15/4/33 32/57/33 20/57/33
f 34/60/3 35/45/3 38/61/3
f 39/62/3 37/53/3 36/7/3
f 27/21/9 36/7/9 8/7/9
f 24/23/10 33/63/10 2/63/10
f 2/1/1 34/19/34 4/19/1
f 22/61/35 35/45/35 24/45/35
f 28/64/36 39/62/36 27/62/36
f 6/53/10 40/65/10 28/65/10
f 14/34/37 43/66/37 42/67/37
f 14/68/7 41/69/7 17/39/7
f 96/70/38 41/18/39 93/71/40
f 96/70/41 102/16/41 44/16/41
f 16/28/3 48/72/3 19/29/3
f 18/32/42 48/73/42 45/74/42
f 100/75/43 47/35/44 46/37/45
f 46/15/46 99/76/46 100/77/46
f 20/11/47 51/17/47 17/17/47
f 59/40/48 52/29/48 69/40/48
f 63/38/7 51/39/49 71/38/50
f 19/33/51 50/32/51 52/33/51
f 64/78/7 50/79/49 18/79/7
f 64/78/7 71/38/50 72/78/52
f 60/55/53 49/57/53 20/57/53
f 59/40/54 70/55/54 60/55/54
f 57/80/55 29/81/55 15/81/55
f 57/80/9 66/58/9 65/80/9
f 59/40/56 31/29/56 19/29/56
f 60/55/57 67/40/57 59/40/57
f 30/28/58 67/40/59 66/82/60
f 67/40/61 65/56/61 66/82/61
f 70/55/62 11/57/62 49/57/62
f 70/55/63 55/40/63 56/55/63
f 72/78/52 9/79/64 50/79/49
f 72/78/52 53/38/7 54/78/7
f 62/30/65 115/80/65 111/30/65
f 57/80/9 61/31/9 58/58/9
f 64/78/66 84/38/67 63/38/68
f 14/68/69 79/39/69 78/68/69
f 9/32/70 55/83/70 12/33/70
f 53/38/71 74/78/71 54/78/71
f 74/84/10 76/12/10 75/83/10
f 56/12/72 73/10/72 53/10/72
f 54/84/73 75/83/73 55/83/73
f 55/40/74 76/55/74 56/55/74
f 83/85/75 81/79/76 82/13/77
f 79/39/78 77/86/79 78/68/80
f 77/86/79 80/78/81 83/85/75
f 64/78/66 81/79/82 80/78/83
f 62/30/84 78/34/84 77/30/84
f 63/38/68 79/39/85 17/39/86
f 61/31/87 82/36/87 13/36/87
f 13/13/88 81/79/88 18/79/88
f 86/87/89 28/64/90 27/62/90
f 28/65/91 88/88/91 26/54/91
f 94/89/92 86/90/92 85/52/92
f 94/91/25 88/51/25 93/92/25
f 90/93/93 23/94/94 21/47/94
f 21/41/95 91/95/96 90/96/97
f 97/97/22 92/46/22 98/98/22
f 98/99/98 89/43/99 99/100/100
f 42/101/25 93/92/25 41/69/25
f 42/67/101 95/102/102 94/89/103
f 95/103/89 87/104/89 86/87/89
f 87/105/104 93/71/104 88/88/104
f 48/73/105 99/100/100 45/74/106
f 97/106/107 104/35/107 47/35/107
f 100/77/46 89/107/108 90/93/93
f 90/96/109 97/106/110 100/75/43
f 101/6/111 108/108/111 107/103/111
f 104/109/112 105/98/112 106/72/112
f 96/108/113 107/103/113 108/108/113
f 98/99/114 106/73/114 105/99/114
f 98/98/115 103/97/115 97/97/115
f 95/102/116 101/66/116 107/102/116
f 43/6/117 102/5/117 101/6/117
f 47/109/118 106/72/118 48/72/118
f 116/31/119 110/59/119 109/58/119
f 113/81/120 111/30/120 115/80/120
f 61/31/121 114/36/121 116/31/121
f 58/58/122 110/59/122 16/59/122
f 16/59/123 114/36/123 13/36/123
f 57/80/124 113/81/124 115/80/124
f 61/31/125 109/58/125 58/58/125
f 14/34/126 113/81/126 15/81/126
f 2/1/1 4/19/1 3/2/2
f 15/4/3 20/57/3 44/5/3
f 8/7/4 6/53/4 5/8/5
f 53/10/6 10/17/6 11/11/6
f 13/13/7 18/79/7 45/14/7
f 44/16/127 20/11/127 17/17/127
f 4/19/9 34/19/9 38/20/9
f 27/21/9 8/7/9 7/9/9
f 24/23/10 2/63/10 1/24/10
f 7/9/11 5/8/11 26/26/11
f 16/28/128 19/29/128 31/29/128
f 62/30/9 77/30/9 83/31/9
f 50/32/13 9/32/13 12/33/13
f 62/30/129 111/30/129 112/34/129
f 47/35/130 16/59/130 13/36/130
f 71/38/50 51/39/49 10/39/64
f 69/40/131 52/29/131 12/29/131
f 49/11/18 11/11/18 10/17/18
f 4/19/9 22/20/9 21/41/9
f 92/42/19 24/23/132 23/25/20
f 91/44/22 22/61/23 24/45/23
f 21/47/24 23/94/24 1/48/24
f 85/50/25 25/27/25 26/26/25
f 85/52/133 86/90/133 27/21/133
f 6/53/10 28/65/10 26/54/10
f 8/7/4 36/7/27 37/53/27
f 68/55/28 32/57/134 29/4/29
f 60/55/135 20/57/135 32/57/135
f 58/58/136 16/59/136 30/59/136
f 15/4/137 29/4/137 32/57/137
f 34/60/3 33/110/3 35/45/3
f 39/62/3 40/64/3 37/53/3
f 27/21/9 39/21/9 36/7/9
f 24/23/10 35/23/10 33/63/10
f 2/1/1 33/1/34 34/19/34
f 22/61/35 38/61/35 35/45/35
f 28/64/36 40/64/36 39/62/36
f 6/53/10 37/53/10 40/65/10
f 14/34/138 15/81/138 43/66/138
f 14/68/7 42/101/7 41/69/7
f 96/70/38 44/16/139 41/18/39
f 96/70/140 108/70/140 102/16/140
f 16/28/3 47/109/3 48/72/3
f 18/32/141 19/33/141 48/73/141
f 100/75/43 97/106/110 47/35/44
f 46/15/46 45/14/46 99/76/46
f 20/11/47 49/11/47 51/17/47
f 59/40/142 19/29/142 52/29/142
f 63/38/7 17/39/7 51/39/49
f 19/33/143 18/32/143 50/32/143
f 64/78/7 72/78/52 50/79/49
f 64/78/7 63/38/7 71/38/50
f 60/55/144 70/55/144 49/57/144
f 59/40/54 69/40/54 70/55/54
f 57/80/145 65/80/145 29/81/145
f 57/80/9 58/58/9 66/58/9
f 59/40/146 67/40/146 31/29/146
f 60/55/57 68/55/57 67/40/57
f 30/28/58 31/29/147 67/40/59
f 67/40/61 68/55/61 65/56/61
f 70/55/148 56/55/148 11/57/148
f 70/55/63 69/40/63 55/40/63
f 72/78/149 54/78/149 9/79/149
f 72/78/52 71/38/50 53/38/7
f 62/30/65 57/80/65 115/80/65
f 57/80/9 62/30/9 61/31/9
f 64/78/66 80/78/83 84/38/67
f 14/68/69 17/39/69 79/39/69
f 9/32/70 54/84/70 55/83/70
f 53/38/71 73/38/71 74/78/71
f 74/84/10 73/10/10 76/12/10
f 56/12/72 76/12/72 73/10/72
f 54/84/73 74/84/73 75/83/73
f 55/40/74 75/40/74 76/55/74
f 83/85/75 80/78/81 81/79/76
f 79/39/78 84/38/150 77/86/79
f 77/86/79 84/38/150 80/78/81
f 64/78/66 18/79/86 81/79/82
f 62/30/151 14/34/151 78/34/151
f 63/38/68 84/38/67 79/39/85
f 61/31/152 83/31/152 82/36/152
f 13/13/88 82/13/88 81/79/88
f 86/87/89 87/104/89 28/64/90
f 28/65/153 87/105/153 88/88/153
f 94/89/103 95/102/102 86/90/154
f 94/91/25 85/50/25 88/51/25
f 90/93/93 89/107/108 23/94/94
f 21/41/95 22/20/155 91/95/96
f 97/97/22 91/44/22 92/46/22
f 98/99/98 92/42/99 89/43/99
f 42/101/25 94/91/25 93/92/25
f 42/67/101 43/66/156 95/102/102
f 95/103/89 96/108/89 87/104/89
f 87/105/157 96/70/38 93/71/40
f 48/73/105 98/99/98 99/100/100
f 97/106/158 103/106/158 104/35/158
f 100/77/46 99/76/46 89/107/108
f 90/96/109 91/95/109 97/106/110
f 101/6/111 102/5/111 108/108/111
f 104/109/112 103/97/112 105/98/112
f 96/108/113 95/103/113 107/103/113
f 98/99/159 48/73/159 106/73/159
f 98/98/115 105/98/115 103/97/115
f 95/102/160 43/66/160 101/66/160
f 43/6/117 44/5/117 102/5/117
f 47/109/118 104/109/118 106/72/118
f 116/31/161 114/36/161 110/59/161
f 113/81/120 112/34/120 111/30/120
f 61/31/162 13/36/162 114/36/162
f 58/58/163 109/58/163 110/59/163
f 16/59/164 110/59/164 114/36/164
f 57/80/165 15/81/165 113/81/165
f 61/31/125 116/31/125 109/58/125
f 14/34/126 112/34/126 113/81/126
