{
	"asset":{
		"generator":"Khronos glTF Blender I/O v4.4.55",
		"version":"2.0"
	},
	"scene":0,
	"scenes":[
		{
			"name":"Scene",
			"nodes":[
				0
			]
		}
	],
	"nodes":[
		{
			"mesh":0,
			"name":"StarfordBunny"
		}
	],
	"meshes":[
		{
			"name":"StarfordBunny",
			"primitives":[
				{
					"attributes":{
						"POSITION":0,
						"NORMAL":1
					},
					"indices":2
				}
			]
		}
	],
	"accessors":[
		{
			"bufferView":0,
			"componentType":5126,
			"count":14900,
			"max":[
				0.9388821721076965,
				0.9386550188064575,
				0.710164487361908
			],
			"min":[
				-0.9377976655960083,
				-0.9202073812484741,
				-0.7460212707519531
			],
			"type":"VEC3"
		},
		{
			"bufferView":1,
			"componentType":5126,
			"count":14900,
			"type":"VEC3"
		},
		{
			"bufferView":2,
			"componentType":5123,
			"count":14904,
			"type":"SCALAR"
		}
	],
	"bufferViews":[
		{
			"buffer":0,
			"byteLength":178800,
			"byteOffset":0,
			"target":34962
		},
		{
			"buffer":0,
			"byteLength":178800,
			"byteOffset":178800,
			"target":34962
		},
		{
			"buffer":0,
			"byteLength":29808,
			"byteOffset":357600,
			"target":34963
		}
	],
	"buffers":[
		{
			"byteLength":387408,
			"uri":"StanfordBunny.bin"
		}
	]
}
