# Blender 4.4.0
# www.blender.org
mtllib head.mtl
o 立方体
v -0.673368 0.299906 0.673368
v -0.673368 1.540112 0.673368
v -0.673368 0.299906 -0.673368
v -0.673368 1.540112 -0.673368
v 0.673368 0.299906 0.673368
v 0.673368 1.540112 0.673368
v 0.673368 0.299906 -0.673368
v 0.673368 1.540112 -0.673368
v -0.820926 0.164020 -0.000000
v -0.820926 0.920010 0.820927
v -0.820926 1.675999 -0.000000
v -0.820927 0.920009 -0.820926
v 0.000000 0.164019 -0.820927
v 0.000000 1.675999 -0.820926
v 0.820926 0.920009 -0.820927
v 0.820927 0.164020 -0.000000
v 0.820926 1.675999 -0.000000
v 0.820927 0.920010 0.820926
v 0.000000 0.164020 0.820927
v 0.000000 1.675999 0.820926
v -1.130593 0.920009 -0.000000
v 0.000000 0.920008 -1.130593
v 1.130593 0.920009 -0.000000
v 0.000000 0.666959 1.006051
v 0.000000 0.037111 -0.000000
v 0.000000 1.961169 -0.000000
v -0.804902 0.068218 0.597923
v -0.711420 1.560839 0.791049
v -0.804902 0.068218 -0.788621
v -0.711420 1.598641 -0.711420
v 0.804902 0.068218 0.597923
v 0.711420 1.560839 0.791049
v 0.804903 0.068218 -0.788621
v 0.711420 1.598641 -0.711420
v -0.981285 0.068218 0.016281
v -0.832582 0.919753 0.892543
v -0.867317 1.742206 -0.000000
v -0.867317 0.943496 -0.867317
v 0.000000 0.068218 -0.965004
v 0.000000 1.742206 -0.867317
v 0.867317 0.943496 -0.867317
v 0.981286 0.068218 0.016281
v 0.867317 1.742206 -0.000000
v 0.832583 0.922335 0.892543
v 0.000000 1.742206 0.867317
v -1.194482 0.943496 -0.000000
v 0.000000 0.943495 -1.194482
v 1.194482 0.943496 -0.000000
v 0.153843 0.828664 1.065396
v 0.000000 2.043491 -0.000000
v -0.737652 0.520686 0.976909
v 0.772014 0.642883 1.015054
v 0.402451 0.068218 -0.876813
v 0.355710 1.670424 -0.789368
v 0.355710 1.670424 0.829183
v 0.433659 0.943496 -1.030900
v 0.125164 1.255597 1.026345
v 0.433659 1.892850 -0.000000
v -0.402451 0.068218 -0.876813
v -0.355710 1.670424 -0.789368
v -0.355710 1.670424 0.829183
v -0.433659 0.943496 -1.030900
v -0.433659 1.892850 -0.000000
v -0.137603 1.228998 1.011098
v 0.582356 1.022399 0.908285
v -0.591096 1.013153 0.908546
v 0.869600 1.432190 0.418721
v 0.851319 1.499256 0.417547
v 0.922888 1.446998 0.434913
v 0.904607 1.514064 0.433738
v 0.945380 1.442952 0.364589
v 0.922561 1.526668 0.363123
v 0.892092 1.428142 0.348398
v 0.869273 1.511860 0.346932
v 0.899173 1.505952 0.439862
v 0.914035 1.451428 0.440817
v 0.870713 1.439389 0.427654
v 0.855851 1.493913 0.426699
v 0.832377 1.583695 0.715873
v 0.898843 1.319291 0.721562
v 0.820411 1.297397 0.705682
v 0.753945 1.561801 0.699993
v 0.910046 1.440747 0.277782
v 0.891765 1.507813 0.276608
v 0.963334 1.455555 0.293974
v 0.945053 1.522622 0.292799
v 0.943940 1.515422 0.283867
v 0.958802 1.460899 0.284822
v 0.915480 1.448859 0.271658
v 0.900618 1.503384 0.270703
v 1.041559 1.623314 0.029782
v 1.108026 1.358909 0.035471
v 1.022887 1.340232 0.000136
v 0.956420 1.604635 -0.005553
v 0.990812 1.181538 0.430991
v 0.958781 1.183566 0.534552
v 0.905493 1.168759 0.518360
v 0.937524 1.166730 0.414800
v 1.043187 1.195969 0.308408
v 0.989899 1.181161 0.292216
v 1.016917 1.195680 0.190018
v 1.070204 1.210490 0.206209
vn -0.8941 -0.3277 0.3053
vn -0.8939 -0.3312 0.3020
vn -0.8913 -0.3651 0.2690
vn -0.8941 0.3277 0.3053
vn -0.8939 0.3312 0.3020
vn -0.8945 0.2932 0.3374
vn -0.8939 0.3312 -0.3020
vn -0.8941 0.3277 -0.3053
vn -0.8945 0.2932 -0.3374
vn -0.8939 -0.3312 -0.3020
vn -0.8941 -0.3277 -0.3053
vn -0.8913 -0.3651 -0.2690
vn -0.3053 -0.3277 -0.8941
vn -0.3020 -0.3312 -0.8939
vn -0.2690 -0.3651 -0.8913
vn -0.3053 0.3277 -0.8941
vn -0.3020 0.3312 -0.8939
vn -0.3374 0.2932 -0.8945
vn 0.3020 0.3312 -0.8939
vn 0.3053 0.3277 -0.8941
vn 0.3374 0.2932 -0.8945
vn 0.3020 -0.3312 -0.8939
vn 0.3053 -0.3277 -0.8941
vn 0.2690 -0.3651 -0.8913
vn 0.8941 -0.3277 -0.3053
vn 0.8939 -0.3312 -0.3020
vn 0.8913 -0.3651 -0.2690
vn 0.8941 0.3277 -0.3053
vn 0.8939 0.3312 -0.3020
vn 0.8945 0.2932 -0.3374
vn 0.8939 0.3312 0.3020
vn 0.8941 0.3277 0.3053
vn 0.8945 0.2932 0.3374
vn 0.8939 -0.3312 0.3020
vn 0.8941 -0.3277 0.3053
vn 0.8913 -0.3651 0.2690
vn 0.2839 -0.3035 0.9095
vn 0.2782 -0.3128 0.9082
vn 0.2655 -0.3330 0.9048
vn 0.1964 0.2132 0.9571
vn 0.1924 0.2163 0.9572
vn 0.1355 0.2598 0.9561
vn -0.1924 0.2163 0.9572
vn -0.1964 0.2132 0.9571
vn -0.1355 0.2598 0.9561
vn -0.2782 -0.3128 0.9082
vn -0.2839 -0.3035 0.9095
vn -0.2655 -0.3330 0.9048
vn -0.1881 -0.9640 -0.1881
vn -0.1488 -0.9625 -0.2268
vn 0.1881 -0.9640 -0.1881
vn 0.2268 -0.9625 -0.1488
vn 0.1881 -0.9640 0.1881
vn 0.2268 -0.9625 0.1488
vn -0.1881 -0.9640 0.1881
vn -0.1488 -0.9625 0.2268
vn 0.2859 0.9146 -0.2859
vn 0.3174 0.9137 -0.2539
vn -0.2859 0.9146 -0.2859
vn -0.2539 0.9137 -0.3174
vn -0.2859 0.9146 0.2859
vn -0.2539 0.9137 0.3174
vn 0.2859 0.9146 0.2859
vn 0.3174 0.9137 0.2539
vn -0.9260 -0.1890 0.3267
vn -0.9244 -0.1827 0.3348
vn -0.9331 -0.2220 0.2830
vn -0.9005 0.2928 0.3214
vn -0.8998 0.3078 0.3093
vn -0.9000 0.2288 0.3710
vn -0.9446 -0.1646 -0.2840
vn -0.9448 -0.1662 -0.2823
vn -0.9494 -0.2351 -0.2081
vn -0.3077 -0.2221 -0.9252
vn -0.2511 -0.1958 -0.9480
vn -0.2107 -0.1768 -0.9614
vn -0.2885 0.3545 -0.8894
vn -0.3146 0.3399 -0.8863
vn -0.3333 0.3293 -0.8835
vn 0.3152 0.3047 -0.8988
vn 0.2889 0.3179 -0.9030
vn 0.3124 -0.1281 -0.9413
vn 0.2537 -0.1566 -0.9545
vn 0.2107 -0.1768 -0.9614
vn 0.9448 -0.1662 -0.2823
vn 0.9446 -0.1646 -0.2840
vn 0.9494 -0.2351 -0.2081
vn 0.8998 0.3083 0.3089
vn 0.9005 0.2932 0.3211
vn 0.9000 0.2297 0.3704
vn 0.9243 -0.1825 0.3351
vn 0.9260 -0.1888 0.3269
vn 0.9331 -0.2220 0.2830
vn 0.1209 0.1834 0.9756
vn -0.0381 0.2213 0.9745
vn -0.0834 0.2310 0.9694
vn 0.0694 0.2518 0.9653
vn -0.0829 0.2894 0.9536
vn -0.1624 0.3063 0.9380
vn 0.2710 0.9117 -0.3088
vn 0.2980 0.9079 -0.2948
vn 0.3144 0.9051 -0.2861
vn -0.2701 0.9224 -0.2760
vn -0.2978 0.9176 -0.2632
vn -0.2493 0.9254 -0.2854
vn -0.3143 0.9097 0.2715
vn -0.3116 0.9103 0.2726
vn -0.3099 0.9106 0.2734
vn 0.2910 0.9130 0.2859
vn 0.2478 0.9188 0.3071
vn 0.3156 0.9086 0.2734
vn 0.3143 0.9097 0.2715
vn 0.3116 0.9103 0.2726
vn 0.3159 0.9093 0.2707
vn 0.2701 0.9224 -0.2760
vn 0.2978 0.9176 -0.2632
vn -0.6483 0.0807 0.7571
vn 0.0811 0.3284 0.9410
vn -0.7780 0.0052 0.6282
vn 0.2511 -0.1958 -0.9480
vn 0.3077 -0.2221 -0.9252
vn 0.3146 0.3399 -0.8863
vn 0.2885 0.3545 -0.8894
vn 0.3333 0.3293 -0.8835
vn -0.2910 0.9130 0.2859
vn -0.2478 0.9188 0.3071
vn -0.2203 0.9214 0.3201
vn -0.2710 0.9117 -0.3088
vn -0.2980 0.9079 -0.2948
vn -0.1452 0.1769 0.9735
vn -0.1558 0.1744 0.9723
vn -0.1425 0.1776 0.9737
vn -0.2889 0.3179 -0.9030
vn -0.3152 0.3047 -0.8988
vn -0.2537 -0.1566 -0.9545
vn -0.3124 -0.1281 -0.9413
vn 0.9247 0.2570 0.2810
vn -0.3782 0.7056 0.5993
vn -0.3782 0.7057 0.5992
vn -0.2933 0.9513 0.0952
vn -0.9247 -0.2570 -0.2810
vn -0.1751 0.9380 -0.2991
vn -0.1942 0.9312 -0.3084
vn -0.1970 0.9302 -0.3097
vn 0.6063 0.1788 0.7749
vn -0.9181 -0.2448 0.3117
vn 0.0268 -0.7800 0.6252
vn 0.0268 -0.7800 0.6253
vn -0.1911 -0.0269 0.9812
vn 0.9537 0.2539 0.1610
vn 0.9550 0.2463 0.1651
vn 0.9554 0.2438 0.1664
vn -0.9256 -0.2491 -0.2849
vn -0.9265 -0.2415 -0.2887
vn 0.3479 -0.8557 -0.3830
vn 0.3228 -0.8649 -0.3843
vn 0.3196 -0.8660 -0.3845
vn -0.0268 0.7799 -0.6253
vn -0.0268 0.7800 -0.6252
vn -0.2290 0.9649 -0.1288
vn -0.3282 0.9066 0.2653
vn -0.3134 0.9112 0.2674
vn -0.3320 0.9053 0.2648
vn 0.9181 0.2448 -0.3117
vn -0.6063 -0.1788 -0.7749
vn 0.3782 -0.7057 -0.5992
vn 0.3782 -0.7056 -0.5993
vn 0.3687 0.0727 -0.9267
vn 0.8696 0.2371 0.4331
vn 0.8727 0.2309 0.4302
vn 0.8662 0.2437 0.4363
vn -0.9308 -0.2423 -0.2737
vn -0.9279 -0.2494 -0.2772
vn 0.0454 -0.9160 0.3985
vn 0.1103 -0.9059 0.4088
vn 0.1260 -0.9029 0.4111
vn 0.2402 -0.9662 0.0932
vn 0.9300 0.2338 0.2838
vn 0.9301 0.2338 0.2832
vn 0.9299 0.2337 0.2840
vn -0.3510 0.2891 0.8907
vn -0.9301 -0.2338 -0.2832
vn -0.9300 -0.2338 -0.2838
vn -0.9299 -0.2337 -0.2840
vn 0.3310 -0.1779 -0.9267
vn 0.2844 -0.9568 -0.0608
vn 0.2843 -0.9568 -0.0608
vn -0.2026 -0.2928 0.9345
vn -0.9118 -0.2963 -0.2844
vn -0.9121 -0.2963 -0.2835
vn -0.9117 -0.2963 -0.2847
vn 0.1647 0.3954 -0.9036
vn 0.9121 0.2963 0.2835
vn 0.9118 0.2963 0.2844
vn 0.9117 0.2963 0.2847
vn -0.8945 -0.2932 0.3374
vn -0.8913 0.3651 0.2690
vn -0.8913 0.3651 -0.2690
vn -0.8945 -0.2932 -0.3374
vn -0.3374 -0.2932 -0.8945
vn -0.2690 0.3651 -0.8913
vn 0.2690 0.3651 -0.8913
vn 0.3374 -0.2932 -0.8945
vn 0.8945 -0.2932 -0.3374
vn 0.8913 0.3651 -0.2690
vn 0.8913 0.3651 0.2690
vn 0.8945 -0.2932 0.3374
vn 0.2940 -0.2869 0.9117
vn 0.2443 0.1750 0.9538
vn -0.2443 0.1750 0.9538
vn -0.2940 -0.2869 0.9117
vn -0.2268 -0.9625 -0.1488
vn 0.1488 -0.9625 -0.2268
vn 0.1488 -0.9625 0.2268
vn -0.2268 -0.9625 0.1488
vn 0.2539 0.9137 -0.3174
vn -0.3174 0.9137 -0.2539
vn -0.3174 0.9137 0.2539
vn 0.2539 0.9137 0.3174
vn -0.9167 -0.1570 0.3675
vn -0.8935 0.3660 0.2600
vn -0.9311 -0.0980 -0.3512
vn -0.3428 -0.2382 -0.9087
vn 0.2651 0.3295 -0.9062
vn 0.3509 -0.1086 -0.9301
vn 0.9311 -0.0980 -0.3512
vn 0.8935 0.3660 0.2600
vn 0.9166 -0.1566 0.3679
vn 0.1578 0.1738 0.9721
vn 0.1397 0.2322 0.9626
vn -0.3159 0.9093 0.2707
vn 0.2203 0.9214 0.3201
vn 0.3099 0.9106 0.2734
vn 0.2493 0.9254 -0.2854
vn 0.1686 0.3451 0.9233
vn 0.3428 -0.2382 -0.9087
vn -0.3156 0.9086 0.2734
vn -0.3144 0.9051 -0.2861
vn -0.1578 0.1739 0.9720
vn -0.2651 0.3295 -0.9062
vn -0.3509 -0.1086 -0.9301
vn -0.1708 0.9395 -0.2971
vn 0.9522 0.2623 0.1566
vn -0.9267 -0.2392 -0.2898
vn 0.3535 -0.8536 -0.3826
vn -0.3111 0.9119 0.2677
vn 0.8737 0.2289 0.4293
vn -0.9317 -0.2401 -0.2725
vn 0.0365 -0.9171 0.3969
vn 0.9301 0.2338 0.2831
vn -0.9301 -0.2338 -0.2831
vn -0.9121 -0.2963 -0.2832
vn 0.9121 0.2963 0.2832
vt 0.537846 0.477143
vt 0.600456 0.526937
vt 0.537846 0.536322
vt 0.645714 0.460974
vt 0.590357 0.459566
vt 0.663066 0.576731
vt 0.610555 0.594309
vt 0.555198 0.592900
vt 0.690618 0.083323
vt 0.753227 0.133117
vt 0.690618 0.142502
vt 0.798485 0.067154
vt 0.743128 0.065746
vt 0.815837 0.182911
vt 0.763326 0.200489
vt 0.707969 0.199080
vt 0.173613 0.728161
vt 0.128355 0.662198
vt 0.190965 0.671583
vt 0.065746 0.711992
vt 0.118256 0.729570
vt 0.083097 0.596235
vt 0.138454 0.594826
vt 0.190965 0.612404
vt 0.931135 0.470017
vt 0.874624 0.504381
vt 0.874524 0.462172
vt 0.932170 0.575933
vt 0.941739 0.522759
vt 0.817421 0.576206
vt 0.807598 0.523079
vt 0.817950 0.470288
vt 0.824002 0.725800
vt 0.868767 0.791287
vt 0.803280 0.778979
vt 0.934254 0.746522
vt 0.881076 0.725800
vt 0.913532 0.856775
vt 0.856459 0.856775
vt 0.803280 0.836052
vt 0.537846 0.839953
vt 0.604817 0.792771
vt 0.593207 0.859742
vt 0.557636 0.725800
vt 0.537846 0.781161
vt 0.671788 0.745590
vt 0.671788 0.804381
vt 0.651999 0.859742
vt 0.138413 0.065746
vt 0.171706 0.163085
vt 0.103557 0.122111
vt 0.275140 0.163883
vt 0.234016 0.101432
vt 0.180961 0.227047
vt 0.144891 0.217679
vt 0.067081 0.204490
vt 0.142053 0.246860
vt 0.070443 0.292148
vt 0.065746 0.248738
vt 0.184828 0.245229
vt 0.146071 0.274068
vt 0.154794 0.300151
vt 0.198457 0.300223
vt 0.170523 0.324894
vt 0.107091 0.371850
vt 0.085887 0.332990
vt 0.219134 0.361460
vt 0.176883 0.428827
vt 0.311046 0.313961
vt 0.302695 0.387977
vt 0.233464 0.463335
vt 0.372719 0.320959
vt 0.406355 0.355174
vt 0.354225 0.206552
vt 0.304947 0.236061
vt 0.296286 0.199034
vt 0.193682 0.282258
vt 0.234865 0.252836
vt 0.238532 0.279729
vt 0.225969 0.227196
vt 0.314009 0.273035
vt 0.236873 0.307924
vt 0.359939 0.238800
vt 0.406355 0.227466
vt 0.188957 0.263814
vt 0.326945 0.128363
vt 0.352492 0.077600
vt 0.343898 0.815372
vt 0.350160 0.821341
vt 0.344552 0.821301
vt 0.559028 0.202424
vt 0.554807 0.203211
vt 0.554379 0.202386
vt 0.559077 0.196459
vt 0.334613 0.630543
vt 0.328308 0.624619
vt 0.335309 0.624619
vt 0.558388 0.227401
vt 0.551725 0.226762
vt 0.345071 0.822072
vt 0.329529 0.631311
vt 0.329004 0.630543
vt 0.552067 0.275245
vt 0.548069 0.273679
vt 0.551787 0.274358
vt 0.550098 0.248700
vt 0.556761 0.249338
vt 0.356559 0.844824
vt 0.334561 0.844823
vt 0.334088 0.631311
vt 0.322456 0.654411
vt 0.344636 0.809452
vt 0.350899 0.815422
vt 0.554919 0.189638
vt 0.559126 0.190494
vt 0.554478 0.190456
vt 0.554429 0.196421
vt 0.334613 0.618694
vt 0.329004 0.618695
vt 0.558897 0.165511
vt 0.558698 0.189669
vt 0.345166 0.808688
vt 0.350245 0.809492
vt 0.329529 0.617927
vt 0.551191 0.119028
vt 0.546898 0.118936
vt 0.551479 0.118145
vt 0.555858 0.143724
vt 0.551350 0.166289
vt 0.548310 0.144502
vt 0.356559 0.786111
vt 0.349726 0.808721
vt 0.322456 0.594826
vt 0.334088 0.617927
vt 0.547466 0.119672
vt 0.543896 0.297030
vt 0.546898 0.306469
vt 0.542325 0.305634
vt 0.322456 0.820579
vt 0.547493 0.274410
vt 0.356713 0.629979
vt 0.542419 0.328074
vt 0.537846 0.327239
vt 0.545263 0.087465
vt 0.542147 0.096739
vt 0.540682 0.088256
vt 0.537846 0.066537
vt 0.542427 0.065746
vt 0.356546 0.619256
vt 0.546728 0.095947
vt 0.322700 0.809857
vt 0.663066 0.517552
vt 0.815837 0.123732
vt 0.065746 0.652813
vt 0.874819 0.585950
vt 0.934254 0.803596
vt 0.616428 0.725800
vt 0.211737 0.202805
vt 0.558587 0.203243
vt 0.349630 0.822105
vt 0.344453 0.654620
vt 0.334561 0.786221
vt 0.344453 0.595031
vt 0.548469 0.297865
vt 0.323090 0.829302
vt 0.356016 0.638698
vt 0.355849 0.610676
vt 0.323457 0.801283
s 1
usemtl Material
f 1/1/1 21/2/2 9/3/3
f 2/4/4 21/2/5 10/5/6
f 21/2/7 4/6/8 12/7/9
f 21/2/10 3/8/11 9/3/12
f 3/9/13 22/10/14 13/11/15
f 4/12/16 22/10/17 12/13/18
f 22/10/19 8/14/20 15/15/21
f 22/10/22 7/16/23 13/11/24
f 7/17/25 23/18/26 16/19/27
f 8/20/28 23/18/29 15/21/30
f 23/18/31 6/22/32 18/23/33
f 23/18/34 5/24/35 16/19/36
f 5/25/37 24/26/38 19/27/39
f 6/28/40 24/26/41 18/29/42
f 24/26/43 2/30/44 10/31/45
f 24/26/46 1/32/47 19/27/48
f 3/33/49 25/34/49 9/35/50
f 7/36/51 25/34/51 13/37/52
f 25/34/53 5/38/53 19/39/54
f 25/34/55 1/40/55 9/35/56
f 8/41/57 26/42/57 17/43/58
f 4/44/59 26/42/59 14/45/60
f 26/42/61 2/46/61 20/47/62
f 26/42/63 6/48/63 17/43/64
f 27/49/65 46/50/66 35/51/67
f 28/52/68 46/50/69 36/53/70
f 46/50/7 30/54/8 38/55/9
f 46/50/71 29/56/72 35/51/73
f 62/57/74 39/58/75 59/59/76
f 60/60/77 47/61/78 62/57/79
f 56/62/80 34/63/81 41/64/21
f 56/62/82 33/65/83 53/66/84
f 33/65/85 48/67/86 42/68/87
f 34/63/28 48/67/29 41/64/30
f 48/67/88 32/69/89 44/70/90
f 48/67/91 31/71/92 42/68/93
f 32/69/94 65/72/95 52/73/96
f 64/74/97 45/75/98 61/76/99
f 54/77/100 50/78/101 58/79/102
f 30/54/103 63/80/104 60/60/105
f 63/80/106 28/52/107 61/76/108
f 50/78/109 55/81/110 58/79/111
f 58/79/112 32/69/113 43/82/114
f 34/63/115 58/79/116 43/82/58
f 57/83/117 45/75/118 49/84/119
f 39/58/120 56/62/121 53/66/84
f 47/61/122 54/77/123 56/62/124
f 50/78/125 61/76/126 45/75/127
f 60/60/128 50/78/129 40/85/60
f 66/86/130 28/52/131 51/87/132
f 30/54/133 62/57/134 38/55/18
f 29/56/135 62/57/136 59/59/76
f 71/88/137 70/89/137 69/90/137
f 68/91/138 75/92/139 70/93/139
f 70/93/140 74/94/140 68/91/140
f 67/95/141 74/96/141 73/97/141
f 75/92/142 82/98/143 79/99/144
f 70/89/145 76/100/145 69/90/145
f 67/95/146 78/101/146 68/102/146
f 67/103/147 76/104/148 77/105/147
f 80/106/149 82/98/149 81/107/149
f 76/100/150 79/108/151 80/109/152
f 77/110/153 82/111/154 78/101/141
f 77/105/155 80/106/156 81/107/157
f 85/112/137 72/113/137 71/88/137
f 87/114/158 84/115/159 86/116/158
f 84/115/160 72/117/160 86/116/160
f 83/118/141 74/96/141 84/119/141
f 87/114/161 94/120/162 90/121/163
f 88/122/164 86/123/164 85/112/164
f 90/124/165 83/118/165 84/119/165
f 89/125/166 85/126/167 83/127/166
f 93/128/168 91/129/168 92/130/168
f 88/122/169 91/131/170 87/132/171
f 94/133/172 89/134/173 90/124/141
f 93/128/174 88/135/175 89/125/176
f 96/136/177 98/137/177 95/138/177
f 69/90/178 95/139/179 71/88/180
f 67/103/181 96/136/181 69/140/181
f 98/141/182 67/95/183 73/97/184
f 95/138/185 73/142/185 71/143/185
f 100/144/186 102/145/186 99/146/187
f 100/144/188 71/147/188 73/148/188
f 83/118/189 100/149/190 73/97/191
f 85/126/192 101/150/192 83/127/192
f 99/151/193 85/112/194 71/88/195
f 1/1/1 10/5/196 21/2/2
f 2/4/4 11/152/197 21/2/5
f 21/2/7 11/152/198 4/6/8
f 21/2/10 12/7/199 3/8/11
f 3/9/13 12/13/200 22/10/14
f 4/12/16 14/153/201 22/10/17
f 22/10/19 14/153/202 8/14/20
f 22/10/22 15/15/203 7/16/23
f 7/17/25 15/21/204 23/18/26
f 8/20/28 17/154/205 23/18/29
f 23/18/31 17/154/206 6/22/32
f 23/18/34 18/23/207 5/24/35
f 5/25/37 18/29/208 24/26/38
f 6/28/40 20/155/209 24/26/41
f 24/26/43 20/155/210 2/30/44
f 24/26/46 10/31/211 1/32/47
f 3/33/49 13/37/212 25/34/49
f 7/36/51 16/156/213 25/34/51
f 25/34/53 16/156/214 5/38/53
f 25/34/55 19/39/215 1/40/55
f 8/41/57 14/45/216 26/42/57
f 4/44/59 11/157/217 26/42/59
f 26/42/61 11/157/218 2/46/61
f 26/42/63 20/47/219 6/48/63
f 27/49/65 36/53/220 46/50/66
f 28/52/68 37/158/221 46/50/69
f 46/50/7 37/158/198 30/54/8
f 46/50/71 38/55/222 29/56/72
f 62/57/74 47/61/223 39/58/75
f 60/60/77 40/85/201 47/61/78
f 56/62/80 54/77/224 34/63/81
f 56/62/82 41/64/225 33/65/83
f 33/65/85 41/64/226 48/67/86
f 34/63/28 43/82/205 48/67/29
f 48/67/88 43/82/227 32/69/89
f 48/67/91 44/70/228 31/71/92
f 32/69/94 55/81/229 65/72/95
f 64/74/97 49/84/230 45/75/98
f 54/77/100 40/85/216 50/78/101
f 30/54/103 37/158/217 63/80/104
f 63/80/106 37/158/231 28/52/107
f 50/78/109 45/75/232 55/81/110
f 58/79/112 55/81/233 32/69/113
f 34/63/115 54/77/234 58/79/116
f 57/83/117 55/81/235 45/75/118
f 39/58/120 47/61/236 56/62/121
f 47/61/122 40/85/202 54/77/123
f 50/78/125 63/80/237 61/76/126
f 60/60/128 63/80/238 50/78/129
f 66/86/130 61/76/239 28/52/131
f 30/54/133 60/60/240 62/57/134
f 29/56/135 38/55/241 62/57/136
f 71/88/137 72/113/137 70/89/137
f 68/91/138 78/159/138 75/92/139
f 70/93/140 72/117/140 74/94/140
f 67/95/141 68/102/141 74/96/141
f 75/92/142 78/159/242 82/98/143
f 70/89/145 75/160/145 76/100/145
f 67/95/146 77/110/146 78/101/146
f 67/103/147 69/140/148 76/104/148
f 80/106/149 79/99/149 82/98/149
f 76/100/150 75/160/243 79/108/151
f 77/110/153 81/161/244 82/111/154
f 77/105/155 76/104/245 80/106/156
f 85/112/137 86/123/137 72/113/137
f 87/114/158 90/121/159 84/115/159
f 84/115/160 74/94/160 72/117/160
f 83/118/141 73/97/141 74/96/141
f 87/114/161 91/129/246 94/120/162
f 88/122/164 87/132/164 86/123/164
f 90/124/165 89/134/165 83/118/165
f 89/125/166 88/135/167 85/126/167
f 93/128/168 94/120/168 91/129/168
f 88/122/169 92/162/247 91/131/170
f 94/133/172 93/163/248 89/134/173
f 93/128/174 92/130/249 88/135/175
f 96/136/177 97/164/177 98/137/177
f 69/90/178 96/165/250 95/139/179
f 67/103/181 97/164/181 96/136/181
f 98/141/182 97/166/251 67/95/183
f 95/138/185 98/137/185 73/142/185
f 100/144/186 101/150/186 102/145/186
f 100/144/188 99/146/188 71/147/188
f 83/118/189 101/167/252 100/149/190
f 85/126/192 102/145/192 101/150/192
f 99/151/193 102/168/253 85/112/194
