# Blender 4.4.0
# www.blender.org
mtllib hat.mtl
o å¹³é¢.001
v -1.334429 0.431931 0.000000
v 1.334429 0.431931 0.000000
v -1.334429 0.431930 1.701483
v 1.334429 0.431930 1.701483
v -0.612428 0.445101 1.701483
v 0.612428 0.445101 1.701483
v -0.583696 1.945200 1.701483
v 0.583696 1.945200 1.701483
v -1.927242 0.113832 -0.503916
v 1.927242 0.113832 -0.503916
v -1.927242 0.158083 1.953441
v 1.927242 0.158083 1.953441
v -1.576854 0.177106 1.953441
v 1.576854 0.177106 1.953441
v -0.859680 2.583142 0.140320
v -1.021683 2.443664 0.000000
v 0.859680 2.583142 0.140320
v 1.021683 2.443664 0.000000
v -1.021683 2.443664 1.701483
v -0.859680 2.583142 1.561163
v 0.859680 2.583142 1.561163
v 1.021683 2.443664 1.701483
v -1.311615 0.394514 0.024073
v 1.311615 0.394514 0.024074
v -1.312783 0.397376 1.672545
v 1.312783 0.397376 1.672545
v -0.612307 0.438449 1.651928
v 0.612307 0.438449 1.651928
v -0.583696 1.945200 1.651483
v 0.583696 1.945200 1.651483
v -1.913975 0.067579 -0.490326
v 1.913975 0.067579 -0.490326
v -1.910351 0.112346 1.942362
v 1.910351 0.112346 1.942362
v -1.575181 0.141176 1.918711
v 1.575181 0.141176 1.918711
v -0.846310 2.537407 0.155473
v -0.991165 2.421187 0.032611
v 0.846310 2.537407 0.155473
v 0.991165 2.421186 0.032610
v -0.991165 2.421187 1.668874
v -0.846310 2.537407 1.546011
v 0.846310 2.537407 1.546010
v 0.991165 2.421187 1.668874
vn -0.0000 1.0000 -0.0000
vn 0.9881 0.1536 -0.0000
vn -0.0000 -0.0000 1.0000
vn -0.0000 -0.0000 -1.0000
vn 0.0129 0.7092 0.7049
vn -0.0000 0.8456 -0.5338
vn -0.4622 0.8866 -0.0160
vn -0.0392 0.7211 0.6917
vn 0.4194 0.9078 -0.0000
vn -0.0000 0.7092 -0.7050
vn -0.0000 0.7092 0.7050
vn -0.6525 0.7578 -0.0000
vn 0.6525 0.7578 -0.0000
vn -0.9881 0.1536 -0.0000
vn 0.0392 0.7211 0.6917
vn -0.4194 0.9078 -0.0000
vn -0.0129 0.7092 0.7049
vn 0.4622 0.8866 -0.0160
vn -0.0000 -1.0000 -0.0000
vn -0.9877 -0.1562 -0.0000
vn -0.0294 0.0003 -0.9996
vn -0.0000 -0.0042 1.0000
vn 0.0378 0.0042 -0.9993
vn -0.0000 0.0365 -0.9993
vn -0.0203 -0.7035 -0.7104
vn -0.0000 -0.8440 0.5364
vn 0.4667 -0.8843 0.0156
vn 0.0095 -0.6979 -0.7162
vn -0.4312 -0.9023 0.0019
vn -0.0000 -0.7265 0.6872
vn -0.0000 -0.7265 -0.6872
vn 0.6258 -0.7800 -0.0000
vn -0.6258 -0.7800 -0.0000
vn 0.9876 -0.1569 0.0010
vn -0.9876 -0.1569 0.0010
vn -0.0378 0.0042 -0.9993
vn 0.0294 0.0003 -0.9996
vn -0.0095 -0.6979 -0.7162
vn 0.4312 -0.9023 0.0019
vn 0.0203 -0.7035 -0.7104
vn -0.4667 -0.8843 0.0156
vn 0.9877 -0.1562 -0.0000
vn 0.9998 -0.0191 -0.0000
vn -0.3558 -0.6409 0.6802
vn -0.9374 -0.3481 0.0078
vn 0.1098 -0.6881 0.7172
vn -0.9998 -0.0190 0.0050
vn -0.0125 -0.2310 0.9729
vn -0.0000 -0.2819 -0.9594
vn 0.3245 -0.9374 0.1266
vn 0.9616 -0.2744 0.0049
vn 0.9998 -0.0190 0.0050
vn -0.3245 -0.9374 0.1266
vn -0.9616 -0.2744 0.0049
vn 0.0125 -0.2310 0.9729
vn -0.9998 -0.0191 -0.0000
vn -0.1098 -0.6881 0.7172
vn 0.3558 -0.6409 0.6802
vn 0.9374 -0.3481 0.0078
vt 0.929840 1.000000
vt 0.070160 1.000000
vt 1.000000 0.000000
vt 1.000000 0.935163
vt 1.000000 0.935164
vt 0.000000 0.000000
vt 0.000000 1.000000
vt 0.000000 0.935163
vt 1.000000 1.000000
vt 1.063283 1.000000
vt -0.063283 1.000000
s 0
f 17/1/1 15/2/1 20/2/1
f 2/3/2 18/4/2 22/5/2
f 3/6/3 5/6/3 7/7/3
f 2/3/4 1/6/4 16/8/4
f 4/3/3 22/4/3 8/9/3
f 22/10/3 19/11/3 7/7/3
f 4/3/5 6/3/5 14/3/5
f 1/6/6 2/3/6 10/3/6
f 1/6/7 9/6/7 11/6/7
f 3/6/8 11/6/8 13/6/8
f 2/3/9 4/3/9 12/3/9
f 15/2/10 17/1/10 18/4/10
f 19/11/11 22/10/11 21/1/11
f 16/8/12 19/8/12 20/2/12
f 22/5/13 18/4/13 17/1/13
f 1/6/14 3/6/14 19/8/14
f 17/1/1 20/2/1 21/1/1
f 2/3/2 22/5/2 4/3/2
f 3/6/3 7/7/3 19/8/3
f 2/3/4 16/8/4 18/4/4
f 4/3/3 8/9/3 6/3/3
f 22/10/3 7/7/3 8/9/3
f 4/3/15 14/3/15 12/3/15
f 1/6/6 10/3/6 9/6/6
f 1/6/16 11/6/16 3/6/16
f 3/6/17 13/6/17 5/6/17
f 2/3/18 12/3/18 10/3/18
f 15/2/10 18/4/10 16/8/10
f 19/11/11 21/1/11 20/2/11
f 16/8/12 20/2/12 15/2/12
f 22/5/13 17/1/13 21/1/13
f 1/6/14 19/8/14 16/8/14
f 39/1/19 42/2/19 37/2/19
f 24/3/20 44/5/20 40/4/20
f 25/6/21 29/7/21 27/6/21
f 24/3/22 38/8/22 23/6/22
f 26/3/23 30/9/23 44/4/23
f 44/10/24 29/7/24 41/11/24
f 26/3/25 36/3/25 28/3/25
f 23/6/26 32/3/26 24/3/26
f 23/6/27 33/6/27 31/6/27
f 25/6/28 35/6/28 33/6/28
f 24/3/29 34/3/29 26/3/29
f 37/2/30 40/4/30 39/1/30
f 41/11/31 43/1/31 44/10/31
f 38/8/32 42/2/32 41/8/32
f 44/5/33 39/1/33 40/4/33
f 23/6/34 41/8/34 25/6/34
f 39/1/19 43/1/19 42/2/19
f 24/3/35 26/3/35 44/5/35
f 25/6/36 41/8/36 29/7/36
f 24/3/22 40/4/22 38/8/22
f 26/3/37 28/3/37 30/9/37
f 44/10/24 30/9/24 29/7/24
f 26/3/38 34/3/38 36/3/38
f 23/6/26 31/6/26 32/3/26
f 23/6/39 25/6/39 33/6/39
f 25/6/40 27/6/40 35/6/40
f 24/3/41 32/3/41 34/3/41
f 37/2/30 38/8/30 40/4/30
f 41/11/31 42/2/31 43/1/31
f 38/8/32 37/2/32 42/2/32
f 44/5/33 43/1/33 39/1/33
f 23/6/42 38/8/42 41/8/42
f 5/6/43 29/7/43 7/7/43
f 6/3/44 36/3/44 14/3/44
f 11/6/45 31/6/45 33/6/45
f 13/6/46 33/6/46 35/6/46
f 6/3/47 30/9/47 28/3/47
f 7/7/19 30/9/19 8/9/19
f 14/3/48 34/3/48 12/3/48
f 9/6/49 32/3/49 31/6/49
f 5/6/50 35/6/50 27/6/50
f 12/3/51 32/3/51 10/3/51
f 5/6/52 27/6/52 29/7/52
f 6/3/53 28/3/53 36/3/53
f 11/6/54 9/6/54 31/6/54
f 13/6/55 11/6/55 33/6/55
f 6/3/56 8/9/56 30/9/56
f 7/7/19 29/7/19 30/9/19
f 14/3/57 36/3/57 34/3/57
f 9/6/49 10/3/49 32/3/49
f 5/6/58 13/6/58 35/6/58
f 12/3/59 34/3/59 32/3/59
