# Blender 4.4.0
# www.blender.org
mtllib weapon.mtl
o 円柱.007
v 0.383711 3.527415 -0.057742
v 0.383711 4.031830 -0.057742
v 0.443640 3.527415 -0.014201
v 0.443640 4.031830 -0.014201
v 0.420749 3.527415 0.056249
v 0.420749 4.031830 0.056249
v 0.346673 3.527415 0.056249
v 0.346673 4.031830 0.056249
v 0.323782 3.527415 -0.014201
v 0.323782 4.031830 -0.014201
v 0.467070 4.031830 -0.021814
v 0.383711 4.031830 -0.082378
v 0.435230 4.031830 0.076180
v 0.332192 4.031830 0.076180
v 0.300352 4.031830 -0.021814
v 0.383711 4.226884 0.005271
v 0.350163 3.468688 -0.057742
v 0.394269 3.428116 -0.014201
v 0.377422 3.443614 0.056249
v 0.322903 3.493763 0.056249
v 0.306056 3.509260 -0.014201
v 0.274850 3.446561 -0.057742
v 0.274857 3.386632 -0.014201
v 0.274855 3.409523 0.056249
v 0.274846 3.483599 0.056249
v 0.274843 3.506489 -0.014201
v 0.006048 3.446539 -0.045110
v 0.006053 3.398623 -0.010298
v 0.006051 3.416925 0.046030
v 0.006044 3.476152 0.046030
v 0.006042 3.494454 -0.010298
v 0.003275 0.003207 -0.034632
v 0.003275 3.243543 -0.034632
v 0.041225 0.003207 -0.007060
v 0.041225 3.243543 -0.007060
v 0.026730 0.003207 0.037553
v 0.026730 3.243543 0.037553
v -0.020179 0.003207 0.037553
v -0.020179 3.243543 0.037553
v -0.034675 0.003207 -0.007060
v -0.034675 3.243543 -0.007060
v 0.003246 3.208570 -0.057742
v 0.003246 4.302003 -0.057742
v 0.063175 3.208570 -0.014201
v 0.063175 4.302003 -0.014201
v 0.040284 3.208570 0.056249
v 0.040284 4.302003 0.056249
v -0.033792 3.208570 0.056249
v -0.033792 4.302003 0.056249
v -0.056683 3.208570 -0.014201
v -0.056683 4.302003 -0.014201
v 0.086605 4.302003 -0.021814
v 0.003246 4.302003 -0.082378
v 0.054765 4.302003 0.076180
v -0.048273 4.302003 0.076180
v -0.080113 4.302003 -0.021814
v 0.003246 4.457202 0.005271
v -0.374982 3.527415 -0.057742
v -0.374982 4.031830 -0.057742
v -0.434911 3.527415 -0.014201
v -0.434911 4.031830 -0.014201
v -0.412020 3.527415 0.056249
v -0.412020 4.031830 0.056249
v -0.337944 3.527415 0.056249
v -0.337944 4.031830 0.056249
v -0.315053 3.527415 -0.014201
v -0.315053 4.031830 -0.014201
v -0.458341 4.031830 -0.021814
v -0.374982 4.031830 -0.082378
v -0.426501 4.031830 0.076180
v -0.323463 4.031830 0.076180
v -0.291622 4.031830 -0.021814
v -0.374982 4.226884 0.005271
v -0.341433 3.468688 -0.057742
v -0.385540 3.428116 -0.014201
v -0.368693 3.443614 0.056249
v -0.314174 3.493763 0.056249
v -0.297327 3.509260 -0.014201
v -0.266121 3.446561 -0.057742
v -0.266128 3.386632 -0.014201
v -0.266125 3.409523 0.056249
v -0.266117 3.483599 0.056249
v -0.266114 3.506489 -0.014201
v 0.002682 3.446539 -0.044708
v 0.002676 3.399007 -0.010173
v 0.002678 3.417162 0.045704
v 0.002685 3.475915 0.045704
v 0.002687 3.494071 -0.010173
vn 0.5878 -0.0000 -0.8090
vn 0.9511 -0.0000 0.3090
vn -0.0000 -0.0000 1.0000
vn -0.0000 -1.0000 -0.0000
vn -0.9511 -0.0000 0.3090
vn -0.5878 -0.0000 -0.8090
vn -0.7156 0.6337 0.2938
vn -0.7677 0.5819 0.2684
vn -0.7895 0.5576 0.2565
vn -0.8938 0.3417 0.2904
vn 0.8938 0.3417 0.2904
vn -0.5524 0.3417 -0.7603
vn -0.0000 0.3417 0.9398
vn 0.5524 0.3417 -0.7603
vn 0.1963 -0.5941 -0.7800
vn 0.1883 -0.5896 -0.7855
vn 0.1702 -0.5792 -0.7972
vn 0.8553 -0.4315 0.2867
vn 0.8529 -0.4337 0.2908
vn 0.8598 -0.4275 0.2794
vn -0.4800 0.3730 -0.7940
vn -0.5260 0.3413 -0.7790
vn -0.4207 0.4107 -0.8089
vn 0.5476 -0.2865 -0.7861
vn 0.5422 -0.2884 -0.7892
vn 0.5189 -0.2964 -0.8018
vn -0.0379 -0.9504 0.3088
vn -0.1258 0.9488 0.2899
vn -0.1699 0.9478 0.2700
vn -0.2000 0.9458 0.2559
vn 0.3109 -0.9078 0.2817
vn 0.3068 -0.9074 0.2872
vn 0.3155 -0.9081 0.2752
vn -0.1155 0.6047 -0.7880
vn -0.1449 0.6120 -0.7774
vn -0.0521 0.5870 -0.8079
vn -0.0380 0.5874 -0.8084
vn -0.0380 -0.0000 0.9993
vn -0.0379 -0.5874 -0.8084
vn -0.0381 0.9504 0.3088
vn -0.8650 0.4156 0.2811
vn 0.8650 0.4156 0.2811
vn -0.5346 0.4156 -0.7358
vn -0.0000 0.4156 0.9096
vn 0.5346 0.4156 -0.7358
vn 0.5878 -0.0000 0.8090
vn 0.9511 -0.0000 -0.3090
vn -0.0000 -0.0000 -1.0000
vn -0.0000 1.0000 -0.0000
vn -0.9511 -0.0000 -0.3090
vn -0.5878 -0.0000 0.8090
vn -0.7156 -0.6337 -0.2938
vn -0.7677 -0.5819 -0.2684
vn -0.7895 -0.5576 -0.2565
vn -0.8938 -0.3417 -0.2904
vn 0.8938 -0.3417 -0.2904
vn -0.5524 -0.3417 0.7603
vn -0.0000 -0.3417 -0.9398
vn 0.5524 -0.3417 0.7603
vn 0.1964 0.5941 0.7801
vn 0.1883 0.5896 0.7855
vn 0.1702 0.5792 0.7972
vn 0.8553 0.4315 -0.2867
vn 0.8529 0.4337 -0.2908
vn 0.8598 0.4275 -0.2794
vn -0.4800 -0.3730 0.7940
vn -0.5260 -0.3413 0.7790
vn -0.4207 -0.4107 0.8089
vn 0.5476 0.2865 0.7861
vn 0.5422 0.2884 0.7892
vn 0.5189 0.2964 0.8018
vn -0.0391 0.9503 -0.3088
vn -0.1258 -0.9488 -0.2899
vn -0.1699 -0.9478 -0.2700
vn -0.2000 -0.9458 -0.2559
vn 0.3109 0.9078 -0.2817
vn 0.3068 0.9074 -0.2872
vn 0.3155 0.9081 -0.2752
vn -0.1155 -0.6047 0.7880
vn -0.1449 -0.6120 0.7774
vn -0.0521 -0.5870 0.8079
vn -0.0392 -0.5873 0.8084
vn -0.0392 -0.0000 -0.9992
vn -0.0392 0.5873 0.8084
vn -0.0391 0.5874 0.8084
vn -0.0393 -0.9503 -0.3088
vn -0.6805 0.6644 0.3089
vn 0.2088 -0.6010 -0.7715
vn 0.8476 -0.4382 0.2991
vn -0.5572 0.3183 -0.7669
vn 0.5642 -0.2805 -0.7765
vn -0.0841 0.9477 0.3079
vn 0.3014 -0.9068 0.2947
vn -0.1823 0.6204 -0.7628
vn -0.6805 -0.6644 -0.3089
vn 0.2088 0.6010 0.7715
vn 0.8476 0.4382 -0.2991
vn -0.5572 -0.3183 0.7669
vn 0.5642 0.2805 0.7765
vn -0.0841 -0.9477 -0.3079
vn 0.3014 0.9068 -0.2947
vn -0.1823 -0.6204 0.7628
vt 0.555348 0.675478
vt 0.537330 0.538948
vt 0.557085 0.533254
vt 0.533029 0.674978
vt 0.519141 0.536840
vt 0.511338 0.674100
vt 0.498797 0.527233
vt 0.254514 0.694329
vt 0.235884 0.710706
vt 0.252434 0.687927
vt 0.491685 0.673258
vt 0.474560 0.520859
vt 0.472772 0.672832
vt 0.452592 0.528690
vt 0.500718 0.513967
vt 0.698935 0.064047
vt 0.719918 0.082823
vt 0.671608 0.115700
vt 0.273766 0.720827
vt 0.252435 0.733485
vt 0.254515 0.727082
vt 0.273766 0.700585
vt 0.279213 0.696627
vt 0.273766 0.700585
vt 0.279213 0.724784
vt 0.242617 0.710706
vt 0.729685 0.109231
vt 0.725968 0.137141
vt 0.671608 0.057264
vt 0.709630 0.160073
vt 0.553503 0.513231
vt 0.534327 0.490359
vt 0.552394 0.491669
vt 0.535860 0.516121
vt 0.451624 0.512524
vt 0.475013 0.512074
vt 0.520627 0.515582
vt 0.517361 0.492788
vt 0.527728 0.425347
vt 0.498760 0.499116
vt 0.455987 0.494553
vt 0.476249 0.501111
vt 0.465952 0.425087
vt 0.481490 0.426717
vt 0.512217 0.426688
vt 0.542754 0.423639
vt 0.497096 0.427296
vt 0.121357 0.942736
vt 0.108538 0.057264
vt 0.121357 0.057264
vt 0.108538 0.942736
vt 0.095720 0.057264
vt 0.095720 0.942736
vt 0.082901 0.057264
vt 0.082901 0.942736
vt 0.070083 0.057264
vt 0.070082 0.942736
vt 0.057264 0.057264
vt 0.683804 0.815873
vt 0.671613 0.799094
vt 0.683804 0.795132
vt 0.337097 0.356061
vt 0.316854 0.057264
vt 0.337097 0.057264
vt 0.316854 0.356061
vt 0.296612 0.057264
vt 0.296612 0.356061
vt 0.276369 0.057264
vt 0.690243 0.674202
vt 0.714941 0.671904
vt 0.688162 0.680605
vt 0.276369 0.356061
vt 0.256127 0.057264
vt 0.256127 0.356061
vt 0.235885 0.057264
vt 0.690860 0.274601
vt 0.690860 0.307354
vt 0.671608 0.301099
vt 0.687195 0.509609
vt 0.671612 0.486157
vt 0.718240 0.472079
vt 0.690243 0.641449
vt 0.714941 0.643747
vt 0.709494 0.647704
vt 0.678344 0.657826
vt 0.671612 0.657826
vt 0.678344 0.657825
vt 0.688162 0.635046
vt 0.709494 0.667947
vt 0.671612 0.458000
vt 0.687195 0.434549
vt 0.713152 0.520519
vt 0.713152 0.423639
vt 0.555366 0.309111
vt 0.537322 0.172564
vt 0.557080 0.166857
vt 0.533042 0.308613
vt 0.519131 0.170465
vt 0.511348 0.307739
vt 0.498787 0.160866
vt 0.489507 0.822906
vt 0.494953 0.798707
vt 0.494953 0.826864
vt 0.491692 0.306899
vt 0.474551 0.154489
vt 0.472775 0.306474
vt 0.452581 0.162309
vt 0.500705 0.147605
vt 0.266634 0.566616
vt 0.245651 0.547840
vt 0.293961 0.514963
vt 0.458357 0.812785
vt 0.468174 0.790006
vt 0.470255 0.796409
vt 0.468174 0.835564
vt 0.470255 0.829162
vt 0.451624 0.812785
vt 0.489506 0.802664
vt 0.235885 0.521431
vt 0.239602 0.493521
vt 0.293961 0.573399
vt 0.255939 0.470589
vt 0.553481 0.146828
vt 0.534270 0.123991
vt 0.552335 0.125260
vt 0.535835 0.149736
vt 0.451624 0.146136
vt 0.475008 0.145706
vt 0.520605 0.149211
vt 0.517324 0.126440
vt 0.527501 0.059010
vt 0.498747 0.132766
vt 0.456010 0.128163
vt 0.476252 0.134746
vt 0.466209 0.058728
vt 0.481625 0.060385
vt 0.512116 0.060370
vt 0.542402 0.057264
vt 0.497113 0.060978
vt 0.451624 0.672690
vt 0.279213 0.696627
vt 0.057264 0.942736
vt 0.691338 0.805503
vt 0.671613 0.811912
vt 0.235885 0.356061
vt 0.671608 0.280856
vt 0.702758 0.290978
vt 0.671612 0.657825
vt 0.451624 0.306334
vt 0.468174 0.835564
s 1
usemtl Material
f 2/1/1 3/2/1 1/3/1
f 4/4/2 5/5/2 3/2/2
f 6/6/3 7/7/3 5/5/3
f 10/8/4 14/9/4 15/10/4
f 8/11/5 9/12/5 7/7/5
f 10/13/6 1/14/6 9/12/6
f 9/12/7 20/15/8 7/7/9
f 15/16/10 14/17/10 16/18/10
f 4/19/4 13/20/4 6/21/4
f 2/22/4 15/10/4 12/23/4
f 2/24/4 11/25/4 4/19/4
f 8/26/4 13/20/4 14/9/4
f 13/27/11 11/28/11 16/18/11
f 12/29/12 15/16/12 16/18/12
f 14/17/13 13/27/13 16/18/13
f 11/28/14 12/30/14 16/18/14
f 17/31/15 23/32/16 22/33/17
f 5/5/18 18/34/19 3/2/20
f 9/12/21 17/35/22 21/36/23
f 1/3/24 18/34/25 17/31/26
f 7/7/3 19/37/3 5/5/3
f 24/38/27 28/39/27 23/32/27
f 21/36/28 25/40/29 20/15/30
f 19/37/31 23/32/32 18/34/33
f 21/36/34 22/41/35 26/42/36
f 20/15/3 24/38/3 19/37/3
f 26/42/37 27/43/37 31/44/37
f 25/40/38 29/45/38 24/38/38
f 22/33/39 28/39/39 27/46/39
f 26/42/40 30/47/40 25/40/40
f 33/48/1 34/49/1 32/50/1
f 35/51/2 36/52/2 34/49/2
f 37/53/3 38/54/3 36/52/3
f 39/55/5 40/56/5 38/54/5
f 41/57/6 32/58/6 40/56/6
f 34/59/4 38/60/4 40/61/4
f 43/62/1 44/63/1 42/64/1
f 45/65/2 46/66/2 44/63/2
f 47/67/3 48/68/3 46/66/3
f 51/69/4 55/70/4 56/71/4
f 49/72/5 50/73/5 48/68/5
f 51/74/6 42/75/6 50/73/6
f 44/76/4 48/77/4 50/78/4
f 56/79/41 55/80/41 57/81/41
f 45/82/4 54/83/4 47/84/4
f 43/85/4 56/71/4 53/86/4
f 43/87/4 52/88/4 45/82/4
f 47/84/4 55/70/4 49/89/4
f 54/90/42 52/91/42 57/81/42
f 53/92/43 56/79/43 57/81/43
f 55/80/44 54/90/44 57/81/44
f 52/91/45 53/93/45 57/81/45
f 59/94/46 60/95/46 58/96/46
f 61/97/47 62/98/47 60/95/47
f 63/99/48 64/100/48 62/98/48
f 67/101/49 71/102/49 72/103/49
f 65/104/50 66/105/50 64/100/50
f 67/106/51 58/107/51 66/105/51
f 66/105/52 77/108/53 64/100/54
f 72/109/55 71/110/55 73/111/55
f 61/112/49 70/113/49 63/114/49
f 67/101/49 69/115/49 59/116/49
f 59/116/49 68/117/49 61/112/49
f 63/114/49 71/102/49 65/118/49
f 70/119/56 68/120/56 73/111/56
f 69/121/57 72/109/57 73/111/57
f 71/110/58 70/119/58 73/111/58
f 68/120/59 69/122/59 73/111/59
f 74/123/60 80/124/61 79/125/62
f 62/98/63 75/126/64 60/95/65
f 66/105/66 74/127/67 78/128/68
f 58/96/69 75/126/70 74/123/71
f 64/100/48 76/129/48 62/98/48
f 81/130/72 85/131/72 80/124/72
f 78/128/73 82/132/74 77/108/75
f 76/129/76 80/124/77 75/126/78
f 78/128/79 79/133/80 83/134/81
f 77/108/48 81/130/48 76/129/48
f 83/134/82 84/135/82 88/136/82
f 82/132/83 86/137/83 81/130/83
f 79/125/84 85/131/84 84/138/85
f 83/134/86 87/139/86 82/132/86
f 2/1/1 4/4/1 3/2/1
f 4/4/2 6/6/2 5/5/2
f 6/6/3 8/11/3 7/7/3
f 10/8/4 8/26/4 14/9/4
f 8/11/5 10/13/5 9/12/5
f 10/13/6 2/140/6 1/14/6
f 9/12/7 21/36/87 20/15/8
f 4/19/4 11/25/4 13/20/4
f 2/22/4 10/8/4 15/10/4
f 2/24/4 12/141/4 11/25/4
f 8/26/4 6/21/4 13/20/4
f 17/31/15 18/34/88 23/32/16
f 5/5/18 19/37/89 18/34/19
f 9/12/21 1/14/90 17/35/22
f 1/3/24 3/2/91 18/34/25
f 7/7/3 20/15/3 19/37/3
f 24/38/27 29/45/27 28/39/27
f 21/36/28 26/42/92 25/40/29
f 19/37/31 24/38/93 23/32/32
f 21/36/34 17/35/94 22/41/35
f 20/15/3 25/40/3 24/38/3
f 26/42/37 22/41/37 27/43/37
f 25/40/38 30/47/38 29/45/38
f 22/33/39 23/32/39 28/39/39
f 26/42/40 31/44/40 30/47/40
f 33/48/1 35/51/1 34/49/1
f 35/51/2 37/53/2 36/52/2
f 37/53/3 39/55/3 38/54/3
f 39/55/5 41/57/5 40/56/5
f 41/57/6 33/142/6 32/58/6
f 40/61/4 32/143/4 34/59/4
f 34/59/4 36/144/4 38/60/4
f 43/62/1 45/65/1 44/63/1
f 45/65/2 47/67/2 46/66/2
f 47/67/3 49/72/3 48/68/3
f 51/69/4 49/89/4 55/70/4
f 49/72/5 51/74/5 50/73/5
f 51/74/6 43/145/6 42/75/6
f 50/78/4 42/146/4 44/76/4
f 44/76/4 46/147/4 48/77/4
f 45/82/4 52/88/4 54/83/4
f 43/85/4 51/69/4 56/71/4
f 43/87/4 53/148/4 52/88/4
f 47/84/4 54/83/4 55/70/4
f 59/94/46 61/97/46 60/95/46
f 61/97/47 63/99/47 62/98/47
f 63/99/48 65/104/48 64/100/48
f 67/101/49 65/118/49 71/102/49
f 65/104/50 67/106/50 66/105/50
f 67/106/51 59/149/51 58/107/51
f 66/105/52 78/128/95 77/108/53
f 61/112/49 68/117/49 70/113/49
f 67/101/49 72/103/49 69/115/49
f 59/116/49 69/150/49 68/117/49
f 63/114/49 70/113/49 71/102/49
f 74/123/60 75/126/96 80/124/61
f 62/98/63 76/129/97 75/126/64
f 66/105/66 58/107/98 74/127/67
f 58/96/69 60/95/99 75/126/70
f 64/100/48 77/108/48 76/129/48
f 81/130/72 86/137/72 85/131/72
f 78/128/73 83/134/100 82/132/74
f 76/129/76 81/130/101 80/124/77
f 78/128/79 74/127/102 79/133/80
f 77/108/48 82/132/48 81/130/48
f 83/134/82 79/133/82 84/135/82
f 82/132/83 87/139/83 86/137/83
f 79/125/84 80/124/84 85/131/84
f 83/134/86 88/136/86 87/139/86
