# Blender 4.4.0
# www.blender.org
mtllib body.mtl
o 円柱.009
v 0.000000 -0.529309 -0.955896
v 0.000000 0.869688 -0.467469
v 0.809023 -0.996485 -0.809023
v 0.330551 0.869688 -0.330551
v 0.955896 -0.529309 0.000000
v 0.467469 0.869688 -0.000000
v 0.809023 -0.996485 0.809023
v 0.330551 0.869688 0.330551
v 0.000000 -0.529309 0.955896
v 0.000000 0.869688 0.467469
v -0.809023 -0.996485 0.809023
v -0.330551 0.869688 0.330551
v -0.955896 -0.529309 0.000000
v -0.467469 0.869688 -0.000000
v -0.809023 -0.996485 -0.809023
v -0.330551 0.869688 -0.330551
v 0.000000 0.206839 -0.490245
v 0.346655 0.206839 -0.346655
v 0.490245 0.206839 -0.000000
v 0.346655 0.206839 0.346655
v 0.000000 0.206839 0.490245
v -0.346655 0.206839 0.346655
v -0.490245 0.206839 -0.000000
v -0.346655 0.206839 -0.346655
v 0.395283 0.003060 -0.395283
v 0.559015 0.003060 -0.000000
v 0.395283 0.003060 0.395283
v 0.000000 0.003060 0.559015
v -0.395283 0.003060 0.395283
v -0.559015 0.003060 -0.000000
v -0.395283 0.003060 -0.395283
v 0.000000 0.003060 -0.559015
v 0.453359 -0.179424 -0.453359
v 0.641147 -0.179424 0.000000
v 0.453359 -0.179424 0.453359
v 0.000000 -0.179424 0.641147
v -0.453359 -0.179424 0.453359
v -0.641147 -0.179424 0.000000
v -0.453359 -0.179424 -0.453359
v 0.000000 -0.179424 -0.641147
v 0.000000 -0.411801 -0.348997
v 0.246779 -0.411801 -0.246779
v 0.348997 -0.411801 0.000000
v 0.246779 -0.411801 0.246779
v 0.000000 -0.411801 0.348997
v -0.246779 -0.411801 0.246779
v -0.348997 -0.411801 0.000000
v -0.246779 -0.411801 -0.246779
v 0.003887 -0.102168 -1.645345
v 0.047340 -0.089961 -1.632118
v 0.065339 -0.060491 -1.600185
v 0.047340 -0.031021 -1.568252
v 0.003887 -0.018814 -1.555025
v -0.039567 -0.031021 -1.568252
v -0.057566 -0.060491 -1.600185
v -0.039567 -0.089961 -1.632118
v 0.003887 -0.211034 -0.430254
v 0.003887 -0.314185 -0.690517
v 0.003887 -0.358851 -0.956521
v 0.003887 -0.339264 -1.215370
v 0.003887 -0.252985 -1.451096
v 0.047340 -0.238729 -1.440108
v 0.047340 -0.323444 -1.206785
v 0.047340 -0.341927 -0.950395
v 0.047340 -0.296569 -0.686820
v 0.047340 -0.193086 -0.428890
v 0.065339 -0.204311 -1.413581
v 0.065339 -0.285253 -1.186057
v 0.065339 -0.301068 -0.935604
v 0.065339 -0.254042 -0.677895
v 0.065339 -0.149758 -0.425597
v 0.047340 -0.169894 -1.387055
v 0.047340 -0.247062 -1.165329
v 0.047340 -0.260209 -0.920813
v 0.047340 -0.211515 -0.668971
v 0.047340 -0.106429 -0.422304
v 0.003887 -0.155638 -1.376068
v 0.003887 -0.231243 -1.156743
v 0.003887 -0.243285 -0.914687
v 0.003887 -0.193900 -0.665274
v 0.003887 -0.088482 -0.420940
v -0.039567 -0.169894 -1.387055
v -0.039567 -0.247062 -1.165329
v -0.039567 -0.260209 -0.920813
v -0.039567 -0.211515 -0.668971
v -0.039567 -0.106429 -0.422304
v -0.057566 -0.204311 -1.413581
v -0.057566 -0.285253 -1.186057
v -0.057566 -0.301068 -0.935604
v -0.057566 -0.254042 -0.677895
v -0.057566 -0.149758 -0.425597
v -0.039567 -0.238729 -1.440108
v -0.039567 -0.323444 -1.206785
v -0.039567 -0.341927 -0.950395
v -0.039567 -0.296569 -0.686820
v -0.039567 -0.193086 -0.428890
v 0.138263 -0.151625 -1.698935
v 0.003887 -0.189375 -1.739838
v 0.193924 -0.060491 -1.600185
v 0.138263 0.030644 -1.501434
v 0.003887 0.068393 -1.460530
v -0.130490 0.030644 -1.501434
v -0.186151 -0.060491 -1.600185
v -0.130490 -0.151625 -1.698935
v 0.003887 0.238374 -1.876001
vn 0.3825 0.0317 -0.9234
vn 0.9234 0.0317 -0.3825
vn 0.9234 0.0317 0.3825
vn 0.3825 0.0317 0.9234
vn -0.3825 0.0317 0.9234
vn -0.9234 0.0317 0.3825
vn -0.0000 1.0000 -0.0000
vn -0.9234 0.0317 -0.3825
vn -0.3825 0.0317 -0.9234
vn -0.2917 -0.8535 0.4319
vn -0.2669 -0.9028 0.3371
vn -0.3120 -0.7971 0.5170
vn -0.3653 0.2977 -0.8820
vn -0.8820 0.2977 -0.3653
vn -0.8820 0.2977 0.3653
vn -0.3653 0.2977 0.8820
vn 0.3653 0.2977 0.8820
vn 0.8820 0.2977 0.3653
vn 0.8820 0.2977 -0.3653
vn 0.3653 0.2977 -0.8820
vn 0.3534 0.3839 -0.8531
vn 0.8531 0.3839 -0.3534
vn 0.8531 0.3839 0.3534
vn 0.3534 0.3839 0.8531
vn -0.3534 0.3839 0.8531
vn -0.8531 0.3839 0.3534
vn -0.8531 0.3839 -0.3534
vn -0.3534 0.3839 -0.8531
vn -0.3830 0.5594 -0.7351
vn -0.3824 0.5601 -0.7349
vn -0.4303 0.5112 -0.7440
vn -0.7349 0.5601 -0.3824
vn -0.7351 0.5594 -0.3830
vn -0.7440 0.5112 -0.4303
vn -0.7351 0.5594 0.3830
vn -0.7349 0.5601 0.3824
vn -0.7440 0.5112 0.4303
vn -0.3824 0.5601 0.7349
vn -0.3830 0.5594 0.7351
vn -0.4303 0.5112 0.7440
vn 0.3830 0.5594 0.7351
vn 0.3824 0.5601 0.7349
vn 0.4303 0.5112 0.7440
vn 0.7349 0.5601 0.3824
vn 0.7351 0.5594 0.3830
vn 0.7440 0.5112 0.4303
vn 0.7351 0.5594 -0.3830
vn 0.7349 0.5601 -0.3824
vn 0.7440 0.5112 -0.4303
vn 0.3824 0.5601 -0.7349
vn 0.3830 0.5594 -0.7351
vn 0.4303 0.5112 -0.7440
vn -0.0000 -1.0000 -0.0000
vn 0.4319 -0.8535 -0.2917
vn 0.3371 -0.9028 -0.2669
vn 0.0785 -0.9787 -0.1895
vn 0.4319 -0.8535 0.2917
vn 0.3371 -0.9028 0.2669
vn 0.5170 -0.7971 0.3120
vn -0.4319 -0.8535 0.2917
vn -0.3371 -0.9028 0.2669
vn -0.0785 -0.9787 0.1895
vn -0.2917 -0.8535 -0.4319
vn -0.2669 -0.9028 -0.3371
vn -0.1895 -0.9787 -0.0785
vn 0.2917 -0.8535 -0.4319
vn 0.2669 -0.9028 -0.3371
vn 0.3120 -0.7971 -0.5170
vn -0.4319 -0.8535 -0.2917
vn -0.3371 -0.9028 -0.2669
vn -0.5170 -0.7971 -0.3120
vn 0.2917 -0.8535 0.4319
vn 0.2669 -0.9028 0.3371
vn 0.1895 -0.9787 0.0785
vn 0.3821 -0.7304 -0.5661
vn 0.3787 -0.7311 -0.5675
vn 0.3827 -0.7303 -0.5658
vn 0.9236 -0.3035 -0.2340
vn 0.9222 -0.3058 -0.2368
vn 0.9239 -0.3031 -0.2336
vn 0.9236 0.3041 0.2333
vn 0.9222 0.3065 0.2360
vn 0.9239 0.3037 0.2328
vn 0.3820 0.7341 0.5614
vn 0.3785 0.7347 0.5629
vn 0.3827 0.7339 0.5611
vn -0.3785 0.7347 0.5629
vn -0.3820 0.7341 0.5614
vn -0.3827 0.7339 0.5611
vn -0.9222 0.3065 0.2360
vn -0.9236 0.3041 0.2333
vn -0.9239 0.3037 0.2328
vn -0.0000 -0.7349 0.6782
vn -0.9222 -0.3058 -0.2368
vn -0.9236 -0.3035 -0.2340
vn -0.9239 -0.3031 -0.2336
vn -0.3787 -0.7311 -0.5675
vn -0.3821 -0.7304 -0.5661
vn -0.3827 -0.7303 -0.5658
vn -0.3287 -0.8779 0.3483
vn -0.3463 -0.8708 0.3490
vn -0.3484 -0.8700 0.3490
vn -0.3414 -0.9269 0.1560
vn -0.3573 -0.9205 0.1580
vn -0.3594 -0.9197 0.1583
vn -0.3553 -0.9321 -0.0702
vn -0.3685 -0.9272 -0.0672
vn -0.3703 -0.9265 -0.0668
vn -0.3687 -0.8730 -0.3192
vn -0.3777 -0.8702 -0.3163
vn -0.3791 -0.8698 -0.3158
vn -0.8961 -0.4118 0.1656
vn -0.9062 -0.3910 0.1612
vn -0.9071 -0.3890 0.1608
vn -0.9036 -0.4221 0.0730
vn -0.9120 -0.4037 0.0733
vn -0.9128 -0.4017 0.0733
vn -0.9111 -0.4112 -0.0293
vn -0.9174 -0.3971 -0.0254
vn -0.9182 -0.3954 -0.0250
vn -0.9176 -0.3736 -0.1354
vn -0.9217 -0.3655 -0.1303
vn -0.9222 -0.3643 -0.1296
vn -0.8949 0.4123 -0.1708
vn -0.9052 0.3911 -0.1662
vn -0.9062 0.3890 -0.1657
vn -0.9027 0.4233 -0.0776
vn -0.9113 0.4044 -0.0778
vn -0.9122 0.4024 -0.0778
vn -0.9105 0.4128 0.0257
vn -0.9170 0.3984 0.0218
vn -0.9178 0.3966 0.0213
vn -0.9174 0.3751 0.1331
vn -0.9215 0.3667 0.1280
vn -0.9221 0.3655 0.1272
vn -0.3238 0.8703 -0.3712
vn -0.3421 0.8630 -0.3719
vn -0.3444 0.8620 -0.3719
vn -0.3373 0.9242 -0.1791
vn -0.3539 0.9176 -0.1812
vn -0.3561 0.9166 -0.1815
vn -0.3524 0.9345 0.0498
vn -0.3661 0.9294 0.0467
vn -0.3682 0.9286 0.0462
vn -0.3672 0.8786 0.3054
vn -0.3767 0.8757 0.3022
vn -0.3782 0.8752 0.3017
vn 0.3421 0.8630 -0.3719
vn 0.3238 0.8703 -0.3712
vn 0.3444 0.8620 -0.3719
vn 0.3539 0.9176 -0.1812
vn 0.3373 0.9242 -0.1791
vn 0.3561 0.9166 -0.1815
vn 0.3661 0.9294 0.0467
vn 0.3524 0.9345 0.0498
vn 0.3682 0.9286 0.0462
vn 0.3767 0.8757 0.3022
vn 0.3672 0.8786 0.3054
vn 0.3782 0.8752 0.3017
vn 0.9052 0.3911 -0.1662
vn 0.8949 0.4123 -0.1708
vn 0.9062 0.3890 -0.1657
vn 0.9113 0.4044 -0.0778
vn 0.9027 0.4233 -0.0776
vn 0.9122 0.4024 -0.0778
vn 0.9170 0.3984 0.0218
vn 0.9105 0.4128 0.0257
vn 0.9178 0.3966 0.0213
vn 0.9215 0.3667 0.1280
vn 0.9174 0.3751 0.1331
vn 0.9221 0.3655 0.1272
vn 0.9062 -0.3910 0.1612
vn 0.8961 -0.4118 0.1656
vn 0.9071 -0.3890 0.1608
vn 0.9120 -0.4037 0.0733
vn 0.9036 -0.4221 0.0730
vn 0.9128 -0.4017 0.0733
vn 0.9174 -0.3971 -0.0254
vn 0.9111 -0.4112 -0.0293
vn 0.9182 -0.3954 -0.0250
vn 0.9217 -0.3655 -0.1303
vn 0.9176 -0.3736 -0.1354
vn 0.9222 -0.3643 -0.1296
vn 0.3463 -0.8708 0.3490
vn 0.3287 -0.8779 0.3483
vn 0.3484 -0.8700 0.3490
vn 0.3573 -0.9205 0.1580
vn 0.3414 -0.9269 0.1560
vn 0.3594 -0.9197 0.1583
vn 0.3685 -0.9272 -0.0672
vn 0.3553 -0.9321 -0.0702
vn 0.3703 -0.9265 -0.0668
vn 0.3777 -0.8702 -0.3163
vn 0.3687 -0.8730 -0.3192
vn 0.3791 -0.8698 -0.3158
vn -0.8482 0.0530 -0.5270
vn -0.3513 0.8665 0.3545
vn 0.8482 0.5295 -0.0106
vn 0.3513 -0.2840 -0.8921
vn -0.3513 -0.2840 -0.8921
vn -0.8482 0.5296 -0.0106
vn 0.3513 0.8665 0.3545
vn 0.8482 0.0530 -0.5270
vn -0.1895 -0.9787 0.0785
vn -0.2943 0.6392 -0.7105
vn -0.7105 0.6392 -0.2943
vn -0.7105 0.6392 0.2943
vn -0.2943 0.6392 0.7105
vn 0.2943 0.6392 0.7105
vn 0.7105 0.6392 0.2943
vn 0.7105 0.6392 -0.2943
vn 0.2943 0.6392 -0.7105
vn 0.5170 -0.7971 -0.3120
vn 0.0785 -0.9787 0.1895
vn -0.5170 -0.7971 0.3120
vn -0.3120 -0.7971 -0.5170
vn 0.1895 -0.9787 -0.0785
vn -0.0785 -0.9787 -0.1895
vn 0.3120 -0.7971 0.5170
vn 0.3782 -0.7312 -0.5677
vn 0.9220 -0.3061 -0.2372
vn 0.9219 0.3068 0.2365
vn 0.3779 0.7349 0.5632
vn -0.3779 0.7349 0.5632
vn -0.9219 0.3068 0.2365
vn -0.9220 -0.3061 -0.2372
vn -0.3782 -0.7312 -0.5677
vn -0.3266 -0.8787 0.3482
vn -0.3393 -0.9277 0.1558
vn -0.3535 -0.9328 -0.0706
vn -0.3674 -0.8734 -0.3197
vn -0.8952 -0.4137 0.1660
vn -0.9027 -0.4241 0.0730
vn -0.9103 -0.4129 -0.0298
vn -0.9171 -0.3747 -0.1361
vn -0.8939 0.4143 -0.1712
vn -0.9017 0.4253 -0.0776
vn -0.9097 0.4145 0.0262
vn -0.9168 0.3763 0.1339
vn -0.3216 0.8711 -0.3711
vn -0.3351 0.9251 -0.1789
vn -0.3504 0.9352 0.0503
vn -0.3657 0.8790 0.3059
vn 0.3216 0.8711 -0.3711
vn 0.3351 0.9251 -0.1789
vn 0.3504 0.9352 0.0503
vn 0.3657 0.8790 0.3059
vn 0.8939 0.4143 -0.1712
vn 0.9017 0.4253 -0.0776
vn 0.9097 0.4145 0.0262
vn 0.9168 0.3763 0.1339
vn 0.8952 -0.4137 0.1660
vn 0.9027 -0.4241 0.0730
vn 0.9103 -0.4129 -0.0298
vn 0.9171 -0.3747 -0.1361
vn 0.3266 -0.8787 0.3482
vn 0.3393 -0.9277 0.1558
vn 0.3535 -0.9328 -0.0706
vn 0.3674 -0.8734 -0.3197
vt 0.691754 0.815815
vt 0.771079 0.767795
vt 0.775610 0.815186
vt 0.231108 0.621044
vt 0.183634 0.700737
vt 0.184108 0.616181
vt 0.136545 0.620517
vt 0.785958 0.229867
vt 0.738484 0.309560
vt 0.738958 0.225003
vt 0.691395 0.229339
vt 0.462859 0.380605
vt 0.506709 0.465633
vt 0.459069 0.460894
vt 0.852734 0.539659
vt 0.776546 0.571217
vt 0.744987 0.495029
vt 0.505608 0.381379
vt 0.554075 0.461077
vt 0.770372 0.862345
vt 0.314661 0.196747
vt 0.225713 0.164024
vt 0.314661 0.078844
vt 0.803922 0.815051
vt 0.795617 0.869013
vt 0.560231 0.486062
vt 0.506634 0.493932
vt 0.452894 0.485945
vt 0.685317 0.204433
vt 0.738722 0.196662
vt 0.792504 0.204755
vt 0.130466 0.595611
vt 0.183872 0.587840
vt 0.237654 0.595932
vt 0.796036 0.761585
vt 0.819008 0.753981
vt 0.830291 0.815170
vt 0.245263 0.572942
vt 0.183962 0.561523
vt 0.122936 0.572708
vt 0.800113 0.181764
vt 0.738813 0.170346
vt 0.677786 0.181530
vt 0.445310 0.508938
vt 0.506600 0.520287
vt 0.567793 0.509021
vt 0.818704 0.876714
vt 0.890078 0.815284
vt 0.926387 0.926387
vt 0.506569 0.579933
vt 0.617046 0.616227
vt 0.395980 0.616227
vt 0.738901 0.110774
vt 0.628655 0.074531
vt 0.849461 0.074531
vt 0.184051 0.501951
vt 0.073805 0.465708
vt 0.294611 0.465708
vt 0.926387 0.704590
vt 0.224393 0.225657
vt 0.162678 0.224268
vt 0.163997 0.162635
vt 0.191554 0.314661
vt 0.193258 0.237681
vt 0.196836 0.073631
vt 0.078835 0.073681
vt 0.195133 0.150611
vt 0.237681 0.195096
vt 0.073730 0.191545
vt 0.073730 0.309448
vt 0.309556 0.314611
vt 0.150709 0.193196
vt 0.505827 0.790804
vt 0.534766 0.796928
vt 0.505459 0.796184
vt 0.533623 0.802922
vt 0.504570 0.801611
vt 0.532392 0.808776
vt 0.503579 0.807228
vt 0.531695 0.814585
vt 0.503051 0.813078
vt 0.531695 0.767023
vt 0.503579 0.774381
vt 0.503051 0.768530
vt 0.532392 0.772832
vt 0.504570 0.779998
vt 0.490054 0.183225
vt 0.509022 0.185215
vt 0.496193 0.198044
vt 0.533623 0.778687
vt 0.505459 0.785425
vt 0.534766 0.784681
vt 0.415060 0.785042
vt 0.379757 0.790804
vt 0.378744 0.784421
vt 0.447432 0.785233
vt 0.416065 0.790804
vt 0.477259 0.785380
vt 0.448239 0.790804
vt 0.477844 0.790804
vt 0.412532 0.779681
vt 0.376281 0.778565
vt 0.445381 0.779922
vt 0.475777 0.780054
vt 0.409900 0.774208
vt 0.373862 0.772812
vt 0.443213 0.774522
vt 0.474187 0.774610
vt 0.408905 0.768047
vt 0.373000 0.766519
vt 0.442337 0.768571
vt 0.473508 0.768746
vt 0.373862 0.808797
vt 0.408905 0.813562
vt 0.373000 0.815090
vt 0.409900 0.807400
vt 0.442337 0.813037
vt 0.443213 0.807087
vt 0.473508 0.812863
vt 0.474187 0.806998
vt 0.376281 0.803044
vt 0.412532 0.801927
vt 0.445381 0.801686
vt 0.475777 0.801554
vt 0.378744 0.797188
vt 0.415060 0.796567
vt 0.447432 0.796375
vt 0.477259 0.796229
vt 0.153768 0.861993
vt 0.166954 0.874455
vt 0.122407 0.908383
vt 0.480039 0.179076
vt 0.465220 0.167071
vt 0.480039 0.173209
vt 0.494203 0.173209
vt 0.496193 0.154242
vt 0.509022 0.167071
vt 0.478049 0.198044
vt 0.484187 0.183225
vt 0.478049 0.154242
vt 0.484187 0.169061
vt 0.490054 0.169061
vt 0.494203 0.179076
vt 0.465220 0.185215
vt 0.175464 0.890479
vt 0.178403 0.908383
vt 0.086021 0.865821
vt 0.101539 0.856421
vt 0.119249 0.852476
vt 0.137290 0.854401
vt 0.074322 0.879689
vt 0.690026 0.772065
vt 0.227412 0.702155
vt 0.139726 0.701876
vt 0.782262 0.310978
vt 0.694576 0.310699
vt 0.776545 0.463470
vt 0.821176 0.463470
vt 0.852734 0.495029
vt 0.821176 0.571217
vt 0.744987 0.539659
vt 0.549615 0.379551
vt 0.690796 0.858157
vt 0.535209 0.790804
s 1
usemtl Material
f 2/1/1 18/2/1 17/3/1
f 18/4/2 6/5/2 19/6/2
f 6/5/3 20/7/3 19/6/3
f 20/8/4 10/9/4 21/10/4
f 10/9/5 22/11/5 21/10/5
f 12/12/6 23/13/6 22/14/6
f 14/15/7 10/16/7 6/17/7
f 14/18/8 24/19/8 23/13/8
f 24/20/9 2/1/9 17/3/9
f 5/21/10 42/22/11 3/23/12
f 24/20/13 32/24/13 31/25/13
f 23/13/14 31/26/14 30/27/14
f 22/14/15 30/27/15 29/28/15
f 21/10/16 29/29/16 28/30/16
f 20/8/17 28/30/17 27/31/17
f 19/6/18 27/32/18 26/33/18
f 18/4/19 26/33/19 25/34/19
f 17/3/20 25/35/20 32/24/20
f 32/24/21 33/36/21 40/37/21
f 33/38/22 26/33/22 34/39/22
f 26/33/23 35/40/23 34/39/23
f 35/41/24 28/30/24 36/42/24
f 28/30/25 37/43/25 36/42/25
f 37/44/26 30/27/26 38/45/26
f 30/27/27 39/46/27 38/45/27
f 39/47/28 32/24/28 40/37/28
f 39/47/29 1/48/30 15/49/31
f 13/50/32 39/46/33 15/51/34
f 37/44/35 13/50/36 11/52/37
f 9/53/38 37/43/39 11/54/40
f 35/41/41 9/53/42 7/55/43
f 5/56/44 35/40/45 7/57/46
f 33/38/47 5/56/48 3/58/49
f 1/48/50 33/36/51 3/59/52
f 44/60/53 46/61/53 48/62/53
f 9/63/54 46/61/55 45/64/56
f 1/65/57 48/62/58 15/66/59
f 1/65/60 42/22/61 41/67/62
f 5/21/63 44/60/64 43/68/65
f 13/69/66 46/61/67 11/70/68
f 9/63/69 44/60/70 7/71/71
f 13/69/72 48/62/73 47/72/74
f 61/73/75 50/74/76 62/75/77
f 62/75/78 51/76/79 67/77/80
f 67/77/81 52/78/82 72/79/83
f 72/79/84 53/80/85 77/81/86
f 53/82/87 82/83/88 77/84/89
f 54/85/90 87/86/91 82/83/92
f 53/87/93 100/88/93 101/89/93
f 55/90/94 92/91/95 87/86/96
f 56/92/97 61/73/98 92/91/99
f 95/93/100 57/94/101 96/95/102
f 94/96/103 58/97/104 95/93/105
f 93/98/106 59/99/107 94/96/108
f 92/91/109 60/100/110 93/98/111
f 90/101/112 96/95/113 91/102/114
f 89/103/115 95/93/116 90/101/117
f 88/104/118 94/96/119 89/103/120
f 87/86/121 93/98/122 88/104/123
f 85/105/124 91/102/125 86/106/126
f 84/107/127 90/101/128 85/105/129
f 83/108/130 89/103/131 84/107/132
f 82/83/133 88/104/134 83/108/135
f 80/109/136 86/106/137 81/110/138
f 79/111/139 85/105/140 80/109/141
f 78/112/142 84/107/143 79/111/144
f 77/84/145 83/108/146 78/112/147
f 76/113/148 80/114/149 81/115/150
f 75/116/151 79/117/152 80/114/153
f 74/118/154 78/119/155 79/117/156
f 73/120/157 77/81/158 78/119/159
f 71/121/160 75/116/161 76/113/162
f 70/122/163 74/118/164 75/116/165
f 69/123/166 73/120/167 74/118/168
f 68/124/169 72/79/170 73/120/171
f 66/125/172 70/122/173 71/121/174
f 65/126/175 69/123/176 70/122/177
f 64/127/178 68/124/179 69/123/180
f 63/128/181 67/77/182 68/124/183
f 57/94/184 65/126/185 66/125/186
f 58/97/187 64/127/188 65/126/189
f 59/99/190 63/128/191 64/127/192
f 60/100/193 62/75/194 63/128/195
f 104/129/196 103/130/196 105/131/196
f 55/132/93 104/133/93 56/134/93
f 51/135/93 97/136/93 99/137/93
f 53/87/93 102/138/93 54/139/93
f 56/134/93 98/140/93 49/141/93
f 49/141/93 97/136/93 50/142/93
f 52/143/93 99/137/93 100/88/93
f 54/139/93 103/144/93 55/132/93
f 102/145/197 101/146/197 105/131/197
f 100/147/198 99/148/198 105/131/198
f 97/149/199 98/150/199 105/131/199
f 98/150/200 104/129/200 105/131/200
f 103/130/201 102/145/201 105/131/201
f 101/151/202 100/147/202 105/131/202
f 99/148/203 97/149/203 105/131/203
f 2/1/1 4/152/1 18/2/1
f 18/4/2 4/153/2 6/5/2
f 6/5/3 8/154/3 20/7/3
f 20/8/4 8/155/4 10/9/4
f 10/9/5 12/156/5 22/11/5
f 12/12/6 14/18/6 23/13/6
f 6/17/7 4/157/7 2/158/7
f 2/158/7 16/159/7 14/15/7
f 14/15/7 12/160/7 10/16/7
f 10/16/7 8/161/7 6/17/7
f 6/17/7 2/158/7 14/15/7
f 14/18/8 16/162/8 24/19/8
f 24/20/9 16/163/9 2/1/9
f 5/21/10 43/68/204 42/22/11
f 24/20/13 17/3/13 32/24/13
f 23/13/14 24/19/14 31/26/14
f 22/14/15 23/13/15 30/27/15
f 21/10/16 22/11/16 29/29/16
f 20/8/17 21/10/17 28/30/17
f 19/6/18 20/7/18 27/32/18
f 18/4/19 19/6/19 26/33/19
f 17/3/20 18/2/20 25/35/20
f 32/24/21 25/35/21 33/36/21
f 33/38/22 25/34/22 26/33/22
f 26/33/23 27/32/23 35/40/23
f 35/41/24 27/31/24 28/30/24
f 28/30/25 29/29/25 37/43/25
f 37/44/26 29/28/26 30/27/26
f 30/27/27 31/26/27 39/46/27
f 39/47/28 31/25/28 32/24/28
f 39/47/29 40/37/205 1/48/30
f 13/50/32 38/45/206 39/46/33
f 37/44/35 38/45/207 13/50/36
f 9/53/38 36/42/208 37/43/39
f 35/41/41 36/42/209 9/53/42
f 5/56/44 34/39/210 35/40/45
f 33/38/47 34/39/211 5/56/48
f 1/48/50 40/37/212 33/36/51
f 48/62/53 41/67/53 42/22/53
f 42/22/53 43/68/53 44/60/53
f 44/60/53 45/64/53 46/61/53
f 46/61/53 47/72/53 48/62/53
f 48/62/53 42/22/53 44/60/53
f 9/63/54 11/70/213 46/61/55
f 1/65/57 41/67/214 48/62/58
f 1/65/60 3/23/215 42/22/61
f 5/21/63 7/71/216 44/60/64
f 13/69/66 47/72/217 46/61/67
f 9/63/69 45/64/218 44/60/70
f 13/69/72 15/66/219 48/62/73
f 61/73/75 49/164/220 50/74/76
f 62/75/78 50/74/221 51/76/79
f 67/77/81 51/76/222 52/78/82
f 72/79/84 52/78/223 53/80/85
f 53/82/87 54/85/224 82/83/88
f 54/85/90 55/90/225 87/86/91
f 53/87/93 52/143/93 100/88/93
f 55/90/94 56/92/226 92/91/95
f 56/92/97 49/164/227 61/73/98
f 95/93/100 58/97/228 57/94/101
f 94/96/103 59/99/229 58/97/104
f 93/98/106 60/100/230 59/99/107
f 92/91/109 61/73/231 60/100/110
f 90/101/112 95/93/232 96/95/113
f 89/103/115 94/96/233 95/93/116
f 88/104/118 93/98/234 94/96/119
f 87/86/121 92/91/235 93/98/122
f 85/105/124 90/101/236 91/102/125
f 84/107/127 89/103/237 90/101/128
f 83/108/130 88/104/238 89/103/131
f 82/83/133 87/86/239 88/104/134
f 80/109/136 85/105/240 86/106/137
f 79/111/139 84/107/241 85/105/140
f 78/112/142 83/108/242 84/107/143
f 77/84/145 82/83/243 83/108/146
f 76/113/148 75/116/244 80/114/149
f 75/116/151 74/118/245 79/117/152
f 74/118/154 73/120/246 78/119/155
f 73/120/157 72/79/247 77/81/158
f 71/121/160 70/122/248 75/116/161
f 70/122/163 69/123/249 74/118/164
f 69/123/166 68/124/250 73/120/167
f 68/124/169 67/77/251 72/79/170
f 66/125/172 65/126/252 70/122/173
f 65/126/175 64/127/253 69/123/176
f 64/127/178 63/128/254 68/124/179
f 63/128/181 62/75/255 67/77/182
f 57/94/184 58/97/256 65/126/185
f 58/97/187 59/99/257 64/127/188
f 59/99/190 60/100/258 63/128/191
f 60/100/193 61/73/259 62/75/194
f 55/132/93 103/144/93 104/133/93
f 51/135/93 50/142/93 97/136/93
f 53/87/93 101/89/93 102/138/93
f 56/134/93 104/133/93 98/140/93
f 49/141/93 98/140/93 97/136/93
f 52/143/93 51/135/93 99/137/93
f 54/139/93 102/138/93 103/144/93
