# Blender 4.4.0
# www.blender.org
mtllib Enemy.mtl
o 立方体
v 1.449666 -1.195214 -0.064763
v 0.989485 -0.340425 -0.064762
v 1.449666 -1.195214 0.064763
v 0.989485 -0.340425 0.064763
v 0.522626 -0.907067 -0.064762
v 0.289262 -0.269643 -0.064762
v 0.522626 -0.907067 0.064763
v 0.289262 -0.269643 0.064763
v -1.449666 -1.195214 -0.064763
v -0.989485 -0.340425 -0.064762
v -1.449666 -1.195214 0.064763
v -0.989485 -0.340425 0.064763
v -0.522626 -0.907067 -0.064762
v -0.289262 -0.269643 -0.064762
v -0.522626 -0.907067 0.064763
v -0.289262 -0.269643 0.064763
v 1.449666 1.195214 -0.064763
v 0.989485 0.340425 -0.064762
v 1.449666 1.195214 0.064763
v 0.989485 0.340425 0.064763
v 0.522626 0.907067 -0.064762
v 0.289262 0.269643 -0.064762
v 0.522626 0.907067 0.064763
v 0.289262 0.269643 0.064763
v -1.449666 1.195214 -0.064763
v -0.989485 0.340425 -0.064762
v -1.449666 1.195214 0.064763
v -0.989485 0.340425 0.064763
v -0.522626 0.907067 -0.064762
v -0.289262 0.269643 -0.064762
v -0.522626 0.907067 0.064763
v -0.289262 0.269643 0.064763
vn 0.8805 0.4740 -0.0000
vn -0.0000 -0.0000 1.0000
vn -0.9390 -0.3438 -0.0000
vn -0.0000 -0.0000 -1.0000
vn -0.2968 -0.9549 -0.0000
vn 0.1006 0.9949 -0.0000
vn -0.8805 0.4740 -0.0000
vn 0.9390 -0.3438 -0.0000
vn 0.2968 -0.9549 -0.0000
vn -0.1006 0.9949 -0.0000
vn 0.8805 -0.4740 -0.0000
vn -0.9390 0.3438 -0.0000
vn -0.2968 0.9549 -0.0000
vn 0.1006 -0.9949 -0.0000
vn -0.8805 -0.4740 -0.0000
vn 0.9390 0.3438 -0.0000
vn 0.2968 0.9549 -0.0000
vn -0.1006 -0.9949 -0.0000
vt 0.625000 0.000000
vt 0.375000 0.250000
vt 0.375000 0.000000
vt 0.625000 0.250000
vt 0.375000 0.500000
vt 0.625000 0.750000
vt 0.375000 0.750000
vt 0.625000 1.000000
vt 0.375000 1.000000
vt 0.125000 0.750000
vt 0.125000 0.500000
vt 0.875000 0.500000
vt 0.625000 0.500000
vt 0.875000 0.750000
s 0
f 2/1/1 3/2/1 1/3/1
f 4/4/2 7/5/2 3/2/2
f 7/5/3 6/6/3 5/7/3
f 5/7/4 2/8/4 1/9/4
f 7/5/5 1/10/5 3/11/5
f 4/12/6 6/6/6 8/13/6
f 11/2/7 10/1/7 9/3/7
f 15/5/2 12/4/2 11/2/2
f 15/5/8 14/6/8 16/13/8
f 13/7/4 10/8/4 14/6/4
f 9/10/9 15/5/9 11/11/9
f 14/6/10 12/12/10 16/13/10
f 19/2/11 18/1/11 17/3/11
f 23/5/2 20/4/2 19/2/2
f 23/5/12 22/6/12 24/13/12
f 21/7/4 18/8/4 22/6/4
f 17/10/13 23/5/13 19/11/13
f 22/6/14 20/12/14 24/13/14
f 26/1/15 27/2/15 25/3/15
f 28/4/2 31/5/2 27/2/2
f 31/5/16 30/6/16 29/7/16
f 29/7/4 26/8/4 25/9/4
f 31/5/17 25/10/17 27/11/17
f 28/12/18 30/6/18 32/13/18
f 2/1/1 4/4/1 3/2/1
f 4/4/2 8/13/2 7/5/2
f 7/5/3 8/13/3 6/6/3
f 5/7/4 6/6/4 2/8/4
f 7/5/5 5/7/5 1/10/5
f 4/12/6 2/14/6 6/6/6
f 11/2/7 12/4/7 10/1/7
f 15/5/2 16/13/2 12/4/2
f 15/5/8 13/7/8 14/6/8
f 13/7/4 9/9/4 10/8/4
f 9/10/9 13/7/9 15/5/9
f 14/6/10 10/14/10 12/12/10
f 19/2/11 20/4/11 18/1/11
f 23/5/2 24/13/2 20/4/2
f 23/5/12 21/7/12 22/6/12
f 21/7/4 17/9/4 18/8/4
f 17/10/13 21/7/13 23/5/13
f 22/6/14 18/14/14 20/12/14
f 26/1/15 28/4/15 27/2/15
f 28/4/2 32/13/2 31/5/2
f 31/5/16 32/13/16 30/6/16
f 29/7/4 30/6/4 26/8/4
f 31/5/17 29/7/17 25/10/17
f 28/12/18 26/14/18 30/6/18
o 立方体.001
v 0.186689 -0.186689 -0.186689
v 0.186689 0.186689 -0.186689
v 0.186689 -0.186689 0.186689
v 0.186689 0.186689 0.186689
v -0.186689 -0.186689 -0.186689
v -0.186689 0.186689 -0.186689
v -0.186689 -0.186689 0.186689
v -0.186689 0.186689 0.186689
v 0.213920 -0.213920 0.110762
v 0.227599 -0.227599 0.000000
v 0.213920 -0.213920 -0.110762
v 0.213920 -0.110762 -0.213920
v 0.227599 -0.000000 -0.227599
v 0.213920 0.110762 -0.213920
v 0.213920 0.213920 -0.110762
v 0.227599 0.227599 -0.000000
v 0.213920 0.213920 0.110762
v 0.213920 0.110762 0.213920
v 0.227599 -0.000000 0.227599
v 0.213920 -0.110762 0.213920
v -0.110762 -0.213920 0.213920
v -0.000000 -0.227599 0.227599
v 0.110762 -0.213920 0.213920
v 0.110762 0.213920 0.213920
v 0.000000 0.227599 0.227599
v -0.110762 0.213920 0.213920
v -0.213920 0.110762 0.213920
v -0.227599 -0.000000 0.227599
v -0.213920 -0.110762 0.213920
v -0.213920 -0.213920 -0.110762
v -0.227599 -0.227599 -0.000000
v -0.213920 -0.213920 0.110762
v -0.213920 0.213920 0.110762
v -0.227599 0.227599 -0.000000
v -0.213920 0.213920 -0.110762
v -0.213920 0.110762 -0.213920
v -0.227599 -0.000000 -0.227599
v -0.213920 -0.110762 -0.213920
v 0.110762 -0.213920 -0.213920
v 0.000000 -0.227599 -0.227599
v -0.110762 -0.213920 -0.213920
v -0.110762 0.213920 -0.213920
v 0.000000 0.227599 -0.227599
v 0.110762 0.213920 -0.213920
v 0.272188 -0.118046 -0.118046
v 0.291917 -0.000000 -0.124387
v 0.272188 0.118046 -0.118046
v 0.291917 -0.124387 0.000000
v 0.313452 0.000000 -0.000000
v 0.291917 0.124387 -0.000000
v 0.272188 -0.118046 0.118046
v 0.291917 0.000000 0.124387
v 0.272188 0.118046 0.118046
v 0.118046 -0.118046 0.272188
v 0.124387 -0.000000 0.291917
v 0.118046 0.118046 0.272188
v -0.000000 -0.124387 0.291917
v -0.000000 0.000000 0.313452
v 0.000000 0.124387 0.291917
v -0.118046 -0.118046 0.272188
v -0.124387 0.000000 0.291917
v -0.118046 0.118046 0.272188
v -0.272188 -0.118046 0.118046
v -0.291917 -0.000000 0.124387
v -0.272188 0.118046 0.118046
v -0.291917 -0.124387 -0.000000
v -0.313452 0.000000 -0.000000
v -0.291917 0.124387 0.000000
v -0.272188 -0.118046 -0.118046
v -0.291917 0.000000 -0.124387
v -0.272188 0.118046 -0.118046
v -0.118046 -0.118046 -0.272188
v -0.124387 -0.000000 -0.291917
v -0.118046 0.118046 -0.272188
v 0.000000 -0.124387 -0.291917
v 0.000000 0.000000 -0.313452
v -0.000000 0.124387 -0.291917
v 0.118046 -0.118046 -0.272188
v 0.124387 0.000000 -0.291917
v 0.118046 0.118046 -0.272188
v 0.118046 -0.272188 0.118046
v 0.000000 -0.291917 0.124387
v -0.118046 -0.272188 0.118046
v 0.124387 -0.291917 -0.000000
v 0.000000 -0.313452 -0.000000
v -0.124387 -0.291917 0.000000
v 0.118046 -0.272188 -0.118046
v -0.000000 -0.291917 -0.124387
v -0.118046 -0.272188 -0.118046
v -0.118046 0.272188 0.118046
v -0.000000 0.291917 0.124387
v 0.118046 0.272188 0.118046
v -0.124387 0.291917 -0.000000
v 0.000000 0.313452 -0.000000
v 0.124387 0.291917 0.000000
v -0.118046 0.272188 -0.118046
v 0.000000 0.291917 -0.124387
v 0.118046 0.272188 -0.118046
vn 0.9708 -0.1681 -0.1713
vn 0.9708 0.1713 -0.1681
vn 0.9708 -0.1681 0.1713
vn 0.9708 0.1713 0.1681
vn 0.7501 -0.4896 -0.4446
vn 0.8367 -0.1678 -0.5213
vn 0.8367 0.1677 -0.5214
vn 0.7501 0.4446 -0.4896
vn 0.8367 0.5213 -0.1678
vn 0.8367 0.5213 0.1678
vn 0.7501 0.4446 0.4896
vn 0.8367 0.1677 0.5214
vn 0.8367 -0.1678 0.5213
vn 0.7501 -0.4896 0.4446
vn 0.8367 -0.5214 0.1677
vn 0.8367 -0.5214 -0.1677
vn 0.1713 -0.1681 0.9708
vn 0.1681 0.1713 0.9708
vn -0.1713 -0.1681 0.9708
vn -0.1681 0.1713 0.9708
vn 0.4446 -0.4896 0.7501
vn 0.5213 -0.1678 0.8367
vn 0.5214 0.1677 0.8367
vn 0.4896 0.4446 0.7501
vn 0.1678 0.5213 0.8367
vn -0.1678 0.5213 0.8367
vn -0.4896 0.4446 0.7501
vn -0.5214 0.1677 0.8367
vn -0.5213 -0.1678 0.8367
vn -0.4446 -0.4896 0.7501
vn -0.1677 -0.5214 0.8367
vn 0.1677 -0.5214 0.8367
vn -0.9708 -0.1681 0.1713
vn -0.9708 0.1713 0.1681
vn -0.9708 -0.1681 -0.1713
vn -0.9708 0.1713 -0.1681
vn -0.7501 -0.4896 0.4446
vn -0.8367 -0.1678 0.5213
vn -0.8367 0.1677 0.5214
vn -0.7501 0.4446 0.4896
vn -0.8367 0.5213 0.1678
vn -0.8367 0.5213 -0.1678
vn -0.7501 0.4446 -0.4896
vn -0.8367 0.1677 -0.5214
vn -0.8367 -0.1678 -0.5213
vn -0.7501 -0.4896 -0.4446
vn -0.8367 -0.5214 -0.1677
vn -0.8367 -0.5214 0.1677
vn -0.1713 -0.1681 -0.9708
vn -0.1681 0.1713 -0.9708
vn 0.1713 -0.1681 -0.9708
vn 0.1681 0.1713 -0.9708
vn -0.4446 -0.4896 -0.7501
vn -0.5213 -0.1678 -0.8367
vn -0.5214 0.1677 -0.8367
vn -0.4896 0.4446 -0.7501
vn -0.1678 0.5213 -0.8367
vn 0.1678 0.5213 -0.8367
vn 0.4896 0.4446 -0.7501
vn 0.5214 0.1677 -0.8367
vn 0.5213 -0.1678 -0.8367
vn 0.4446 -0.4896 -0.7501
vn 0.1677 -0.5214 -0.8367
vn -0.1677 -0.5214 -0.8367
vn 0.1681 -0.9708 0.1713
vn -0.1713 -0.9708 0.1681
vn 0.1681 -0.9708 -0.1713
vn -0.1713 -0.9708 -0.1681
vn 0.4896 -0.7501 0.4446
vn 0.1678 -0.8367 0.5213
vn -0.1677 -0.8367 0.5214
vn -0.4446 -0.7501 0.4896
vn -0.5213 -0.8367 0.1678
vn -0.5213 -0.8367 -0.1678
vn -0.4446 -0.7501 -0.4896
vn -0.1677 -0.8367 -0.5214
vn 0.1678 -0.8367 -0.5213
vn 0.4896 -0.7501 -0.4446
vn 0.5214 -0.8367 -0.1677
vn 0.5214 -0.8367 0.1677
vn -0.1681 0.9708 0.1713
vn 0.1713 0.9708 0.1681
vn -0.1681 0.9708 -0.1713
vn 0.1713 0.9708 -0.1681
vn -0.4896 0.7501 0.4446
vn -0.1678 0.8367 0.5213
vn 0.1677 0.8367 0.5214
vn 0.4446 0.7501 0.4896
vn 0.5213 0.8367 0.1678
vn 0.5213 0.8367 -0.1678
vn 0.4446 0.7501 -0.4896
vn 0.1677 0.8367 -0.5214
vn -0.1678 0.8367 -0.5213
vn -0.4896 0.7501 -0.4446
vn -0.5214 0.8367 -0.1677
vn -0.5214 0.8367 0.1677
vn 0.9708 -0.1713 -0.1681
vn 0.9708 0.1681 -0.1713
vn 0.9708 -0.1713 0.1681
vn 0.9708 0.1681 0.1713
vn 0.7501 -0.4446 -0.4896
vn 0.8367 -0.1677 -0.5214
vn 0.8367 0.1678 -0.5213
vn 0.7501 0.4896 -0.4446
vn 0.8367 0.5214 -0.1677
vn 0.8367 0.5214 0.1677
vn 0.7501 0.4896 0.4446
vn 0.8367 0.1678 0.5213
vn 0.8367 -0.1677 0.5214
vn 0.7501 -0.4446 0.4896
vn 0.8367 -0.5213 0.1678
vn 0.8367 -0.5213 -0.1678
vn 0.1681 -0.1713 0.9708
vn 0.1713 0.1681 0.9708
vn -0.1681 -0.1713 0.9708
vn -0.1713 0.1681 0.9708
vn 0.4896 -0.4446 0.7501
vn 0.5214 -0.1677 0.8367
vn 0.5213 0.1678 0.8367
vn 0.4446 0.4896 0.7501
vn 0.1677 0.5214 0.8367
vn -0.1677 0.5214 0.8367
vn -0.4446 0.4896 0.7501
vn -0.5213 0.1678 0.8367
vn -0.5214 -0.1677 0.8367
vn -0.4896 -0.4446 0.7501
vn -0.1678 -0.5213 0.8367
vn 0.1678 -0.5213 0.8367
vn -0.9708 -0.1713 0.1681
vn -0.9708 0.1681 0.1713
vn -0.9708 -0.1713 -0.1681
vn -0.9708 0.1681 -0.1713
vn -0.7501 -0.4446 0.4896
vn -0.8367 -0.1677 0.5214
vn -0.8367 0.1678 0.5213
vn -0.7501 0.4896 0.4446
vn -0.8367 0.5214 0.1677
vn -0.8367 0.5214 -0.1677
vn -0.7501 0.4896 -0.4446
vn -0.8367 0.1678 -0.5213
vn -0.8367 -0.1677 -0.5214
vn -0.7501 -0.4446 -0.4896
vn -0.8367 -0.5213 -0.1678
vn -0.8367 -0.5213 0.1678
vn -0.1681 -0.1713 -0.9708
vn -0.1713 0.1681 -0.9708
vn 0.1681 -0.1713 -0.9708
vn 0.1713 0.1681 -0.9708
vn -0.4896 -0.4446 -0.7501
vn -0.5214 -0.1677 -0.8367
vn -0.5213 0.1678 -0.8367
vn -0.4446 0.4896 -0.7501
vn -0.1677 0.5214 -0.8367
vn 0.1677 0.5214 -0.8367
vn 0.4446 0.4896 -0.7501
vn 0.5213 0.1678 -0.8367
vn 0.5214 -0.1677 -0.8367
vn 0.4896 -0.4446 -0.7501
vn 0.1678 -0.5213 -0.8367
vn -0.1678 -0.5213 -0.8367
vn 0.1713 -0.9708 0.1681
vn -0.1681 -0.9708 0.1713
vn 0.1713 -0.9708 -0.1681
vn -0.1681 -0.9708 -0.1713
vn 0.4446 -0.7501 0.4896
vn 0.1677 -0.8367 0.5214
vn -0.1678 -0.8367 0.5213
vn -0.4896 -0.7501 0.4446
vn -0.5214 -0.8367 0.1677
vn -0.5214 -0.8367 -0.1677
vn -0.4896 -0.7501 -0.4446
vn -0.1678 -0.8367 -0.5213
vn 0.1677 -0.8367 -0.5214
vn 0.4446 -0.7501 -0.4896
vn 0.5213 -0.8367 -0.1678
vn 0.5213 -0.8367 0.1678
vn -0.1713 0.9708 0.1681
vn 0.1681 0.9708 0.1713
vn -0.1713 0.9708 -0.1681
vn 0.1681 0.9708 -0.1713
vn -0.4446 0.7501 0.4896
vn -0.1677 0.8367 0.5214
vn 0.1678 0.8367 0.5213
vn 0.4896 0.7501 0.4446
vn 0.5214 0.8367 0.1677
vn 0.5214 0.8367 -0.1677
vn 0.4896 0.7501 -0.4446
vn 0.1678 0.8367 -0.5213
vn -0.1677 0.8367 -0.5214
vn -0.4446 0.7501 -0.4896
vn -0.5213 0.8367 -0.1678
vn -0.5213 0.8367 0.1678
vt 0.437500 0.062500
vt 0.500000 0.125000
vt 0.437500 0.125000
vt 0.562500 0.062500
vt 0.500000 0.062500
vt 0.437500 0.187500
vt 0.562500 0.187500
vt 0.500000 0.187500
vt 0.375000 0.000000
vt 0.375000 0.062500
vt 0.437500 0.000000
vt 0.562500 0.000000
vt 0.500000 0.000000
vt 0.625000 0.000000
vt 0.625000 0.062500
vt 0.562500 0.125000
vt 0.625000 0.187500
vt 0.625000 0.250000
vt 0.562500 0.250000
vt 0.500000 0.250000
vt 0.437500 0.250000
vt 0.375000 0.250000
vt 0.375000 0.187500
vt 0.375000 0.125000
vt 0.437500 0.312500
vt 0.500000 0.375000
vt 0.437500 0.375000
vt 0.562500 0.312500
vt 0.500000 0.312500
vt 0.437500 0.437500
vt 0.562500 0.437500
vt 0.500000 0.437500
vt 0.375000 0.312500
vt 0.625000 0.312500
vt 0.562500 0.375000
vt 0.625000 0.437500
vt 0.625000 0.500000
vt 0.562500 0.500000
vt 0.500000 0.500000
vt 0.437500 0.500000
vt 0.375000 0.500000
vt 0.375000 0.437500
vt 0.375000 0.375000
vt 0.437500 0.562500
vt 0.500000 0.625000
vt 0.437500 0.625000
vt 0.562500 0.562500
vt 0.500000 0.562500
vt 0.437500 0.687500
vt 0.562500 0.687500
vt 0.500000 0.687500
vt 0.375000 0.562500
vt 0.625000 0.562500
vt 0.562500 0.625000
vt 0.625000 0.687500
vt 0.625000 0.750000
vt 0.562500 0.750000
vt 0.500000 0.750000
vt 0.437500 0.750000
vt 0.375000 0.750000
vt 0.375000 0.687500
vt 0.375000 0.625000
vt 0.437500 0.812500
vt 0.500000 0.875000
vt 0.437500 0.875000
vt 0.562500 0.812500
vt 0.500000 0.812500
vt 0.437500 0.937500
vt 0.562500 0.937500
vt 0.500000 0.937500
vt 0.375000 0.812500
vt 0.625000 0.812500
vt 0.562500 0.875000
vt 0.625000 0.937500
vt 0.625000 1.000000
vt 0.562500 1.000000
vt 0.500000 1.000000
vt 0.437500 1.000000
vt 0.375000 1.000000
vt 0.375000 0.937500
vt 0.375000 0.875000
vt 0.187500 0.562500
vt 0.250000 0.625000
vt 0.187500 0.625000
vt 0.312500 0.562500
vt 0.250000 0.562500
vt 0.187500 0.687500
vt 0.312500 0.687500
vt 0.250000 0.687500
vt 0.125000 0.500000
vt 0.125000 0.562500
vt 0.187500 0.500000
vt 0.312500 0.500000
vt 0.250000 0.500000
vt 0.312500 0.625000
vt 0.312500 0.750000
vt 0.250000 0.750000
vt 0.187500 0.750000
vt 0.125000 0.750000
vt 0.125000 0.687500
vt 0.125000 0.625000
vt 0.687500 0.562500
vt 0.750000 0.625000
vt 0.687500 0.625000
vt 0.812500 0.562500
vt 0.750000 0.562500
vt 0.687500 0.687500
vt 0.812500 0.687500
vt 0.750000 0.687500
vt 0.687500 0.500000
vt 0.812500 0.500000
vt 0.750000 0.500000
vt 0.875000 0.500000
vt 0.875000 0.562500
vt 0.812500 0.625000
vt 0.875000 0.687500
vt 0.875000 0.750000
vt 0.812500 0.750000
vt 0.750000 0.750000
vt 0.687500 0.750000
vt 0.625000 0.625000
vt 0.625000 0.125000
vt 0.625000 0.375000
vt 0.625000 0.875000
vt 0.875000 0.625000
s 0
f 77/15/19 81/16/19 80/17/19
f 79/18/20 81/16/20 78/19/20
f 81/16/21 83/20/21 80/17/21
f 81/16/22 85/21/22 84/22/22
f 33/23/23 77/15/23 43/24/23
f 44/25/24 78/19/24 77/15/24
f 46/26/25 78/19/25 45/27/25
f 34/28/26 79/18/26 46/26/26
f 47/29/27 82/30/27 79/18/27
f 82/30/28 49/31/28 85/21/28
f 85/21/29 36/32/29 50/33/29
f 84/22/30 50/33/30 51/34/30
f 84/22/31 52/35/31 83/20/31
f 83/20/32 35/36/32 41/37/32
f 80/17/33 41/37/33 42/38/33
f 43/24/34 80/17/34 42/38/34
f 86/39/35 90/40/35 89/41/35
f 88/42/36 90/40/36 87/43/36
f 90/40/37 92/44/37 89/41/37
f 90/40/38 94/45/38 93/46/38
f 35/36/39 86/39/39 55/47/39
f 52/35/40 87/43/40 86/39/40
f 50/33/41 87/43/41 51/34/41
f 36/32/42 88/42/42 50/33/42
f 56/48/43 91/49/43 88/42/43
f 91/49/44 58/50/44 94/45/44
f 94/45/45 40/51/45 59/52/45
f 93/46/46 59/52/46 60/53/46
f 93/46/47 61/54/47 92/44/47
f 92/44/48 39/55/48 53/56/48
f 89/41/49 53/56/49 54/57/49
f 55/47/50 89/41/50 54/57/50
f 95/58/51 99/59/51 98/60/51
f 97/61/52 99/59/52 96/62/52
f 99/59/53 101/63/53 98/60/53
f 99/59/54 103/64/54 102/65/54
f 39/55/55 95/58/55 64/66/55
f 61/54/56 96/62/56 95/58/56
f 59/52/57 96/62/57 60/53/57
f 40/51/58 97/61/58 59/52/58
f 65/67/59 100/68/59 97/61/59
f 100/68/60 67/69/60 103/64/60
f 103/64/61 38/70/61 68/71/61
f 102/65/62 68/71/62 69/72/62
f 102/65/63 70/73/63 101/63/63
f 101/63/64 37/74/64 62/75/64
f 98/60/65 62/75/65 63/76/65
f 64/66/66 98/60/66 63/76/66
f 104/77/67 108/78/67 107/79/67
f 106/80/68 108/78/68 105/81/68
f 108/78/69 110/82/69 107/79/69
f 108/78/70 112/83/70 111/84/70
f 37/74/71 104/77/71 73/85/71
f 70/73/72 105/81/72 104/77/72
f 68/71/73 105/81/73 69/72/73
f 38/70/74 106/80/74 68/71/74
f 74/86/75 109/87/75 106/80/75
f 109/87/76 76/88/76 112/83/76
f 112/83/77 34/89/77 46/90/77
f 111/84/78 46/90/78 45/91/78
f 111/84/79 44/92/79 110/82/79
f 110/82/80 33/93/80 71/94/80
f 107/79/81 71/94/81 72/95/81
f 73/85/82 107/79/82 72/95/82
f 113/96/83 117/97/83 116/98/83
f 115/99/84 117/97/84 114/100/84
f 117/97/85 119/101/85 116/98/85
f 117/97/86 121/102/86 120/103/86
f 35/104/87 113/96/87 41/105/87
f 55/106/88 114/100/88 113/96/88
f 53/107/89 114/100/89 54/108/89
f 39/55/90 115/99/90 53/107/90
f 64/66/91 118/109/91 115/99/91
f 118/109/92 62/75/92 121/102/92
f 121/102/93 37/74/93 73/110/93
f 120/103/94 73/110/94 72/111/94
f 120/103/95 71/112/95 119/101/95
f 119/101/96 33/113/96 43/114/96
f 116/98/97 43/114/97 42/115/97
f 41/105/98 116/98/98 42/115/98
f 122/116/99 126/117/99 125/118/99
f 124/119/100 126/117/100 123/120/100
f 126/117/101 128/121/101 125/118/101
f 126/117/102 130/122/102 129/123/102
f 40/51/103 122/116/103 65/67/103
f 58/124/104 123/120/104 122/116/104
f 56/125/105 123/120/105 57/126/105
f 36/127/106 124/119/106 56/125/106
f 49/128/107 127/129/107 124/119/107
f 127/129/108 47/130/108 130/122/108
f 130/122/109 34/131/109 76/132/109
f 129/123/110 76/132/110 75/133/110
f 129/123/111 74/134/111 128/121/111
f 128/121/112 38/70/112 67/69/112
f 125/118/113 67/69/113 66/135/113
f 65/67/114 125/118/114 66/135/114
f 77/15/115 78/19/115 81/16/115
f 79/18/116 82/30/116 81/16/116
f 81/16/117 84/22/117 83/20/117
f 81/16/118 82/30/118 85/21/118
f 33/23/119 44/25/119 77/15/119
f 44/25/120 45/27/120 78/19/120
f 46/26/121 79/18/121 78/19/121
f 34/28/122 47/29/122 79/18/122
f 47/29/123 48/136/123 82/30/123
f 82/30/124 48/136/124 49/31/124
f 85/21/125 49/31/125 36/32/125
f 84/22/126 85/21/126 50/33/126
f 84/22/127 51/34/127 52/35/127
f 83/20/128 52/35/128 35/36/128
f 80/17/129 83/20/129 41/37/129
f 43/24/130 77/15/130 80/17/130
f 86/39/131 87/43/131 90/40/131
f 88/42/132 91/49/132 90/40/132
f 90/40/133 93/46/133 92/44/133
f 90/40/134 91/49/134 94/45/134
f 35/36/135 52/35/135 86/39/135
f 52/35/136 51/34/136 87/43/136
f 50/33/137 88/42/137 87/43/137
f 36/32/138 56/48/138 88/42/138
f 56/48/139 57/137/139 91/49/139
f 91/49/140 57/137/140 58/50/140
f 94/45/141 58/50/141 40/51/141
f 93/46/142 94/45/142 59/52/142
f 93/46/143 60/53/143 61/54/143
f 92/44/144 61/54/144 39/55/144
f 89/41/145 92/44/145 53/56/145
f 55/47/146 86/39/146 89/41/146
f 95/58/147 96/62/147 99/59/147
f 97/61/148 100/68/148 99/59/148
f 99/59/149 102/65/149 101/63/149
f 99/59/150 100/68/150 103/64/150
f 39/55/151 61/54/151 95/58/151
f 61/54/152 60/53/152 96/62/152
f 59/52/153 97/61/153 96/62/153
f 40/51/154 65/67/154 97/61/154
f 65/67/155 66/135/155 100/68/155
f 100/68/156 66/135/156 67/69/156
f 103/64/157 67/69/157 38/70/157
f 102/65/158 103/64/158 68/71/158
f 102/65/159 69/72/159 70/73/159
f 101/63/160 70/73/160 37/74/160
f 98/60/161 101/63/161 62/75/161
f 64/66/162 95/58/162 98/60/162
f 104/77/163 105/81/163 108/78/163
f 106/80/164 109/87/164 108/78/164
f 108/78/165 111/84/165 110/82/165
f 108/78/166 109/87/166 112/83/166
f 37/74/167 70/73/167 104/77/167
f 70/73/168 69/72/168 105/81/168
f 68/71/169 106/80/169 105/81/169
f 38/70/170 74/86/170 106/80/170
f 74/86/171 75/138/171 109/87/171
f 109/87/172 75/138/172 76/88/172
f 112/83/173 76/88/173 34/89/173
f 111/84/174 112/83/174 46/90/174
f 111/84/175 45/91/175 44/92/175
f 110/82/176 44/92/176 33/93/176
f 107/79/177 110/82/177 71/94/177
f 73/85/178 104/77/178 107/79/178
f 113/96/179 114/100/179 117/97/179
f 115/99/180 118/109/180 117/97/180
f 117/97/181 120/103/181 119/101/181
f 117/97/182 118/109/182 121/102/182
f 35/104/183 55/106/183 113/96/183
f 55/106/184 54/108/184 114/100/184
f 53/107/185 115/99/185 114/100/185
f 39/55/186 64/66/186 115/99/186
f 64/66/187 63/76/187 118/109/187
f 118/109/188 63/76/188 62/75/188
f 121/102/189 62/75/189 37/74/189
f 120/103/190 121/102/190 73/110/190
f 120/103/191 72/111/191 71/112/191
f 119/101/192 71/112/192 33/113/192
f 116/98/193 119/101/193 43/114/193
f 41/105/194 113/96/194 116/98/194
f 122/116/195 123/120/195 126/117/195
f 124/119/196 127/129/196 126/117/196
f 126/117/197 129/123/197 128/121/197
f 126/117/198 127/129/198 130/122/198
f 40/51/199 58/124/199 122/116/199
f 58/124/200 57/126/200 123/120/200
f 56/125/201 124/119/201 123/120/201
f 36/127/202 49/128/202 124/119/202
f 49/128/203 48/139/203 127/129/203
f 127/129/204 48/139/204 47/130/204
f 130/122/205 47/130/205 34/131/205
f 129/123/206 130/122/206 76/132/206
f 129/123/207 75/133/207 74/134/207
f 128/121/208 74/134/208 38/70/208
f 125/118/209 128/121/209 67/69/209
f 65/67/210 122/116/210 125/118/210
