# Blender 4.4.0
# www.blender.org
mtllib topWingL.mtl
o 立方体
v 0.004598 -0.066188 0.478490
v 0.004598 -0.020649 0.478490
v 0.004598 -0.043874 -0.484458
v 0.004598 0.001665 -0.484458
v 1.193343 -0.082923 0.552000
v 1.193343 -0.037384 0.552000
v 1.193343 -0.020283 -0.297801
v 1.193343 0.025255 -0.297801
v 0.004598 0.004882 -0.098691
v 0.004598 0.050420 -0.098691
v 1.193343 0.004882 -0.098691
v 1.193343 0.050420 -0.098691
v 0.598970 -0.043874 -0.484458
v 0.598970 0.001665 -0.484458
v 0.598970 -0.066188 0.478490
v 0.598970 -0.020649 0.478490
v 0.598970 0.050420 -0.098691
v 0.598970 0.004882 -0.098691
vn -1.0000 -0.0000 -0.0000
vn 0.2996 -0.0000 -0.9541
vn 1.0000 -0.0000 -0.0000
vn -0.0000 -0.0000 1.0000
vn -0.0000 -0.9925 -0.1222
vn -0.0000 0.9925 0.1222
vn -0.0000 0.9921 -0.1254
vn -0.0000 -0.9921 0.1254
vn 0.0114 0.9910 0.1337
vn -0.1227 -0.0000 0.9924
vn -0.0000 -0.0000 -1.0000
vn -0.0114 -0.9910 -0.1337
vt 0.375000 0.159722
vt 0.625000 0.250000
vt 0.375000 0.250000
vt 0.625000 0.375000
vt 0.375000 0.543682
vt 0.375000 0.375000
vt 0.375000 0.590278
vt 0.625000 0.750000
vt 0.375000 0.750000
vt 0.625000 0.875000
vt 0.375000 1.000000
vt 0.375000 0.875000
vt 0.250000 0.750000
vt 0.250000 0.590278
vt 0.875000 0.590278
vt 0.750000 0.750000
vt 0.750000 0.590278
vt 0.875000 0.500000
vt 0.750000 0.500000
vt 0.250000 0.500000
vt 0.625000 0.543682
vt 0.625000 0.000000
vt 0.375000 0.000000
vt 0.125000 0.590278
vt 0.125000 0.500000
vt 0.625000 0.590278
vt 0.125000 0.750000
vt 0.625000 0.159722
vt 0.625000 1.000000
vt 0.875000 0.750000
s 1
f 9/1/1 4/2/1 3/3/1
f 14/4/2 7/5/2 13/6/2
f 11/7/3 6/8/3 5/9/3
f 16/10/4 1/11/4 15/12/4
f 11/7/5 15/13/5 18/14/5
f 10/15/6 16/16/6 17/17/6
f 4/18/7 17/17/7 14/19/7
f 7/5/8 18/14/8 13/20/8
f 8/21/3 11/7/3 7/5/3
f 2/22/1 9/1/1 1/23/1
f 13/20/8 9/24/8 3/25/8
f 8/21/7 17/17/7 12/26/7
f 12/26/9 16/16/9 6/8/9
f 18/14/5 1/27/5 9/24/5
f 6/8/10 15/12/10 5/9/10
f 4/2/11 13/6/11 3/3/11
f 9/1/1 10/28/1 4/2/1
f 14/4/2 8/21/2 7/5/2
f 11/7/3 12/26/3 6/8/3
f 16/10/4 2/29/4 1/11/4
f 11/7/12 5/9/12 15/13/12
f 10/15/6 2/30/6 16/16/6
f 4/18/7 10/15/7 17/17/7
f 7/5/8 11/7/8 18/14/8
f 8/21/3 12/26/3 11/7/3
f 2/22/1 10/28/1 9/1/1
f 13/20/8 18/14/8 9/24/8
f 8/21/7 14/19/7 17/17/7
f 12/26/6 17/17/6 16/16/6
f 18/14/5 15/13/5 1/27/5
f 6/8/10 16/10/10 15/12/10
f 4/2/11 14/4/11 13/6/11
