# Blender 4.4.0
# www.blender.org
mtllib building_1.mtl
o 立方体
v -1.963071 0.035819 3.982416
v -1.963071 4.461544 3.982416
v -1.963071 0.035819 -3.982416
v -1.963071 4.461544 -3.982416
v 1.963071 0.035819 3.982416
v 1.963071 4.461544 3.982416
v 1.963071 0.035819 -3.982416
v 1.963071 4.461544 -3.982416
v -1.963071 0.035819 0.983891
v -1.963071 4.461544 0.983891
v 1.963071 0.035819 0.983891
v 1.963071 4.461544 0.983891
v -1.963071 12.423847 0.983891
v -1.963071 12.423847 -3.982416
v 1.963071 10.008636 -3.982416
v 1.963071 10.008636 0.983891
v -1.881342 7.677605 -3.879035
v -1.881342 7.886713 -3.879035
v -1.881342 7.886713 0.880510
v -1.881342 7.677605 0.880510
v -1.963071 7.886713 -3.982416
v -1.963071 7.677605 -3.982416
v 1.963071 7.677605 -3.982416
v 1.963071 7.886713 -3.982416
v 1.963071 7.886713 0.983891
v 1.963071 7.677605 0.983891
v -1.963071 7.677605 0.983891
v -1.963071 7.886713 0.983891
v 1.881342 7.677605 -3.879035
v 1.881342 7.886713 -3.879035
v 1.881342 7.886713 0.880510
v 1.881342 7.677605 0.880510
vn -1.0000 -0.0000 -0.0000
vn -0.0000 -0.0000 -1.0000
vn 1.0000 -0.0000 -0.0000
vn -0.0000 -0.0000 1.0000
vn -0.0000 -1.0000 -0.0000
vn -0.0000 1.0000 -0.0000
vn 0.5240 0.8517 -0.0000
vt 0.625000 0.094118
vt 0.375000 0.250000
vt 0.375000 0.094118
vt 0.625000 0.250000
vt 0.375000 0.500000
vt 0.625000 0.655882
vt 0.375000 0.750000
vt 0.375000 0.655882
vt 0.625000 0.750000
vt 0.375000 1.000000
vt 0.125000 0.750000
vt 0.125000 0.655882
vt 0.875000 0.655882
vt 0.125000 0.500000
vt 0.625000 0.500000
vt 0.625000 0.000000
vt 0.375000 0.000000
vt 0.875000 0.500000
vt 0.625000 1.000000
vt 0.875000 0.750000
s 0
f 10/1/1 3/2/1 9/3/1
f 4/4/2 7/5/2 3/2/2
f 12/6/3 5/7/3 11/8/3
f 6/9/4 1/10/4 5/7/4
f 11/8/5 1/11/5 9/12/5
f 10/13/6 6/9/6 12/6/6
f 10/1/1 22/4/1 4/4/1
f 7/5/5 9/12/5 3/14/5
f 8/15/3 11/8/3 7/5/3
f 2/16/1 9/3/1 1/17/1
f 14/18/7 16/6/7 15/15/7
f 12/6/4 27/13/4 10/13/4
f 28/13/4 16/6/4 13/13/4
f 4/4/2 23/15/2 8/15/2
f 8/15/3 26/6/3 12/6/3
f 24/15/3 16/6/3 25/6/3
f 18/4/1 20/1/1 19/1/1
f 21/4/2 15/15/2 24/15/2
f 25/6/5 30/15/5 24/15/5
f 23/15/6 32/6/6 26/6/6
f 26/6/6 20/13/6 27/13/6
f 22/4/6 29/15/6 23/15/6
f 28/1/1 14/4/1 21/4/1
f 31/6/3 29/15/3 30/15/3
f 19/13/4 32/6/4 31/6/4
f 30/15/2 17/4/2 18/4/2
f 27/1/6 17/4/6 22/4/6
f 21/4/5 19/1/5 28/1/5
f 24/15/5 18/4/5 21/4/5
f 28/13/5 31/6/5 25/6/5
f 10/1/1 4/4/1 3/2/1
f 4/4/2 8/15/2 7/5/2
f 12/6/3 6/9/3 5/7/3
f 6/9/4 2/19/4 1/10/4
f 11/8/5 5/7/5 1/11/5
f 10/13/6 2/20/6 6/9/6
f 10/1/1 27/1/1 22/4/1
f 7/5/5 11/8/5 9/12/5
f 8/15/3 12/6/3 11/8/3
f 2/16/1 10/1/1 9/3/1
f 14/18/7 13/13/7 16/6/7
f 12/6/4 26/6/4 27/13/4
f 28/13/4 25/6/4 16/6/4
f 4/4/2 22/4/2 23/15/2
f 8/15/3 23/15/3 26/6/3
f 24/15/3 15/15/3 16/6/3
f 18/4/1 17/4/1 20/1/1
f 21/4/2 14/4/2 15/15/2
f 25/6/5 31/6/5 30/15/5
f 23/15/6 29/15/6 32/6/6
f 26/6/6 32/6/6 20/13/6
f 22/4/6 17/4/6 29/15/6
f 28/1/1 13/1/1 14/4/1
f 31/6/3 32/6/3 29/15/3
f 19/13/4 20/13/4 32/6/4
f 30/15/2 29/15/2 17/4/2
f 27/1/6 20/1/6 17/4/6
f 21/4/5 18/4/5 19/1/5
f 24/15/5 30/15/5 18/4/5
f 28/13/5 19/13/5 31/6/5
