# Blender 4.4.0
# www.blender.org
mtllib buildingB.mtl
o 立方体
v -3.000000 0.004355 3.000000
v -3.000000 0.985621 3.000000
v -3.000000 0.004355 -3.000000
v -3.000000 0.985621 -3.000000
v 3.000000 0.004355 3.000000
v 3.000000 0.985621 3.000000
v 3.000000 0.004355 -3.000000
v 3.000000 0.985621 -3.000000
v -3.000000 2.006139 3.000000
v -3.000000 2.987405 3.000000
v -3.000000 2.006139 -3.000000
v -3.000000 2.987405 -3.000000
v 3.000000 2.006139 3.000000
v 3.000000 2.987405 3.000000
v 3.000000 2.006139 -3.000000
v 3.000000 2.987405 -3.000000
v -3.000000 4.007922 3.000000
v -3.000000 4.989189 3.000000
v -3.000000 4.007922 -3.000000
v -3.000000 4.989189 -3.000000
v 3.000000 4.007922 3.000000
v 3.000000 4.989189 3.000000
v 3.000000 4.007922 -3.000000
v 3.000000 4.989189 -3.000000
v -3.000000 6.009706 3.000000
v -3.000000 6.990972 3.000000
v -3.000000 6.009706 -3.000000
v -3.000000 6.990972 -3.000000
v 3.000000 6.009706 3.000000
v 3.000000 6.990972 3.000000
v 3.000000 6.009706 -3.000000
v 3.000000 6.990972 -3.000000
v -3.000000 8.011490 3.000000
v -3.000000 8.992756 3.000000
v -3.000000 8.011490 -3.000000
v -3.000000 8.992756 -3.000000
v 3.000000 8.011490 3.000000
v 3.000000 8.992756 3.000000
v 3.000000 8.011490 -3.000000
v 3.000000 8.992756 -3.000000
v -2.867704 0.318599 2.867704
v -2.867704 8.655247 2.867704
v -2.867704 0.318599 -2.867704
v -2.867704 8.655247 -2.867704
v 2.867704 0.318599 2.867704
v 2.867704 8.655247 2.867704
v 2.867704 0.318599 -2.867704
v 2.867704 8.655247 -2.867704
vn -1.0000 -0.0000 -0.0000
vn -0.0000 -0.0000 -1.0000
vn 1.0000 -0.0000 -0.0000
vn -0.0000 -0.0000 1.0000
vn -0.0000 -1.0000 -0.0000
vn -0.0000 1.0000 -0.0000
vt 0.671822 0.209861
vt 0.691770 0.087891
vt 0.691770 0.209861
vt 0.691770 0.067943
vt 0.813740 0.087891
vt 0.833688 0.087891
vt 0.813740 0.209861
vt 0.813740 0.229809
vt 0.691770 0.351779
vt 0.813740 0.351779
vt 0.673180 0.767632
vt 0.795150 0.787580
vt 0.673180 0.787580
vt 0.815098 0.787580
vt 0.795150 0.909550
vt 0.795150 0.929497
vt 0.673180 0.909550
vt 0.653232 0.909550
vt 0.531262 0.787580
vt 0.531262 0.909550
vt 0.536249 0.209861
vt 0.516301 0.331831
vt 0.516301 0.209861
vt 0.516301 0.351779
vt 0.394331 0.331831
vt 0.374383 0.331831
vt 0.394331 0.209861
vt 0.394331 0.189914
vt 0.516301 0.067943
vt 0.394331 0.067943
vt 0.517310 0.652078
vt 0.395340 0.632131
vt 0.517310 0.632131
vt 0.375393 0.632131
vt 0.395340 0.510161
vt 0.395340 0.490213
vt 0.517310 0.510161
vt 0.537258 0.510161
vt 0.659228 0.632131
vt 0.659228 0.510160
vt 0.209861 0.932357
vt 0.087891 0.912410
vt 0.209861 0.912410
vt 0.067943 0.912410
vt 0.087891 0.790440
vt 0.087891 0.770492
vt 0.209861 0.790440
vt 0.229809 0.790440
vt 0.351779 0.912410
vt 0.351779 0.790440
vt 0.237379 0.184329
vt 0.067909 0.300920
vt 0.067909 0.184329
vt 0.237379 0.300920
vt 0.067909 0.417512
vt 0.237379 0.417512
vt 0.067909 0.534104
vt 0.237379 0.067737
vt 0.067909 0.067737
vt 0.671822 0.087891
vt 0.813740 0.067943
vt 0.833688 0.209861
vt 0.691770 0.229809
vt 0.795150 0.767632
vt 0.815098 0.909550
vt 0.673180 0.929497
vt 0.653232 0.787580
vt 0.536249 0.331831
vt 0.394331 0.351779
vt 0.374383 0.209861
vt 0.516301 0.189914
vt 0.395340 0.652078
vt 0.375393 0.510161
vt 0.517310 0.490213
vt 0.537258 0.632131
vt 0.087891 0.932357
vt 0.067943 0.790440
vt 0.209861 0.770492
vt 0.229809 0.912410
vt 0.237379 0.534104
s 0
usemtl Material
f 2/1/1 3/2/1 1/3/1
f 4/4/2 7/5/2 3/2/2
f 8/6/3 5/7/3 7/5/3
f 6/8/4 1/3/4 5/7/4
f 7/5/5 1/3/5 3/2/5
f 4/9/6 6/8/6 8/10/6
f 10/11/1 11/12/1 9/13/1
f 12/14/2 15/15/2 11/12/2
f 16/16/3 13/17/3 15/15/3
f 14/18/4 9/13/4 13/17/4
f 15/15/5 9/13/5 11/12/5
f 12/19/6 14/18/6 16/20/6
f 18/21/1 19/22/1 17/23/1
f 20/24/2 23/25/2 19/22/2
f 24/26/3 21/27/3 23/25/3
f 22/28/4 17/23/4 21/27/4
f 23/25/5 17/23/5 19/22/5
f 20/29/6 22/28/6 24/30/6
f 26/31/1 27/32/1 25/33/1
f 28/34/2 31/35/2 27/32/2
f 32/36/3 29/37/3 31/35/3
f 30/38/4 25/33/4 29/37/4
f 31/35/5 25/33/5 27/32/5
f 28/39/6 30/38/6 32/40/6
f 34/41/1 35/42/1 33/43/1
f 36/44/2 39/45/2 35/42/2
f 40/46/3 37/47/3 39/45/3
f 38/48/4 33/43/4 37/47/4
f 39/45/5 33/43/5 35/42/5
f 36/49/6 38/48/6 40/50/6
f 42/51/1 43/52/1 41/53/1
f 44/54/2 47/55/2 43/52/2
f 48/56/3 45/57/3 47/55/3
f 46/58/4 41/53/4 45/59/4
f 2/1/1 4/60/1 3/2/1
f 4/4/2 8/61/2 7/5/2
f 8/6/3 6/62/3 5/7/3
f 6/8/4 2/63/4 1/3/4
f 7/5/5 5/7/5 1/3/5
f 4/9/6 2/63/6 6/8/6
f 10/11/1 12/64/1 11/12/1
f 12/14/2 16/65/2 15/15/2
f 16/16/3 14/66/3 13/17/3
f 14/18/4 10/67/4 9/13/4
f 15/15/5 13/17/5 9/13/5
f 12/19/6 10/67/6 14/18/6
f 18/21/1 20/68/1 19/22/1
f 20/24/2 24/69/2 23/25/2
f 24/26/3 22/70/3 21/27/3
f 22/28/4 18/71/4 17/23/4
f 23/25/5 21/27/5 17/23/5
f 20/29/6 18/71/6 22/28/6
f 26/31/1 28/72/1 27/32/1
f 28/34/2 32/73/2 31/35/2
f 32/36/3 30/74/3 29/37/3
f 30/38/4 26/75/4 25/33/4
f 31/35/5 29/37/5 25/33/5
f 28/39/6 26/75/6 30/38/6
f 34/41/1 36/76/1 35/42/1
f 36/44/2 40/77/2 39/45/2
f 40/46/3 38/78/3 37/47/3
f 38/48/4 34/79/4 33/43/4
f 39/45/5 37/47/5 33/43/5
f 36/49/6 34/79/6 38/48/6
f 42/51/1 44/54/1 43/52/1
f 44/54/2 48/56/2 47/55/2
f 48/56/3 46/80/3 45/57/3
f 46/58/4 42/51/4 41/53/4
