# Blender 4.4.0
# www.blender.org
mtllib goalFalg.mtl
o 立方体
v -3.995754 2.659841 0.039521
v -3.995754 3.940544 0.039521
v -3.995754 2.659841 -0.039521
v -3.995754 3.940544 -0.039521
v 3.995754 2.659841 0.039521
v 3.995754 3.940544 0.039521
v 3.995754 2.659841 -0.039521
v 3.995754 3.940544 -0.039521
v 3.999923 0.000121 -0.103100
v 3.999923 3.998727 -0.103100
v 4.097978 0.000121 -0.031860
v 4.097978 3.998727 -0.031860
v 4.060524 0.000121 0.083410
v 4.060524 3.998727 0.083410
v 3.939322 0.000121 0.083410
v 3.939322 3.998727 0.083410
v 3.901869 0.000121 -0.031860
v 3.901869 3.998727 -0.031860
v -4.000319 0.000121 -0.103100
v -4.000319 3.998727 -0.103100
v -3.902264 0.000121 -0.031860
v -3.902264 3.998727 -0.031860
v -3.939718 0.000121 0.083410
v -3.939718 3.998727 0.083410
v -4.060919 0.000121 0.083410
v -4.060919 3.998727 0.083410
v -4.098373 0.000121 -0.031860
v -4.098373 3.998727 -0.031860
vn -0.0000 -0.0000 -1.0000
vn -0.0000 -0.0000 1.0000
vn -0.0000 -1.0000 -0.0000
vn -0.0000 1.0000 -0.0000
vn 0.5878 -0.0000 -0.8090
vn 0.9511 -0.0000 0.3090
vn -0.9511 -0.0000 0.3090
vn -0.5878 -0.0000 -0.8090
vt 0.201995 0.951726
vt 0.346780 0.048274
vt 0.346780 0.951726
vt 0.193059 0.048274
vt 0.048274 0.951726
vt 0.048274 0.048274
vt 0.355716 0.951726
vt 0.201995 0.048274
vt 0.520774 0.500322
vt 0.507072 0.048274
vt 0.520774 0.048274
vt 0.507072 0.500322
vt 0.493370 0.048274
vt 0.493370 0.500322
vt 0.479668 0.048274
vt 0.695584 0.619040
vt 0.695584 0.596870
vt 0.708616 0.601104
vt 0.479668 0.500322
vt 0.465966 0.048274
vt 0.465966 0.500322
vt 0.452264 0.048274
vt 0.577951 0.619041
vt 0.577951 0.596870
vt 0.590982 0.601104
vt 0.685832 0.500322
vt 0.672130 0.048274
vt 0.685832 0.048274
vt 0.672130 0.500322
vt 0.658428 0.048274
vt 0.658428 0.500322
vt 0.644726 0.048274
vt 0.452264 0.607955
vt 0.473349 0.601104
vt 0.473349 0.614806
vt 0.644726 0.500322
vt 0.631024 0.048274
vt 0.631024 0.500322
vt 0.617322 0.048274
vt 0.473349 0.726674
vt 0.452264 0.733525
vt 0.452264 0.719822
vt 0.193059 0.951726
vt 0.355716 0.048274
vt 0.708616 0.614806
vt 0.687530 0.607955
vt 0.452264 0.500322
vt 0.590982 0.614806
vt 0.569897 0.607955
vt 0.460318 0.619041
vt 0.460318 0.596870
vt 0.617322 0.500322
vt 0.465295 0.715588
vt 0.465295 0.737759
s 0
usemtl Material
f 4/1/1 7/2/1 3/3/1
f 6/4/2 1/5/2 5/6/2
f 7/2/3 1/7/3 3/3/3
f 4/1/4 6/4/4 8/8/4
f 10/9/5 11/10/5 9/11/5
f 12/12/6 13/13/6 11/10/6
f 14/14/2 15/15/2 13/13/2
f 10/16/4 16/17/4 14/18/4
f 16/19/7 17/20/7 15/15/7
f 18/21/8 9/22/8 17/20/8
f 11/23/3 15/24/3 17/25/3
f 20/26/5 21/27/5 19/28/5
f 22/29/6 23/30/6 21/27/6
f 24/31/2 25/32/2 23/30/2
f 20/33/4 26/34/4 24/35/4
f 26/36/7 27/37/7 25/32/7
f 28/38/8 19/39/8 27/37/8
f 21/40/3 25/41/3 27/42/3
f 4/1/1 8/8/1 7/2/1
f 6/4/2 2/43/2 1/5/2
f 7/2/3 5/44/3 1/7/3
f 4/1/4 2/43/4 6/4/4
f 10/9/5 12/12/5 11/10/5
f 12/12/6 14/14/6 13/13/6
f 14/14/2 16/19/2 15/15/2
f 14/18/4 12/45/4 10/16/4
f 10/16/4 18/46/4 16/17/4
f 16/19/7 18/21/7 17/20/7
f 18/21/8 10/47/8 9/22/8
f 17/25/3 9/48/3 11/23/3
f 11/23/3 13/49/3 15/24/3
f 20/26/5 22/29/5 21/27/5
f 22/29/6 24/31/6 23/30/6
f 24/31/2 26/36/2 25/32/2
f 24/35/4 22/50/4 20/33/4
f 20/33/4 28/51/4 26/34/4
f 26/36/7 28/38/7 27/37/7
f 28/38/8 20/52/8 19/39/8
f 27/42/3 19/53/3 21/40/3
f 21/40/3 23/54/3 25/41/3
