# Blender 4.4.0
# www.blender.org
mtllib weapon.mtl
o 円柱.005
v -0.000231 0.000168 0.025511
v -0.000231 1.007228 0.025511
v 0.024739 0.000168 0.043653
v 0.024739 1.007228 0.043653
v 0.015202 0.000168 0.073007
v 0.015202 1.007228 0.073007
v -0.015663 0.000168 0.073007
v -0.015663 1.007228 0.073007
v -0.025201 0.000168 0.043653
v -0.025201 1.007228 0.043653
v -0.002131 1.622352 0.012209
v -0.117188 1.346219 0.012209
v -0.415360 1.322124 0.012209
v -0.188297 1.127369 0.012209
v -0.257520 0.836344 0.012209
v -0.002131 0.992111 0.012209
v 0.253258 0.836344 0.012209
v 0.184035 1.127369 0.012209
v 0.411098 1.322124 0.012209
v 0.112926 1.346219 0.012209
v -0.002131 1.187857 -0.041837
v -0.002131 1.622352 0.079748
v -0.117188 1.346219 0.079748
v -0.415360 1.322124 0.079748
v -0.188297 1.127369 0.079748
v -0.257520 0.836344 0.079748
v -0.002131 0.992111 0.079748
v 0.253258 0.836344 0.079748
v 0.184035 1.127369 0.079748
v 0.411098 1.322124 0.079748
v 0.112926 1.346219 0.079748
v -0.002131 1.187857 0.138887
vn 0.5878 -0.0000 -0.8090
vn 0.9511 -0.0000 0.3090
vn -0.0000 -0.0000 1.0000
vn -0.9511 -0.0000 0.3090
vn -0.5878 -0.0000 -0.8090
vn -0.0000 -1.0000 -0.0000
vn 0.2003 -0.2336 -0.9515
vn 0.1602 -0.2627 -0.9515
vn -0.0248 0.3067 -0.9515
vn 0.0248 0.3067 -0.9515
vn -0.1602 -0.2627 -0.9515
vn -0.2003 -0.2336 -0.9515
vn 0.2840 0.1184 -0.9515
vn 0.2994 0.0712 -0.9515
vn -0.2994 0.0712 -0.9515
vn -0.2840 0.1184 -0.9515
vn 0.2172 -0.2532 0.9427
vn 0.1737 -0.2848 0.9427
vn -0.0269 0.3325 0.9427
vn 0.0269 0.3325 0.9427
vn -0.1737 -0.2848 0.9427
vn -0.2172 -0.2532 0.9427
vn 0.3079 0.1283 0.9427
vn 0.3246 0.0772 0.9427
vn -0.3246 0.0772 0.9427
vn -0.3079 0.1283 0.9427
vn 0.9729 0.2314 -0.0000
vn -0.9729 0.2314 -0.0000
vn -0.9231 0.3846 -0.0000
vn 0.6510 -0.7590 -0.0000
vn 0.5207 -0.8537 -0.0000
vn -0.0805 0.9968 -0.0000
vn 0.0805 0.9968 -0.0000
vn -0.5207 -0.8537 -0.0000
vn -0.6510 -0.7590 -0.0000
vn 0.9231 0.3846 -0.0000
vt 0.663088 0.517706
vt 0.939656 0.169531
vt 0.950058 0.178326
vt 0.652687 0.508911
vt 0.929255 0.160736
vt 0.642286 0.500116
vt 0.918853 0.151940
vt 0.631884 0.491320
vt 0.908452 0.143145
vt 0.621483 0.482525
vt 0.898050 0.134350
vt 0.295661 0.408139
vt 0.277831 0.421093
vt 0.273621 0.408139
vt 0.573119 0.620716
vt 0.685919 0.645397
vt 0.710279 0.720368
vt 0.774053 0.674034
vt 0.879817 0.720368
vt 0.762669 0.881609
vt 0.685919 0.795339
vt 0.631450 0.720368
vt 0.762669 0.559128
vt 0.774053 0.766703
vt 0.573119 0.820020
vt 0.358377 0.113161
vt 0.220981 0.212985
vt 0.245525 0.137448
vt 0.156725 0.166301
vt 0.051151 0.212985
vt 0.168501 0.374504
vt 0.245525 0.288523
vt 0.300406 0.212985
vt 0.168500 0.051467
vt 0.156725 0.259671
vt 0.358377 0.312809
vt 0.498053 0.403243
vt 0.592680 0.331780
vt 0.517995 0.420105
vt 0.348682 0.579895
vt 0.293938 0.685082
vt 0.273997 0.668220
vt 0.124626 0.844872
vt 0.069882 0.950060
vt 0.049940 0.933198
vt 0.647424 0.226592
vt 0.572739 0.314918
vt 0.443309 0.508431
vt 0.368624 0.596757
vt 0.219253 0.773408
vt 0.144567 0.861734
vt 0.722110 0.138266
vt 0.667366 0.243454
vt 0.423368 0.491569
vt 0.199311 0.756546
vt 0.796795 0.049940
vt 0.742051 0.155128
vt 0.611081 0.473730
vt 0.284641 0.400132
vt 0.291452 0.421093
vt 0.816737 0.066802
s 1
usemtl Material
f 2/1/1 3/2/1 1/3/1
f 4/4/2 5/5/2 3/2/2
f 6/6/3 7/7/3 5/5/3
f 8/8/4 9/9/4 7/7/4
f 10/10/5 1/11/5 9/9/5
f 3/12/6 7/13/6 9/14/6
f 19/15/7 18/16/7 21/17/7
f 16/18/8 15/19/8 21/17/8
f 13/20/9 12/21/9 21/17/9
f 20/22/10 19/15/10 21/17/10
f 17/23/11 16/18/11 21/17/11
f 14/24/12 13/20/12 21/17/12
f 11/25/13 20/22/13 21/17/13
f 18/16/14 17/23/14 21/17/14
f 15/19/15 14/24/15 21/17/15
f 12/21/16 11/25/16 21/17/16
f 30/26/17 32/27/17 29/28/17
f 27/29/18 32/27/18 26/30/18
f 24/31/19 32/27/19 23/32/19
f 31/33/20 32/27/20 30/26/20
f 28/34/21 32/27/21 27/29/21
f 25/35/22 32/27/22 24/31/22
f 22/36/23 32/27/23 31/33/23
f 29/28/24 32/27/24 28/34/24
f 26/30/25 32/27/25 25/35/25
f 23/32/26 32/27/26 22/36/26
f 17/37/27 29/38/27 28/39/27
f 15/40/28 25/41/28 14/42/28
f 12/43/29 22/44/29 11/45/29
f 19/46/30 29/38/30 18/47/30
f 15/40/31 27/48/31 26/49/31
f 12/43/32 24/50/32 23/51/32
f 20/52/33 30/53/33 19/46/33
f 17/37/34 27/48/34 16/54/34
f 14/42/35 24/50/35 13/55/35
f 11/56/36 31/57/36 20/52/36
f 2/1/1 4/4/1 3/2/1
f 4/4/2 6/6/2 5/5/2
f 6/6/3 8/8/3 7/7/3
f 8/8/4 10/10/4 9/9/4
f 10/10/5 2/58/5 1/11/5
f 9/14/6 1/59/6 3/12/6
f 3/12/6 5/60/6 7/13/6
f 17/37/27 18/47/27 29/38/27
f 15/40/28 26/49/28 25/41/28
f 12/43/29 23/51/29 22/44/29
f 19/46/30 30/53/30 29/38/30
f 15/40/31 16/54/31 27/48/31
f 12/43/32 13/55/32 24/50/32
f 20/52/33 31/57/33 30/53/33
f 17/37/34 28/39/34 27/48/34
f 14/42/35 25/41/35 24/50/35
f 11/56/36 22/61/36 31/57/36
