# Blender 4.4.0
# www.blender.org
mtllib wingL.mtl
o 平面
v 0.024089 -0.272226 -0.000000
v 0.291146 -0.541601 -0.000000
v 0.024089 0.065196 0.000000
v 0.412683 0.119713 0.000000
v 0.024089 -0.103515 -0.000000
v 0.568402 -0.228582 -0.000000
v 0.024089 -0.272226 -0.010000
v 0.291146 -0.541601 -0.010000
v 0.024089 0.065196 -0.010000
v 0.412683 0.119713 -0.010000
v 0.024089 -0.103515 -0.010000
v 0.568402 -0.228582 -0.010000
v 0.022303 0.049951 0.021368
v 0.561039 0.094178 0.021368
v 0.022303 0.182145 0.021368
v 0.268591 0.583343 0.021368
v 0.022303 0.116048 0.021368
v 0.623706 0.567790 0.021368
v 0.022303 0.049951 0.011368
v 0.561039 0.094178 0.011368
v 0.022303 0.182145 0.011368
v 0.268591 0.583343 0.011368
v 0.022303 0.116048 0.011368
v 0.623706 0.567790 0.011368
vn -0.0000 -0.0000 1.0000
vn -0.0000 -0.0000 -1.0000
vn -1.0000 -0.0000 -0.0000
vn -0.7102 -0.7040 -0.0000
vn 0.9129 0.4082 -0.0000
vn -0.1389 0.9903 -0.0000
vn 0.7486 -0.6630 -0.0000
vn 0.0818 -0.9966 -0.0000
vn 0.0438 0.9990 -0.0000
vn -0.8522 0.5232 -0.0000
vn 0.9914 -0.1312 -0.0000
vt 0.000000 0.500000
vt 1.000000 1.000000
vt 0.000000 1.000000
vt 0.000000 0.000000
vt 1.000000 0.500000
vt 1.000000 0.000000
s 1
f 5/1/1 4/2/1 3/3/1
f 1/4/1 6/5/1 5/1/1
f 11/1/2 10/2/2 12/5/2
f 7/4/2 12/5/2 8/6/2
f 1/4/3 11/1/3 7/4/3
f 2/6/4 7/4/4 8/6/4
f 6/5/5 10/2/5 4/2/5
f 4/2/6 9/3/6 3/3/6
f 3/3/3 11/1/3 5/1/3
f 2/6/7 12/5/7 6/5/7
f 18/5/1 15/3/1 17/1/1
f 14/6/1 17/1/1 13/4/1
f 21/3/2 24/5/2 23/1/2
f 23/1/2 20/6/2 19/4/2
f 17/1/3 19/4/3 13/4/3
f 13/4/8 20/6/8 14/6/8
f 18/5/9 22/2/9 16/2/9
f 16/2/10 21/3/10 15/3/10
f 15/3/3 23/1/3 17/1/3
f 14/6/11 24/5/11 18/5/11
f 5/1/1 6/5/1 4/2/1
f 1/4/1 2/6/1 6/5/1
f 11/1/2 9/3/2 10/2/2
f 7/4/2 11/1/2 12/5/2
f 1/4/3 5/1/3 11/1/3
f 2/6/4 1/4/4 7/4/4
f 6/5/5 12/5/5 10/2/5
f 4/2/6 10/2/6 9/3/6
f 3/3/3 9/3/3 11/1/3
f 2/6/7 8/6/7 12/5/7
f 18/5/1 16/2/1 15/3/1
f 14/6/1 18/5/1 17/1/1
f 21/3/2 22/2/2 24/5/2
f 23/1/2 24/5/2 20/6/2
f 17/1/3 23/1/3 19/4/3
f 13/4/8 19/4/8 20/6/8
f 18/5/9 24/5/9 22/2/9
f 16/2/10 22/2/10 21/3/10
f 15/3/3 21/3/3 23/1/3
f 14/6/11 20/6/11 24/5/11
