# Blender 4.4.0
# www.blender.org
mtllib PlayerBullet.mtl
o 立方体
v 0.085070 -0.085070 -0.471513
v 0.085070 0.085070 -0.471513
v 0.056047 -0.056047 0.471513
v 0.056047 0.056047 0.471513
v -0.085070 -0.085070 -0.471513
v -0.085070 0.085070 -0.471513
v -0.056047 -0.056047 0.471513
v -0.056047 0.056047 0.471513
v 0.000000 -0.085070 0.471513
v 0.000000 0.085070 0.471513
v 0.000000 -0.208848 -0.471513
v 0.000000 0.208848 -0.471513
v 0.208848 0.000000 -0.471513
v 0.085070 0.000000 0.471513
v -0.085070 0.000000 0.471513
v -0.208848 0.000000 -0.471513
v 0.000000 0.000000 -0.400028
v 0.000000 0.000000 0.755308
v -0.067028 0.067028 -0.303914
v -0.067722 0.067722 -0.326441
v -0.067028 -0.067028 -0.303914
v -0.067722 -0.067722 -0.326441
v 0.067722 0.067722 -0.326441
v 0.067028 0.067028 -0.303914
v 0.067722 -0.067722 -0.326441
v 0.067028 -0.067028 -0.303914
v 0.079846 -0.079846 -0.301761
v 0.080672 -0.080672 -0.328595
v 0.079846 0.079846 -0.301761
v 0.080672 0.080672 -0.328595
v -0.080672 -0.080672 -0.328595
v -0.079846 -0.079846 -0.301761
v -0.080672 0.080672 -0.328595
v -0.079846 0.079846 -0.301761
v 0.000000 0.186570 -0.301789
v 0.000000 0.190085 -0.328566
v 0.000000 -0.186570 -0.301789
v 0.000000 -0.190085 -0.328566
v -0.186570 0.000000 -0.301789
v -0.190085 0.000000 -0.328566
v 0.190085 0.000000 -0.328566
v 0.186570 0.000000 -0.301789
v 0.000000 0.156621 -0.303938
v 0.000000 0.159572 -0.326417
v 0.000000 -0.156621 -0.303938
v 0.000000 -0.159572 -0.326417
v -0.156621 0.000000 -0.303938
v -0.159572 0.000000 -0.326417
v 0.159572 0.000000 -0.326417
v 0.156621 0.000000 -0.303938
vn 0.8219 0.5648 0.0741
vn -0.8581 0.4444 0.2572
vn -0.4594 0.8872 0.0414
vn -0.2929 -0.4262 -0.8559
vn -0.5929 -0.8041 0.0430
vn -0.7982 -0.5972 0.0784
vn -0.5972 0.7982 0.0784
vn 0.7982 0.5972 0.0784
vn 0.2929 -0.4262 -0.8559
vn 0.8581 0.4444 0.2572
vn 0.4444 -0.8581 0.2572
vn 0.4262 0.2929 -0.8559
vn -0.4262 0.2929 -0.8559
vn -0.8041 0.5929 0.0430
vn -0.4444 -0.8581 0.2572
vn 0.8041 -0.5929 0.0430
vn 0.4594 -0.8872 0.0414
vn -0.8219 -0.5648 0.0741
vn 0.8872 -0.4594 0.0414
vn 0.5916 -0.8025 0.0777
vn 0.5648 0.8219 0.0741
vn -0.8872 -0.4594 0.0414
vn -0.5648 0.8219 0.0741
vn 0.5972 0.7982 0.0784
vn -0.0956 0.0712 -0.9929
vn -0.0713 0.0956 -0.9929
vn -0.0699 0.0952 0.9930
vn -0.0699 -0.0952 0.9930
vn -0.0952 0.0699 0.9930
vn -0.0956 -0.0712 -0.9929
vn -0.0952 -0.0699 0.9930
vn 0.0699 -0.0952 0.9930
vn 0.5929 -0.8041 0.0430
vn -0.5916 -0.8025 0.0777
vn 0.8025 -0.5916 0.0777
vn -0.8025 0.5916 0.0777
vn 0.8000 0.5985 0.0430
vn -0.8000 -0.5985 0.0430
vn -0.5985 0.8000 0.0430
vn 0.5985 0.8000 0.0430
vn -0.0713 -0.0956 -0.9929
vn 0.0713 0.0956 -0.9929
vn 0.0699 0.0952 0.9930
vn 0.0713 -0.0956 -0.9929
vn 0.0952 0.0699 0.9930
vn 0.0952 -0.0699 0.9930
vn 0.0956 0.0712 -0.9929
vn 0.0956 -0.0712 -0.9929
vn 0.8041 0.5929 0.0430
vn -0.4444 0.8581 0.2572
vn -0.7982 0.5972 0.0784
vn -0.4262 -0.2929 -0.8559
vn -0.5648 -0.8219 0.0741
vn -0.4594 -0.8872 0.0414
vn -0.8872 0.4594 0.0414
vn 0.4594 0.8872 0.0414
vn 0.4262 -0.2929 -0.8559
vn 0.4444 0.8581 0.2572
vn 0.8581 -0.4444 0.2572
vn 0.2929 0.4262 -0.8559
vn -0.2929 0.4262 -0.8559
vn -0.8219 0.5648 0.0741
vn -0.8581 -0.4444 0.2572
vn 0.8219 -0.5648 0.0741
vn 0.7982 -0.5972 0.0784
vn -0.8041 -0.5929 0.0430
vn 0.5972 -0.7982 0.0784
vn 0.5985 -0.8000 0.0430
vn 0.5929 0.8041 0.0430
vn -0.5972 -0.7982 0.0784
vn -0.5929 0.8041 0.0430
vn 0.8872 0.4594 0.0414
vn 0.5648 -0.8219 0.0741
vn -0.5985 -0.8000 0.0430
vn 0.8000 -0.5985 0.0430
vn -0.8000 0.5985 0.0430
vn 0.8025 0.5916 0.0777
vn -0.8025 -0.5916 0.0777
vn -0.5916 0.8025 0.0777
vn 0.5916 0.8025 0.0777
vt 0.750000 0.712104
vt 0.875000 0.750000
vt 0.750000 0.750000
vt 0.500000 0.375000
vt 0.625000 0.500000
vt 0.500000 0.500000
vt 0.750000 0.500000
vt 0.625000 0.704998
vt 0.500000 0.875000
vt 0.625000 1.000000
vt 0.500000 1.000000
vt 0.500000 0.712104
vt 0.375000 0.750000
vt 0.375000 0.712112
vt 0.250000 0.500000
vt 0.375000 0.704998
vt 0.250000 0.705006
vt 0.500000 0.705006
vt 0.875000 0.704998
vt 0.750000 0.705006
vt 0.625000 0.750000
vt 0.500000 0.750000
vt 0.625000 0.250000
vt 0.500000 0.250000
vt 0.375000 0.250000
vt 0.375000 0.375000
vt 0.375000 0.875000
vt 0.375000 1.000000
vt 0.750000 0.712104
vt 0.625000 0.712112
vt 0.375000 0.500000
vt 0.250000 0.712104
vt 0.125000 0.750000
vt 0.125000 0.712112
vt 0.125000 0.704998
vt 0.125000 0.500000
vt 0.250000 0.712104
vt 0.250000 0.750000
vt 0.375000 0.045002
vt 0.500000 0.044995
vt 0.375000 0.037888
vt 0.500000 0.037896
vt 0.625000 0.000000
vt 0.500000 0.000000
vt 0.375000 0.704998
vt 0.625000 0.045002
vt 0.500000 0.044995
vt 0.625000 0.712112
vt 0.375000 0.712112
vt 0.375000 0.000000
vt 0.500000 0.705005
vt 0.875000 0.712112
vt 0.625000 0.037888
vt 0.625000 0.375000
vt 0.625000 0.875000
vt 0.875000 0.500000
s 0
f 36/1/1 2/2/1 12/3/1
f 18/4/2 8/5/2 15/6/2
f 10/7/3 34/8/3 8/5/3
f 17/9/4 2/10/4 13/11/4
f 40/12/5 5/13/5 31/14/5
f 9/15/6 32/16/6 37/17/6
f 15/6/7 34/8/7 39/18/7
f 10/7/8 29/19/8 35/20/8
f 6/21/9 17/9/9 16/22/9
f 4/23/10 18/4/10 14/24/10
f 3/25/11 18/4/11 9/26/11
f 5/13/12 17/9/12 11/27/12
f 17/9/13 1/28/13 11/27/13
f 36/29/14 6/21/14 33/30/14
f 18/4/15 7/31/15 9/26/15
f 38/32/16 1/33/16 28/34/16
f 9/15/17 27/35/17 3/36/17
f 38/37/18 5/13/18 11/38/18
f 27/39/19 14/24/19 3/25/19
f 50/40/20 25/41/20 49/42/20
f 2/43/21 41/42/21 13/44/21
f 15/6/22 32/45/22 7/31/22
f 40/12/23 6/21/23 16/22/23
f 29/46/24 14/24/24 42/47/24
f 34/8/25 43/20/25 19/8/25
f 34/8/26 47/18/26 39/18/26
f 33/48/27 48/12/27 20/48/27
f 31/14/28 48/12/28 40/12/28
f 33/30/29 44/29/29 36/29/29
f 32/16/30 45/17/30 37/17/30
f 31/49/31 46/37/31 22/49/31
f 28/41/32 49/42/32 25/41/32
f 1/50/33 41/42/33 28/41/33
f 22/14/34 47/51/34 48/12/34
f 25/34/35 45/17/35 46/32/35
f 20/30/36 43/20/36 44/29/36
f 23/52/37 43/20/37 24/19/37
f 22/49/38 45/17/38 21/16/38
f 20/48/39 47/18/39 19/8/39
f 50/47/40 23/53/40 24/46/40
f 32/45/41 47/51/41 21/45/41
f 29/46/42 50/47/42 24/46/42
f 30/53/43 49/42/43 41/42/43
f 27/39/44 50/40/44 42/40/44
f 30/52/45 44/1/45 23/52/45
f 28/34/46 46/32/46 38/32/46
f 29/19/47 43/20/47 35/20/47
f 27/35/48 45/17/48 26/35/48
f 36/1/49 30/52/49 2/2/49
f 18/4/50 10/54/50 8/5/50
f 10/7/51 35/20/51 34/8/51
f 17/9/52 12/55/52 2/10/52
f 40/12/53 16/22/53 5/13/53
f 9/15/54 7/31/54 32/16/54
f 15/6/55 8/5/55 34/8/55
f 10/7/56 4/56/56 29/19/56
f 6/21/57 12/55/57 17/9/57
f 4/23/58 10/54/58 18/4/58
f 3/25/59 14/24/59 18/4/59
f 5/13/60 16/22/60 17/9/60
f 17/9/61 13/11/61 1/28/61
f 36/29/62 12/3/62 6/21/62
f 18/4/63 15/6/63 7/31/63
f 38/32/64 11/38/64 1/33/64
f 9/15/65 37/17/65 27/35/65
f 38/37/66 31/49/66 5/13/66
f 27/39/67 42/40/67 14/24/67
f 50/40/68 26/39/68 25/41/68
f 2/43/69 30/53/69 41/42/69
f 15/6/70 39/51/70 32/45/70
f 40/12/71 33/48/71 6/21/71
f 29/46/72 4/23/72 14/24/72
f 34/8/25 35/20/25 43/20/25
f 34/8/26 19/8/26 47/18/26
f 33/48/27 40/12/27 48/12/27
f 31/14/28 22/14/28 48/12/28
f 33/30/29 20/30/29 44/29/29
f 32/16/30 21/16/30 45/17/30
f 31/49/31 38/37/31 46/37/31
f 28/41/32 41/42/32 49/42/32
f 1/50/73 13/44/73 41/42/73
f 22/14/74 21/45/74 47/51/74
f 25/34/75 26/35/75 45/17/75
f 20/30/76 19/8/76 43/20/76
f 23/52/77 44/1/77 43/20/77
f 22/49/78 46/37/78 45/17/78
f 20/48/79 48/12/79 47/18/79
f 50/47/80 49/42/80 23/53/80
f 32/45/41 39/51/41 47/51/41
f 29/46/42 42/47/42 50/47/42
f 30/53/43 23/53/43 49/42/43
f 27/39/44 26/39/44 50/40/44
f 30/52/45 36/1/45 44/1/45
f 28/34/46 25/34/46 46/32/46
f 29/19/47 24/19/47 43/20/47
f 27/35/48 37/17/48 45/17/48
