# Blender 4.4.0
# www.blender.org
mtllib Axis.mtl
o 立方体
v 0.051341 -0.051341 -0.051341
v 0.051341 0.051341 -0.051341
v 0.051341 -0.051341 0.051341
v 0.051341 0.051341 0.051341
v -0.051341 -0.051341 -0.051341
v -0.051341 0.051341 -0.051341
v -0.051341 -0.051341 0.051341
v -0.051341 0.051341 0.051341
v 0.051341 -0.051341 0.999518
v 0.051341 0.051341 0.999518
v -0.051341 0.051341 0.999518
v -0.051341 -0.051341 0.999518
v -0.999113 -0.051341 0.051341
v -0.999113 0.051341 0.051341
v -0.999113 0.051341 -0.051341
v -0.999113 -0.051341 -0.051341
v -0.051341 0.999468 0.051341
v 0.051341 0.999468 0.051341
v 0.051341 0.999468 -0.051341
v -0.051341 0.999468 -0.051341
vn 1.0000 -0.0000 -0.0000
vn -0.0000 -0.0000 -1.0000
vn -0.0000 -1.0000 -0.0000
vn -0.0000 -0.0000 1.0000
vn -0.0000 1.0000 -0.0000
vn -1.0000 -0.0000 -0.0000
vt 0.106745 0.011227
vt 0.058986 0.058986
vt 0.058986 0.011227
vt 0.272476 0.058986
vt 0.224717 0.011227
vt 0.272476 0.011227
vt 0.390448 0.940637
vt 0.438208 0.988397
vt 0.390448 0.988397
vt 0.106745 0.500000
vt 0.058986 0.547759
vt 0.058986 0.500000
vt 0.106745 0.058986
vt 0.106745 0.547759
vt 0.154505 0.988773
vt 0.106745 0.988773
vt 0.058986 0.988773
vt 0.011227 0.547759
vt 0.011227 0.988773
vt 0.390448 0.452052
vt 0.438208 0.499812
vt 0.390448 0.499812
vt 0.342689 0.011227
vt 0.390448 0.011227
vt 0.438207 0.452052
vt 0.438207 0.011227
vt 0.485967 0.452052
vt 0.485967 0.011227
vt 0.438208 0.940637
vt 0.224717 0.547736
vt 0.272476 0.499977
vt 0.272476 0.547736
vt 0.272476 0.988727
vt 0.224717 0.988727
vt 0.176958 0.547736
vt 0.176958 0.988727
vt 0.224717 0.058986
vt 0.320236 0.988727
vt 0.154504 0.547759
vt 0.342689 0.452052
vt 0.224717 0.499977
vt 0.320236 0.547736
s 0
usemtl Material
f 2/1/1 3/2/1 1/3/1
f 6/4/2 1/5/2 5/6/2
f 7/7/3 1/8/3 3/9/3
f 10/10/4 12/11/4 9/12/4
f 10/10/1 3/2/1 4/13/1
f 11/14/5 4/15/5 8/16/5
f 12/11/6 8/16/6 7/17/6
f 9/18/3 7/17/3 3/19/3
f 14/20/6 16/21/6 13/22/6
f 14/20/4 7/23/4 8/24/4
f 15/25/5 8/24/5 6/26/5
f 16/27/2 6/26/2 5/28/2
f 13/22/3 5/29/3 7/7/3
f 18/30/5 20/31/5 17/32/5
f 18/30/4 8/33/4 4/34/4
f 19/35/1 4/34/1 2/36/1
f 20/31/2 2/37/2 6/4/2
f 17/32/6 6/38/6 8/33/6
f 2/1/1 4/13/1 3/2/1
f 6/4/2 2/37/2 1/5/2
f 7/7/3 5/29/3 1/8/3
f 10/10/4 11/14/4 12/11/4
f 10/10/1 9/12/1 3/2/1
f 11/14/5 10/39/5 4/15/5
f 12/11/6 11/14/6 8/16/6
f 9/18/3 12/11/3 7/17/3
f 14/20/6 15/25/6 16/21/6
f 14/20/4 13/40/4 7/23/4
f 15/25/5 14/20/5 8/24/5
f 16/27/2 15/25/2 6/26/2
f 13/22/3 16/21/3 5/29/3
f 18/30/5 19/41/5 20/31/5
f 18/30/4 17/32/4 8/33/4
f 19/35/1 18/30/1 4/34/1
f 20/31/2 19/41/2 2/37/2
f 17/32/6 20/42/6 6/38/6
