# Blender 4.4.0
# www.blender.org
mtllib stateArea.mtl
o stateArea
v 2.094927 -0.653225 -0.000001
v -1.157809 -0.653225 -0.000038
v 1.122967 0.730346 -0.000012
v -2.046397 0.730346 -0.000048
v 2.094927 0.038560 -0.000001
v -2.046397 0.038560 -0.000048
v 0.024265 -0.653225 -0.000025
v 0.024265 0.730346 -0.000025
v 0.024265 0.038560 -0.000025
v 2.067552 -1.011345 -0.000310
v -0.667065 -1.011345 0.006650
v 2.067552 -0.785035 -0.000310
v -1.009050 -0.785035 0.007520
vn -0.0000 -0.0000 -1.0000
vn -0.0025 -0.0000 -1.0000
vt 1.000000 0.500000
vt 0.500000 1.000000
vt 0.500000 0.500000
vt 0.785434 0.000000
vt 0.500000 0.000000
vt 0.000000 0.500000
vt 0.000000 0.000000
vt 0.234698 1.000000
vt 0.713327 0.000000
vt 0.000000 1.000000
vt 1.000000 1.000000
vt 0.802534 1.000000
s 1
usemtl マテリアル.001
f 6/1/1 8/2/1 9/3/1
f 2/4/1 9/3/1 7/5/1
f 7/5/1 5/6/1 1/7/1
f 9/3/1 3/8/1 5/6/1
f 11/9/2 12/10/2 10/7/2
f 6/1/1 4/11/1 8/2/1
f 2/4/1 6/1/1 9/3/1
f 7/5/1 9/3/1 5/6/1
f 9/3/1 8/2/1 3/8/1
f 11/9/2 13/12/2 12/10/2
