# Blender 4.4.0
# www.blender.org
mtllib armR.mtl
o 円柱.002
v -1.078544 0.000462 -0.174291
v -0.004245 0.000462 -0.174291
v -1.078544 -0.179294 -0.043691
v -0.004245 -0.179294 -0.043691
v -1.078544 -0.110633 0.167626
v -0.004245 -0.110633 0.167626
v -1.078544 0.111558 0.167626
v -0.004245 0.111558 0.167626
v -1.078544 0.180219 -0.043691
v -0.004245 0.180219 -0.043691
vn -0.0000 -0.5878 -0.8090
vn -0.0000 -0.9511 0.3090
vn -0.0000 -0.0000 1.0000
vn 1.0000 -0.0000 -0.0000
vn -0.0000 0.9511 0.3090
vn -0.0000 0.5878 -0.8090
vn -1.0000 -0.0000 -0.0000
vt 0.655783 0.050528
vt 0.050528 0.175709
vt 0.050528 0.050528
vt 0.655783 0.175709
vt 0.050528 0.300891
vt 0.655783 0.300891
vt 0.050528 0.426072
vt 0.875893 0.253075
vt 0.756838 0.089211
vt 0.875892 0.050528
vt 0.655783 0.426072
vt 0.050528 0.551254
vt 0.655783 0.551254
vt 0.050528 0.676435
vt 0.756838 0.455405
vt 0.949472 0.392814
vt 0.949472 0.517996
vt 0.949472 0.151802
vt 0.756838 0.214393
vt 0.655783 0.676435
vt 0.830418 0.556678
vt 0.830418 0.354131
s 1
usemtl Material
f 2/1/1 3/2/1 1/3/1
f 4/4/2 5/5/2 3/2/2
f 6/6/3 7/7/3 5/5/3
f 2/8/4 8/9/4 6/10/4
f 8/11/5 9/12/5 7/7/5
f 10/13/6 1/14/6 9/12/6
f 3/15/7 7/16/7 9/17/7
f 2/1/1 4/4/1 3/2/1
f 4/4/2 6/6/2 5/5/2
f 6/6/3 8/11/3 7/7/3
f 6/10/4 4/18/4 2/8/4
f 2/8/4 10/19/4 8/9/4
f 8/11/5 10/13/5 9/12/5
f 10/13/6 2/20/6 1/14/6
f 9/17/7 1/21/7 3/15/7
f 3/15/7 5/22/7 7/16/7
