{
	"asset":{
		"generator":"Khronos glTF Blender I/O v4.4.55",
		"version":"2.0"
	},
	"scene":0,
	"scenes":[
		{
			"name":"Scene",
			"nodes":[
				0
			]
		}
	],
	"nodes":[
		{
			"mesh":0,
			"name":"UtahTeapot"
		}
	],
	"materials":[
		{
			"doubleSided":true,
			"name":"Material",
			"pbrMetallicRoughness":{
				"baseColorFactor":[
					0.800000011920929,
					0.800000011920929,
					0.800000011920929,
					1
				],
				"metallicFactor":0,
				"roughnessFactor":0.5
			}
		}
	],
	"meshes":[
		{
			"name":"UtahTeapot",
			"primitives":[
				{
					"attributes":{
						"POSITION":0,
						"NORMAL":1,
						"TEXCOORD_0":2
					},
					"indices":3,
					"material":0
				}
			]
		}
	],
	"accessors":[
		{
			"bufferView":0,
			"componentType":5126,
			"count":15218,
			"max":[
				0.9591113924980164,
				0.9339724779129028,
				0.5929983854293823
			],
			"min":[
				-0.9485644102096558,
				0,
				-0.5929983854293823
			],
			"type":"VEC3"
		},
		{
			"bufferView":1,
			"componentType":5126,
			"count":15218,
			"type":"VEC3"
		},
		{
			"bufferView":2,
			"componentType":5126,
			"count":15218,
			"type":"VEC2"
		},
		{
			"bufferView":3,
			"componentType":5123,
			"count":18960,
			"type":"SCALAR"
		}
	],
	"bufferViews":[
		{
			"buffer":0,
			"byteLength":182616,
			"byteOffset":0,
			"target":34962
		},
		{
			"buffer":0,
			"byteLength":182616,
			"byteOffset":182616,
			"target":34962
		},
		{
			"buffer":0,
			"byteLength":121744,
			"byteOffset":365232,
			"target":34962
		},
		{
			"buffer":0,
			"byteLength":37920,
			"byteOffset":486976,
			"target":34963
		}
	],
	"buffers":[
		{
			"byteLength":524896,
			"uri":"UtahTeapot.bin"
		}
	]
}
