# Blender 4.4.0
# www.blender.org
mtllib EnemyBullet.mtl
o 立方体
v 0.281206 -0.281206 -0.543816
v 0.281206 0.281206 -0.543816
v 0.225101 -0.215750 0.538415
v 0.225101 0.206399 0.538415
v -0.281206 -0.281206 -0.543816
v -0.281206 0.281206 -0.543816
v -0.197048 -0.215750 0.538415
v -0.197048 0.206399 0.538415
v -0.093735 -0.281206 0.543816
v 0.093735 -0.281206 0.543816
v 0.093735 0.281206 0.543816
v -0.093735 0.281206 0.543816
v 0.093735 -0.281206 0.435549
v -0.093735 -0.281206 0.435549
v -0.093735 0.281206 0.435549
v 0.093735 0.281206 0.435549
v 0.225101 -0.075034 0.457150
v 0.281206 0.093735 0.435549
v 0.281206 0.093735 0.543816
v 0.281206 -0.093735 0.543816
v -0.281206 0.093735 0.543816
v -0.281206 -0.093735 0.543816
v -0.281206 0.093735 0.435549
v -0.281206 -0.093735 0.435549
v -0.093735 0.093735 0.510763
v -0.093735 -0.093735 0.510763
v 0.093735 0.093735 0.510763
v 0.093735 -0.093735 0.510763
v 0.093735 0.093735 0.676448
v 0.093735 -0.093735 0.676448
v -0.093735 0.093735 0.676448
v -0.093735 -0.093735 0.676448
vn 0.8951 0.4458 -0.0000
vn -0.5226 0.4258 0.7387
vn -0.8012 0.5985 -0.0000
vn -0.3490 -0.3490 -0.8698
vn -0.5352 -0.8447 -0.0000
vn 0.4948 0.8690 -0.0000
vn -0.5171 0.8502 0.0990
vn -0.0000 1.0000 -0.0000
vn 0.3965 -0.9149 0.0759
vn -0.0000 -1.0000 -0.0000
vn 0.3490 -0.3490 -0.8698
vn -0.0000 -0.3724 -0.9281
vn 0.5490 0.3106 0.7760
vn -0.0000 0.5776 0.8164
vn -0.0000 -0.5776 0.8164
vn -0.0000 -0.0000 1.0000
vn 0.3059 -0.5499 0.7772
vn 0.5776 -0.0000 0.8164
vn -0.0000 0.3724 -0.9281
vn -0.0000 -0.0000 -1.0000
vn 0.7007 0.7007 -0.1341
vn 0.3724 -0.0000 -0.9281
vn -0.8252 0.5423 -0.1580
vn -0.3779 -0.0000 -0.9259
vn -0.8557 -0.5082 0.0973
vn -1.0000 -0.0000 -0.0000
vn -0.3782 -0.5346 0.7557
vn -0.5776 -0.0000 0.8164
vn 0.9983 0.0289 0.0500
vn 0.8394 -0.0000 -0.5434
vn 0.9181 0.3892 0.0745
vn -0.4186 0.5245 0.7414
vn -0.8394 0.5338 0.1022
vn -0.7007 -0.7007 -0.1341
vn -0.4679 -0.8792 0.0896
vn 0.4422 0.8929 0.0846
vn -0.5865 0.8100 -0.0000
vn 0.4460 -0.8950 -0.0000
vn 0.7007 -0.7007 -0.1341
vn 0.3408 0.5430 0.7675
vn 0.5529 -0.2888 0.7816
vn 0.3490 0.3490 -0.8698
vn -0.3964 0.3419 -0.8521
vn -0.3724 0.0050 -0.9281
vn -0.8232 -0.5678 -0.0000
vn -0.5297 -0.3985 0.7487
vn 0.7604 -0.3248 -0.5624
vn 0.9489 -0.3155 -0.0000
vt 0.541667 0.000000
vt 0.625000 0.250000
vt 0.541667 0.250000
vt 0.541667 0.416667
vt 0.625000 0.500000
vt 0.541667 0.500000
vt 0.541667 0.750000
vt 0.625000 0.916667
vt 0.541667 1.000000
vt 0.541667 0.916667
vt 0.375000 0.500000
vt 0.291667 0.750000
vt 0.291667 0.500000
vt 0.875000 0.500000
vt 0.791667 0.750000
vt 0.791667 0.500000
vt 0.708333 0.750000
vt 0.625000 0.750000
vt 0.708333 0.500000
vt 0.125000 0.500000
vt 0.208333 0.750000
vt 0.125000 0.750000
vt 0.208333 0.500000
vt 0.625000 0.833333
vt 0.541667 0.833333
vt 0.541667 0.333333
vt 0.625000 0.333333
vt 0.458333 0.333333
vt 0.375000 0.416667
vt 0.375000 0.333333
vt 0.458333 0.416667
vt 0.375000 0.250000
vt 0.458333 0.250000
vt 0.458333 0.833333
vt 0.375000 0.916667
vt 0.375000 0.833333
vt 0.458333 0.916667
vt 0.458333 0.750000
vt 0.375000 0.750000
vt 0.458333 1.000000
vt 0.375000 1.000000
vt 0.458333 0.500000
vt 0.458333 0.000000
vt 0.375000 0.000000
vt 0.625000 0.000000
vt 0.625000 0.416667
vt 0.625000 1.000000
vt 0.875000 0.750000
s 0
f 18/1/1 4/2/1 19/3/1
f 31/4/2 8/5/2 21/6/2
f 8/5/3 23/7/3 21/6/3
f 16/8/4 18/9/4 27/10/4
f 7/11/5 14/12/5 9/13/5
f 4/14/6 16/15/6 11/16/6
f 8/5/7 15/17/7 6/18/7
f 11/16/8 15/17/8 12/19/8
f 3/20/9 13/21/9 1/22/9
f 9/13/10 13/21/10 10/23/10
f 23/7/11 15/24/11 25/25/11
f 15/24/12 27/10/12 25/25/12
f 4/2/13 29/26/13 19/3/13
f 11/27/14 31/4/14 29/26/14
f 30/28/15 9/29/15 10/30/15
f 29/26/16 32/31/16 30/28/16
f 3/32/17 30/28/17 10/30/17
f 19/3/18 30/28/18 20/33/18
f 26/34/19 13/35/19 14/36/19
f 25/25/20 28/37/20 26/34/20
f 24/38/21 14/36/21 5/39/21
f 23/7/22 26/34/22 24/38/22
f 13/35/23 17/40/23 1/41/23
f 27/10/24 17/40/24 28/37/24
f 7/11/25 24/38/25 5/39/25
f 21/6/26 24/38/26 22/42/26
f 32/31/27 7/11/27 9/29/27
f 31/4/28 22/42/28 32/31/28
f 17/43/29 3/32/29 1/44/29
f 17/43/30 19/3/30 20/33/30
f 18/1/31 2/45/31 4/2/31
f 31/4/32 12/46/32 8/5/32
f 8/5/33 6/18/33 23/7/33
f 16/8/34 2/47/34 18/9/34
f 7/11/35 5/39/35 14/12/35
f 4/14/36 2/48/36 16/15/36
f 8/5/37 12/19/37 15/17/37
f 11/16/8 16/15/8 15/17/8
f 3/20/38 10/23/38 13/21/38
f 9/13/10 14/12/10 13/21/10
f 23/7/39 6/18/39 15/24/39
f 15/24/12 16/8/12 27/10/12
f 4/2/40 11/27/40 29/26/40
f 11/27/14 12/46/14 31/4/14
f 30/28/15 32/31/15 9/29/15
f 29/26/16 31/4/16 32/31/16
f 3/32/41 20/33/41 30/28/41
f 19/3/18 29/26/18 30/28/18
f 26/34/19 28/37/19 13/35/19
f 25/25/20 27/10/20 28/37/20
f 24/38/42 26/34/42 14/36/42
f 23/7/22 25/25/22 26/34/22
f 13/35/43 28/37/43 17/40/43
f 27/10/44 18/9/44 17/40/44
f 7/11/45 22/42/45 24/38/45
f 21/6/26 23/7/26 24/38/26
f 32/31/46 22/42/46 7/11/46
f 31/4/28 21/6/28 22/42/28
f 17/43/47 20/33/47 3/32/47
f 17/43/48 18/1/48 19/3/48
