# Blender 4.4.0
# www.blender.org
mtllib house.mtl
o 立方体.006
v 0.130295 0.298465 0.880977
v 0.130295 0.817242 0.880977
v 0.130295 0.298465 0.814460
v 0.130295 0.817242 0.814460
v 0.886967 0.298465 0.880977
v 0.886967 0.817242 0.880977
v 0.886967 0.298465 0.814460
v 0.886967 0.817242 0.814460
v 1.261691 0.000909 -0.841127
v 1.261691 1.090312 -0.841127
v 1.261691 0.000909 0.841127
v 1.261691 1.090312 0.841127
v -1.261691 0.000909 -0.841127
v -1.261691 1.090312 -0.841127
v -1.261691 0.000909 0.841127
v -1.261691 1.090312 0.841127
v 1.580553 1.071277 -1.000000
v 1.580553 1.937194 0.000000
v 1.580553 1.071277 1.000000
v -1.580553 1.071277 -1.000000
v -1.580553 1.937194 0.000000
v -1.580553 1.071277 1.000000
v -0.303391 0.012946 -0.876087
v -0.303391 0.656478 -0.876087
v -0.303391 0.012946 -0.725281
v -0.303391 0.656478 -0.725281
v -0.720434 0.012946 -0.876087
v -0.720434 0.656478 -0.876087
v -0.720434 0.012946 -0.725281
v -0.720434 0.656478 -0.725281
v 0.886967 0.298465 -0.880977
v 0.886967 0.817242 -0.880977
v 0.886967 0.298465 -0.814460
v 0.886967 0.817242 -0.814460
v 0.130295 0.298465 -0.880977
v 0.130295 0.817242 -0.880977
v 0.130295 0.298465 -0.814460
v 0.130295 0.817242 -0.814460
v -1.291164 0.298465 -0.378336
v -1.291164 0.817242 -0.378336
v -1.224646 0.298465 -0.378336
v -1.224646 0.817242 -0.378336
v -1.291164 0.298465 0.378336
v -1.291164 0.817242 0.378336
v -1.224646 0.298465 0.378336
v -1.224646 0.817242 0.378336
v 1.296633 0.298465 0.378336
v 1.296633 0.817242 0.378336
v 1.230116 0.298465 0.378336
v 1.230116 0.817242 0.378336
v 1.296633 0.298465 -0.378336
v 1.296633 0.817242 -0.378336
v 1.230116 0.298465 -0.378336
v 1.230116 0.817242 -0.378336
vn -1.0000 -0.0000 -0.0000
vn 1.0000 -0.0000 -0.0000
vn -0.0000 -0.0000 1.0000
vn -0.0000 -1.0000 -0.0000
vn -0.0000 1.0000 -0.0000
vn -0.0000 -0.0000 -1.0000
vn -0.0000 0.7560 0.6546
vn -0.0000 0.7560 -0.6546
vt 0.849052 0.929170
vt 0.807058 0.934555
vt 0.807058 0.929170
vt 0.849052 0.862534
vt 0.807058 0.867919
vt 0.807058 0.862534
vt 0.849052 0.867919
vt 0.801673 0.867919
vt 0.801673 0.929170
vt 0.854437 0.929170
vt 0.854437 0.867919
vt 0.289808 0.446083
vt 0.153631 0.357897
vt 0.289808 0.357897
vt 0.065445 0.357897
vt 0.153631 0.153631
vt 0.153631 0.065445
vt 0.289808 0.153631
vt 0.377994 0.153631
vt 0.266431 0.576973
vt 0.336526 0.657922
vt 0.266431 0.738871
vt 0.615965 0.321334
vt 0.723044 0.065445
vt 0.723044 0.321334
vt 0.065445 0.576973
vt 0.135540 0.657922
vt 0.065445 0.738871
vt 0.615965 0.065445
vt 0.508885 0.321334
vt 0.508885 0.065445
vt 0.508885 0.452224
vt 0.670783 0.708113
vt 0.508885 0.708113
vt 0.813881 0.516525
vt 0.801673 0.464432
vt 0.813881 0.464432
vt 0.859848 0.516525
vt 0.847640 0.464432
vt 0.859848 0.464432
vt 0.847640 0.516525
vt 0.847640 0.452224
vt 0.813881 0.452224
vt 0.813881 0.528733
vt 0.847640 0.528733
vt 0.556264 0.905639
vt 0.514269 0.911024
vt 0.514269 0.905639
vt 0.556264 0.839003
vt 0.514269 0.844387
vt 0.514269 0.839003
vt 0.556264 0.844387
vt 0.508885 0.844387
vt 0.508885 0.905639
vt 0.561648 0.905639
vt 0.561648 0.844387
vt 0.807058 0.665007
vt 0.849052 0.659623
vt 0.849052 0.665007
vt 0.807058 0.731644
vt 0.849052 0.726259
vt 0.849052 0.731644
vt 0.807058 0.726259
vt 0.854437 0.726259
vt 0.854437 0.665007
vt 0.801673 0.665007
vt 0.801673 0.726259
vt 0.859319 0.070830
vt 0.901314 0.065445
vt 0.901314 0.070830
vt 0.859319 0.137466
vt 0.901314 0.132082
vt 0.901314 0.137466
vt 0.859319 0.132082
vt 0.906698 0.132082
vt 0.906698 0.070830
vt 0.853935 0.070830
vt 0.853935 0.132082
vt 0.849052 0.934555
vt 0.153631 0.446083
vt 0.065445 0.153631
vt 0.289808 0.065445
vt 0.377994 0.357897
vt 0.670783 0.452224
vt 0.801673 0.516525
vt 0.556264 0.911024
vt 0.807058 0.659623
vt 0.859319 0.065445
s 0
usemtl Material
f 2/1/1 3/2/1 1/3/1
f 8/4/2 5/5/2 7/6/2
f 6/7/3 1/3/3 5/5/3
f 7/8/4 1/3/4 3/9/4
f 4/10/5 6/7/5 8/11/5
f 10/12/2 11/13/2 9/14/2
f 12/15/3 15/16/3 11/13/3
f 16/17/1 13/18/1 15/16/1
f 14/19/6 9/14/6 13/18/6
f 15/16/4 9/14/4 11/13/4
f 17/20/2 18/21/2 19/22/2
f 18/23/7 22/24/7 19/25/7
f 22/26/1 21/27/1 20/28/1
f 21/29/8 17/30/8 20/31/8
f 22/32/4 17/33/4 19/34/4
f 24/35/2 25/36/2 23/37/2
f 30/38/1 27/39/1 29/40/1
f 28/41/6 23/37/6 27/39/6
f 29/42/4 23/37/4 25/43/4
f 26/44/5 28/41/5 30/45/5
f 32/46/2 33/47/2 31/48/2
f 38/49/1 35/50/1 37/51/1
f 36/52/6 31/48/6 35/50/6
f 37/53/4 31/48/4 33/54/4
f 34/55/5 36/52/5 38/56/5
f 40/57/6 41/58/6 39/59/6
f 46/60/3 43/61/3 45/62/3
f 44/63/1 39/59/1 43/61/1
f 45/64/4 39/59/4 41/65/4
f 42/66/5 44/63/5 46/67/5
f 48/68/3 49/69/3 47/70/3
f 54/71/6 51/72/6 53/73/6
f 52/74/2 47/70/2 51/72/2
f 53/75/4 47/70/4 49/76/4
f 50/77/5 52/74/5 54/78/5
f 2/1/1 4/79/1 3/2/1
f 8/4/2 6/7/2 5/5/2
f 6/7/3 2/1/3 1/3/3
f 7/8/4 5/5/4 1/3/4
f 4/10/5 2/1/5 6/7/5
f 10/12/2 12/80/2 11/13/2
f 12/15/3 16/81/3 15/16/3
f 16/17/1 14/82/1 13/18/1
f 14/19/6 10/83/6 9/14/6
f 15/16/4 13/18/4 9/14/4
f 18/23/7 21/29/7 22/24/7
f 21/29/8 18/23/8 17/30/8
f 22/32/4 20/84/4 17/33/4
f 24/35/2 26/85/2 25/36/2
f 30/38/1 28/41/1 27/39/1
f 28/41/6 24/35/6 23/37/6
f 29/42/4 27/39/4 23/37/4
f 26/44/5 24/35/5 28/41/5
f 32/46/2 34/86/2 33/47/2
f 38/49/1 36/52/1 35/50/1
f 36/52/6 32/46/6 31/48/6
f 37/53/4 35/50/4 31/48/4
f 34/55/5 32/46/5 36/52/5
f 40/57/6 42/87/6 41/58/6
f 46/60/3 44/63/3 43/61/3
f 44/63/1 40/57/1 39/59/1
f 45/64/4 43/61/4 39/59/4
f 42/66/5 40/57/5 44/63/5
f 48/68/3 50/88/3 49/69/3
f 54/71/6 52/74/6 51/72/6
f 52/74/2 48/68/2 47/70/2
f 53/75/4 51/72/4 47/70/4
f 50/77/5 48/68/5 52/74/5
