# Blender 4.4.0
# www.blender.org
mtllib building_0.mtl
o 立方体
v -3.928972 0.003014 2.989982
v -3.928972 11.886854 2.989982
v -3.928972 0.003014 -2.989982
v -3.928972 11.886854 -2.989982
v 3.928972 0.003014 2.989982
v 3.928972 11.886854 2.989982
v 3.928972 0.003014 -2.989982
v 3.928972 11.886854 -2.989982
v -3.670355 8.795410 2.793173
v -3.670355 9.036379 2.793173
v 3.670355 9.036378 2.793173
v 3.670355 8.795409 2.793173
v -3.670355 5.824450 2.793173
v -3.670355 6.065419 2.793173
v 3.670355 6.065418 2.793173
v 3.670355 5.824449 2.793173
v -3.670355 2.853490 2.793173
v -3.670355 3.094459 2.793173
v 3.670355 3.094458 2.793173
v 3.670355 2.853489 2.793173
v -3.928972 3.094459 2.989982
v -3.928972 2.853490 2.989982
v -3.928972 6.065419 2.989982
v -3.928972 5.824450 2.989982
v -3.928972 9.036379 2.989982
v -3.928972 8.795410 2.989982
v -3.928972 8.795409 -2.989982
v -3.928972 9.036378 -2.989982
v -3.928972 5.824449 -2.989982
v -3.928972 6.065418 -2.989982
v -3.928972 2.853489 -2.989982
v -3.928972 3.094458 -2.989982
v 3.928972 8.795409 -2.989982
v 3.928972 9.036378 -2.989982
v 3.928972 5.824449 -2.989982
v 3.928972 6.065418 -2.989982
v 3.928972 2.853489 -2.989982
v 3.928972 3.094458 -2.989982
v 3.928972 8.795409 2.989982
v 3.928972 9.036378 2.989982
v 3.928972 5.824449 2.989982
v 3.928972 6.065418 2.989982
v 3.928972 2.853489 2.989982
v 3.928972 3.094458 2.989982
v 3.670355 2.853489 -2.793173
v 3.670355 3.094458 -2.793173
v 3.670355 5.824449 -2.793173
v 3.670355 6.065418 -2.793173
v 3.670355 8.795409 -2.793173
v 3.670355 9.036378 -2.793173
v -3.670355 2.853489 -2.793173
v -3.670355 3.094458 -2.793173
v -3.670355 5.824449 -2.793173
v -3.670355 6.065418 -2.793173
v -3.670355 8.795409 -2.793173
v -3.670355 9.036378 -2.793173
vn -0.0000 -0.0000 -1.0000
vn 1.0000 -0.0000 -0.0000
vn -1.0000 -0.0000 -0.0000
vn -0.0000 -1.0000 -0.0000
vn -0.0000 1.0000 -0.0000
vn -0.0000 -0.0000 1.0000
vt 0.625000 0.250000
vt 0.565035 0.500000
vt 0.565035 0.250000
vt 0.559965 0.250000
vt 0.502535 0.500000
vt 0.502535 0.250000
vt 0.559965 0.500000
vt 0.502535 0.750000
vt 0.502535 0.500000
vt 0.625000 0.000000
vt 0.565035 0.250000
vt 0.565035 0.000000
vt 0.375000 0.500000
vt 0.125000 0.750000
vt 0.125000 0.500000
vt 0.875000 0.500000
vt 0.625000 0.750000
vt 0.625000 0.500000
vt 0.497465 0.000000
vt 0.440035 0.250000
vt 0.440035 0.000000
vt 0.559965 0.000000
vt 0.502535 0.250000
vt 0.502535 0.000000
vt 0.565035 1.000000
vt 0.565035 0.750000
vt 0.440035 1.000000
vt 0.434965 0.750000
vt 0.440035 0.750000
vt 0.434965 0.500000
vt 0.375000 0.750000
vt 0.497465 0.500000
vt 0.440035 0.500000
vt 0.565035 0.750000
vt 0.565035 0.500000
vt 0.434965 0.250000
vt 0.375000 0.250000
vt 0.497465 0.250000
vt 0.375000 1.000000
vt 0.497465 0.750000
vt 0.559965 0.750000
vt 0.502535 1.000000
vt 0.502535 0.750000
vt 0.434965 0.000000
vt 0.497465 1.000000
vt 0.559965 0.500000
vt 0.375000 0.000000
vt 0.434965 1.000000
vt 0.559965 1.000000
vt 0.559965 0.750000
vt 0.559965 0.250000
vt 0.875000 0.750000
vt 0.625000 1.000000
s 0
f 4/1/1 34/2/1 28/3/1
f 27/4/1 36/5/1 30/6/1
f 33/7/2 42/8/2 36/9/2
f 2/10/3 28/11/3 25/12/3
f 7/13/4 1/14/4 3/15/4
f 4/16/5 6/17/5 8/18/5
f 24/19/3 32/20/3 21/21/3
f 26/22/3 30/23/3 23/24/3
f 6/17/6 25/25/6 40/26/6
f 18/27/6 20/28/6 19/29/6
f 37/30/2 5/31/2 7/13/2
f 35/32/2 44/29/2 38/33/2
f 8/18/2 40/34/2 34/35/2
f 31/36/1 7/13/1 3/37/1
f 29/38/1 38/33/1 32/20/1
f 43/28/6 1/39/6 5/31/6
f 41/40/6 21/27/6 44/29/6
f 39/41/6 23/42/6 42/43/6
f 25/25/4 11/26/4 40/26/4
f 22/44/5 51/36/5 31/36/5
f 42/8/4 48/9/4 36/9/4
f 21/27/4 19/29/4 44/29/4
f 37/30/5 51/36/5 45/30/5
f 32/20/4 18/21/4 21/21/4
f 32/20/4 46/33/4 52/20/4
f 41/40/5 13/45/5 24/45/5
f 33/46/5 55/4/5 49/46/5
f 37/30/5 20/28/5 43/28/5
f 28/3/4 50/2/4 56/3/4
f 44/29/4 46/33/4 38/33/4
f 1/47/3 31/36/3 3/37/3
f 14/42/6 16/40/6 15/43/6
f 10/25/6 12/41/6 11/26/6
f 19/29/2 45/30/2 46/33/2
f 15/8/2 47/32/2 48/9/2
f 11/34/2 49/7/2 50/35/2
f 46/33/1 51/36/1 52/20/1
f 48/5/1 53/38/1 54/6/1
f 50/2/1 55/4/1 56/3/1
f 52/20/3 17/44/3 18/21/3
f 54/23/3 13/19/3 14/24/3
f 56/11/3 9/22/3 10/12/3
f 35/32/5 16/40/5 41/40/5
f 30/23/4 14/24/4 23/24/4
f 30/6/4 48/5/4 54/6/4
f 43/28/5 17/48/5 22/48/5
f 24/19/5 53/38/5 29/38/5
f 39/41/5 9/49/5 26/49/5
f 35/32/5 53/38/5 47/32/5
f 40/34/4 50/35/4 34/35/4
f 28/11/4 10/12/4 25/12/4
f 23/42/4 15/43/4 42/43/4
f 33/7/5 12/50/5 39/50/5
f 26/22/5 55/51/5 27/51/5
f 4/1/1 8/18/1 34/2/1
f 27/4/1 33/46/1 36/5/1
f 33/7/2 39/50/2 42/8/2
f 2/10/3 4/1/3 28/11/3
f 7/13/4 5/31/4 1/14/4
f 4/16/5 2/52/5 6/17/5
f 24/19/3 29/38/3 32/20/3
f 26/22/3 27/51/3 30/23/3
f 6/17/6 2/53/6 25/25/6
f 18/27/6 17/48/6 20/28/6
f 37/30/2 43/28/2 5/31/2
f 35/32/2 41/40/2 44/29/2
f 8/18/2 6/17/2 40/34/2
f 31/36/1 37/30/1 7/13/1
f 29/38/1 35/32/1 38/33/1
f 43/28/6 22/48/6 1/39/6
f 41/40/6 24/45/6 21/27/6
f 39/41/6 26/49/6 23/42/6
f 25/25/4 10/25/4 11/26/4
f 22/44/5 17/44/5 51/36/5
f 42/8/4 15/8/4 48/9/4
f 21/27/4 18/27/4 19/29/4
f 37/30/5 31/36/5 51/36/5
f 32/20/4 52/20/4 18/21/4
f 32/20/4 38/33/4 46/33/4
f 41/40/5 16/40/5 13/45/5
f 33/46/5 27/4/5 55/4/5
f 37/30/5 45/30/5 20/28/5
f 28/3/4 34/2/4 50/2/4
f 44/29/4 19/29/4 46/33/4
f 1/47/3 22/44/3 31/36/3
f 14/42/6 13/45/6 16/40/6
f 10/25/6 9/49/6 12/41/6
f 19/29/2 20/28/2 45/30/2
f 15/8/2 16/40/2 47/32/2
f 11/34/2 12/50/2 49/7/2
f 46/33/1 45/30/1 51/36/1
f 48/5/1 47/32/1 53/38/1
f 50/2/1 49/46/1 55/4/1
f 52/20/3 51/36/3 17/44/3
f 54/23/3 53/38/3 13/19/3
f 56/11/3 55/51/3 9/22/3
f 35/32/5 47/32/5 16/40/5
f 30/23/4 54/23/4 14/24/4
f 30/6/4 36/5/4 48/5/4
f 43/28/5 20/28/5 17/48/5
f 24/19/5 13/19/5 53/38/5
f 39/41/5 12/41/5 9/49/5
f 35/32/5 29/38/5 53/38/5
f 40/34/4 11/34/4 50/35/4
f 28/11/4 56/11/4 10/12/4
f 23/42/4 14/42/4 15/43/4
f 33/7/5 49/7/5 12/50/5
f 26/22/5 9/22/5 55/51/5
