# Blender 4.4.0
# www.blender.org
mtllib body.mtl
o 立方体
v -0.033679 0.307255 0.044451
v -0.033679 0.435784 0.044451
v -0.033679 0.307255 -0.022907
v -0.033679 0.435784 -0.038994
v 0.033679 0.307255 0.044451
v 0.033679 0.435784 0.044451
v 0.033679 0.307255 -0.022907
v 0.033679 0.435784 -0.038994
v -0.050975 0.185244 -0.027521
v -0.050975 0.185244 0.074430
v 0.050975 0.185244 -0.027521
v 0.050975 0.185244 0.074430
v -0.030192 0.065192 -0.006738
v -0.030192 0.065192 0.053647
v 0.030192 0.065192 -0.006738
v 0.030192 0.065192 0.053647
v -0.033679 0.529171 0.033271
v -0.033679 0.529171 0.005970
v 0.033679 0.529171 0.005970
v 0.033679 0.529171 0.033271
v 0.033679 0.482477 -0.022907
v 0.033679 0.482477 0.033271
v -0.033679 0.482477 0.033271
v -0.033679 0.482477 -0.022907
vn -1.0000 -0.0000 -0.0000
vn -0.0000 -0.1242 -0.9923
vn 1.0000 -0.0000 -0.0000
vn -0.0000 -0.0000 1.0000
vn -0.0000 0.2386 0.9711
vn -0.9853 -0.1706 -0.0000
vn -0.0000 0.0378 -0.9993
vn -0.9901 0.1404 -0.0000
vn 0.9901 0.1404 -0.0000
vn -0.0000 -1.0000 -0.0000
vn -0.0000 -0.1706 0.9853
vn -0.0000 -0.1706 -0.9853
vn 0.9853 -0.1706 -0.0000
vn -0.0000 1.0000 -0.0000
vn -0.0000 0.5260 -0.8505
vn -0.0000 0.3257 -0.9455
vn -0.0000 0.2329 0.9725
vt 0.625000 0.000000
vt 0.463840 0.250000
vt 0.463840 0.000000
vt 0.625000 0.250000
vt 0.463840 0.500000
vt 0.625000 0.750000
vt 0.463840 0.750000
vt 0.463840 1.000000
vt 0.375000 0.750000
vt 0.625000 0.500000
vt 0.375000 0.250000
vt 0.375000 0.000000
vt 0.375000 0.500000
vt 0.125000 0.750000
vt 0.125000 0.500000
vt 0.375000 1.000000
vt 0.875000 0.500000
vt 0.625000 1.000000
vt 0.875000 0.750000
s 1
f 2/1/1 3/2/1 1/3/1
f 4/4/2 7/5/2 3/2/2
f 7/5/3 6/6/3 5/7/3
f 6/6/4 1/8/4 5/7/4
f 1/8/5 12/9/5 5/7/5
f 22/6/3 19/10/3 20/6/3
f 9/11/6 14/12/6 10/12/6
f 7/5/7 9/11/7 3/2/7
f 1/3/8 9/11/8 10/12/8
f 5/7/9 11/13/9 7/5/9
f 15/13/10 14/14/10 13/15/10
f 10/16/11 16/9/11 12/9/11
f 11/13/12 13/11/12 9/11/12
f 12/9/13 15/13/13 11/13/13
f 18/17/14 20/6/14 19/10/14
f 23/1/1 18/4/1 24/4/1
f 22/6/4 17/18/4 23/18/4
f 24/4/15 19/10/15 21/10/15
f 4/4/16 21/10/16 8/10/16
f 6/6/17 23/18/17 2/18/17
f 2/1/1 24/4/1 4/4/1
f 6/6/3 21/10/3 22/6/3
f 2/1/1 4/4/1 3/2/1
f 4/4/2 8/10/2 7/5/2
f 7/5/3 8/10/3 6/6/3
f 6/6/4 2/18/4 1/8/4
f 1/8/5 10/16/5 12/9/5
f 22/6/3 21/10/3 19/10/3
f 9/11/6 13/11/6 14/12/6
f 7/5/7 11/13/7 9/11/7
f 1/3/8 3/2/8 9/11/8
f 5/7/9 12/9/9 11/13/9
f 15/13/10 16/9/10 14/14/10
f 10/16/11 14/16/11 16/9/11
f 11/13/12 15/13/12 13/11/12
f 12/9/13 16/9/13 15/13/13
f 18/17/14 17/19/14 20/6/14
f 23/1/1 17/1/1 18/4/1
f 22/6/4 20/6/4 17/18/4
f 24/4/15 18/4/15 19/10/15
f 4/4/16 24/4/16 21/10/16
f 6/6/17 22/6/17 23/18/17
f 2/1/1 23/1/1 24/4/1
f 6/6/3 8/10/3 21/10/3
