# Blender 4.4.0
# www.blender.org
mtllib R_arm.mtl
o 立方体.002
v -0.310541 -0.531574 -0.155525
v -0.621591 -0.531574 0.155525
v -0.310541 -0.531574 0.155525
v -0.421967 -0.304621 -0.155525
v -0.621591 -0.531574 -0.155525
v -0.110916 -0.304621 -0.155525
v -0.034454 0.042652 -0.155525
v -0.110916 -0.304621 0.155525
v -0.154569 0.042652 -0.155525
v -0.034454 0.042652 0.155525
v -0.154569 0.042652 0.155525
v -0.421967 -0.304621 0.155525
vn -0.0000 -1.0000 -0.0000
vn 0.7509 -0.6605 -0.0000
vn -0.0000 -0.0000 -1.0000
vn 0.9766 -0.2150 -0.0000
vn -0.7923 0.6101 -0.0000
vn -0.0000 1.0000 -0.0000
vn -0.0000 -0.0000 1.0000
vn -0.7509 0.6605 -0.0000
vt 0.025773 0.027408
vt 0.090598 0.027408
vt 0.090598 0.092232
vt 0.025773 0.092232
vt 0.090598 0.155223
vt 0.963942 0.112343
vt 0.913651 0.153245
vt 0.916083 0.090301
vt 0.966374 0.049399
vt 0.966374 0.203653
vt 0.946954 0.219447
vt 0.090598 0.229330
vt 0.025773 0.155223
vt 0.025773 0.254363
vt 0.090598 0.254362
vt 0.090598 0.345705
vt 0.025773 0.229330
vt 0.889492 0.532350
vt 0.922794 0.466148
vt 0.942215 0.481943
vt 0.939783 0.573252
vt 0.025773 0.345705
vt 0.891924 0.595294
vt 0.025773 0.408696
vt 0.942215 0.636196
vt 0.090598 0.408696
s 1
usemtl 
f 2/1/1 5/2/1 1/3/1
f 2/1/1 1/3/1 3/4/1
f 6/5/2 3/4/2 1/3/2
f 4/6/3 6/7/3 1/8/3
f 4/6/3 1/8/3 5/9/3
f 9/10/3 7/11/3 6/7/3
f 7/12/4 8/13/4 6/5/4
f 6/5/2 8/13/2 3/4/2
f 9/10/3 6/7/3 4/6/3
f 11/14/5 9/15/5 4/16/5
f 10/17/6 7/12/6 9/15/6
f 10/17/6 9/15/6 11/14/6
f 8/18/7 10/19/7 11/20/7
f 8/18/7 11/20/7 12/21/7
f 11/14/5 4/16/5 12/22/5
f 3/23/7 8/18/7 12/21/7
f 2/24/8 12/22/8 4/16/8
f 3/23/7 12/21/7 2/25/7
f 7/12/4 10/17/4 8/13/4
f 2/24/8 4/16/8 5/26/8
