# Blender 4.4.0
# www.blender.org
mtllib blade.mtl
o 円.001
v 0.000000 -0.014653 0.416792
v 0.081312 -0.014653 0.408784
v 0.159499 -0.014653 0.385066
v 0.231558 -0.014653 0.346550
v 0.294717 -0.014653 0.294717
v 0.346550 -0.014653 0.231558
v 0.385066 -0.014653 0.159499
v 0.408784 -0.014653 0.081312
v 0.416792 -0.014653 -0.000000
v 0.408784 -0.014653 -0.081312
v 0.385066 -0.014653 -0.159499
v 0.346550 -0.014653 -0.231558
v 0.294717 -0.014653 -0.294717
v 0.231558 -0.014653 -0.346550
v 0.159499 -0.014653 -0.385066
v 0.081312 -0.014653 -0.408784
v 0.000000 -0.014653 -0.416792
v -0.081312 -0.014653 -0.408784
v -0.159499 -0.014653 -0.385066
v -0.231558 -0.014653 -0.346550
v -0.294717 -0.014653 -0.294717
v -0.346550 -0.014653 -0.231558
v -0.385066 -0.014653 -0.159499
v -0.408784 -0.014653 -0.081312
v -0.416792 -0.014653 -0.000000
v -0.408784 -0.014653 0.081312
v -0.385066 -0.014653 0.159499
v -0.346550 -0.014653 0.231558
v -0.294717 -0.014653 0.294717
v -0.231558 -0.014653 0.346550
v -0.159499 -0.014653 0.385066
v -0.081312 -0.014653 0.408784
v 0.000000 -0.014653 0.416903
v 0.096099 -0.002456 0.483122
v 0.159542 -0.014653 0.385168
v 0.273666 -0.002456 0.409571
v 0.294796 -0.014653 0.294796
v 0.409571 -0.002456 0.273666
v 0.385168 -0.014653 0.159542
v 0.483122 -0.002456 0.096099
v 0.416903 -0.014653 -0.000000
v 0.483122 -0.002456 -0.096099
v 0.385168 -0.014653 -0.159542
v 0.409571 -0.002456 -0.273666
v 0.294796 -0.014653 -0.294796
v 0.273666 -0.002456 -0.409571
v 0.159542 -0.014653 -0.385168
v 0.096099 -0.002456 -0.483122
v 0.000000 -0.014653 -0.416903
v -0.096099 -0.002456 -0.483122
v -0.159542 -0.014653 -0.385168
v -0.273666 -0.002456 -0.409571
v -0.294796 -0.014653 -0.294796
v -0.409571 -0.002456 -0.273666
v -0.385168 -0.014653 -0.159542
v -0.483122 -0.002456 -0.096099
v -0.416903 -0.014653 -0.000000
v -0.483122 -0.002456 0.096099
v -0.385168 -0.014653 0.159542
v -0.409571 -0.002456 0.273666
v -0.294796 -0.014653 0.294796
v -0.273666 -0.002456 0.409571
v -0.159542 -0.014653 0.385168
v -0.096099 -0.002456 0.483122
v 0.000000 0.014653 0.416792
v 0.081312 0.014653 0.408784
v 0.159499 0.014653 0.385066
v 0.231558 0.014653 0.346550
v 0.294717 0.014653 0.294717
v 0.346550 0.014653 0.231558
v 0.385066 0.014653 0.159499
v 0.408784 0.014653 0.081312
v 0.416792 0.014653 0.000000
v 0.408784 0.014653 -0.081312
v 0.385066 0.014653 -0.159499
v 0.346550 0.014653 -0.231558
v 0.294717 0.014653 -0.294717
v 0.231558 0.014653 -0.346550
v 0.159499 0.014653 -0.385066
v 0.081312 0.014653 -0.408784
v 0.000000 0.014653 -0.416792
v -0.081312 0.014653 -0.408784
v -0.159499 0.014653 -0.385066
v -0.231558 0.014653 -0.346550
v -0.294717 0.014653 -0.294717
v -0.346550 0.014653 -0.231558
v -0.385066 0.014653 -0.159499
v -0.408784 0.014653 -0.081312
v -0.416792 0.014653 0.000000
v -0.408784 0.014653 0.081312
v -0.385066 0.014653 0.159499
v -0.346550 0.014653 0.231558
v -0.294717 0.014653 0.294717
v -0.231558 0.014653 0.346550
v -0.159499 0.014653 0.385066
v -0.081312 0.014653 0.408784
v 0.000000 0.014653 0.416903
v 0.096099 0.002456 0.483122
v 0.159542 0.014653 0.385168
v 0.273666 0.002456 0.409571
v 0.294796 0.014653 0.294796
v 0.409571 0.002456 0.273666
v 0.385168 0.014653 0.159542
v 0.483122 0.002456 0.096099
v 0.416903 0.014653 0.000000
v 0.483122 0.002456 -0.096099
v 0.385168 0.014653 -0.159542
v 0.409571 0.002456 -0.273666
v 0.294796 0.014653 -0.294796
v 0.273666 0.002456 -0.409571
v 0.159542 0.014653 -0.385168
v 0.096099 0.002456 -0.483122
v 0.000000 0.014653 -0.416903
v -0.096099 0.002456 -0.483122
v -0.159542 0.014653 -0.385168
v -0.273666 0.002456 -0.409571
v -0.294796 0.014653 -0.294796
v -0.409571 0.002456 -0.273666
v -0.385168 0.014653 -0.159542
v -0.483122 0.002456 -0.096099
v -0.416903 0.014653 0.000000
v -0.483122 0.002456 0.096099
v -0.385168 0.014653 0.159542
v -0.409571 0.002456 0.273666
v -0.294796 0.014653 0.294796
v -0.273666 0.002456 0.409571
v -0.159542 0.014653 0.385168
v -0.096099 0.002456 0.483122
vn -0.0000 -1.0000 -0.0000
vn -0.0000 -1.0000 0.0005
vn -0.0001 -1.0000 0.0005
vn -0.0003 -1.0000 0.0004
vn -0.0000 -1.0000 -0.0005
vn -0.0000 -1.0000 -0.0007
vn 0.0001 -1.0000 -0.0005
vn 0.0003 -1.0000 -0.0004
vn -0.0000 -1.0000 0.0007
vn 0.1235 0.9872 0.1011
vn -0.0000 1.0000 -0.0000
vn -0.0754 0.9872 -0.1407
vn 0.0005 1.0000 -0.0001
vn 0.1528 0.9872 0.0461
vn -0.1235 0.9872 -0.1011
vn 0.0005 1.0000 -0.0000
vn -0.0005 1.0000 0.0001
vn 0.1588 0.9872 -0.0159
vn -0.1528 0.9872 -0.0461
vn -0.0005 1.0000 -0.0000
vn 0.1407 0.9872 -0.0754
vn -0.1588 0.9872 0.0159
vn 0.1011 0.9872 -0.1235
vn -0.1407 0.9872 0.0754
vn 0.0003 1.0000 -0.0004
vn 0.0159 0.9872 0.1588
vn 0.0461 0.9872 -0.1528
vn -0.1011 0.9872 0.1235
vn 0.0754 0.9872 0.1407
vn -0.0003 1.0000 0.0004
vn -0.0159 0.9872 -0.1588
vn -0.0461 0.9872 0.1528
vn -0.2091 -0.0000 -0.9779
vn 0.6344 -0.0000 0.7730
vn 0.8393 -0.0000 -0.5436
vn 0.7730 -0.0000 0.6344
vn -0.5674 -0.0000 -0.8234
vn 0.8819 -0.0000 0.4714
vn 0.5674 -0.0000 -0.8234
vn 0.9569 -0.0000 0.2903
vn -0.8393 -0.0000 -0.5436
vn 0.9952 -0.0000 0.0980
vn 0.2091 -0.0000 -0.9779
vn 0.9952 -0.0000 -0.0980
vn -0.9835 -0.0000 -0.1811
vn 0.9569 -0.0000 -0.2903
vn -0.1811 -0.0000 -0.9835
vn 0.8819 -0.0000 -0.4714
vn -0.0980 -0.0000 -0.9952
vn -0.9779 -0.0000 0.2091
vn 0.7730 -0.0000 -0.6344
vn -0.2903 -0.0000 -0.9569
vn -0.5436 -0.0000 -0.8393
vn 0.6344 -0.0000 -0.7730
vn -0.4714 -0.0000 -0.8819
vn -0.8234 -0.0000 0.5674
vn 0.4714 -0.0000 -0.8819
vn -0.6344 -0.0000 -0.7730
vn -0.8234 -0.0000 -0.5674
vn 0.2903 -0.0000 -0.9569
vn -0.7730 -0.0000 -0.6344
vn -0.5436 -0.0000 0.8393
vn 0.0980 -0.0000 -0.9952
vn -0.8819 -0.0000 -0.4714
vn -0.9779 -0.0000 -0.2091
vn -0.5674 -0.0000 0.8234
vn -0.9569 -0.0000 -0.2903
vn -0.1811 -0.0000 0.9835
vn 0.8393 -0.0000 0.5436
vn -0.9952 -0.0000 -0.0980
vn -0.9835 -0.0000 0.1811
vn -0.2091 -0.0000 0.9779
vn -0.9952 -0.0000 0.0980
vn 0.2091 -0.0000 0.9779
vn 0.9835 -0.0000 0.1811
vn -0.9569 -0.0000 0.2903
vn -0.8393 -0.0000 0.5436
vn 0.1811 -0.0000 0.9835
vn -0.8819 -0.0000 0.4714
vn 0.5674 -0.0000 0.8234
vn 0.9779 -0.0000 -0.2091
vn -0.7730 -0.0000 0.6344
vn 0.5436 -0.0000 0.8393
vn -0.6344 -0.0000 0.7730
vn 0.8234 -0.0000 -0.5674
vn -0.4714 -0.0000 0.8819
vn 0.8234 -0.0000 0.5674
vn -0.2903 -0.0000 0.9569
vn 0.5436 -0.0000 -0.8393
vn -0.0980 -0.0000 0.9952
vn 0.9779 -0.0000 0.2091
vn 0.0980 -0.0000 0.9952
vn 0.1811 -0.0000 -0.9835
vn 0.2903 -0.0000 0.9569
vn 0.9835 -0.0000 -0.1811
vn 0.4714 -0.0000 0.8819
vn 0.1235 -0.9872 0.1011
vn -0.0159 -0.9872 0.1588
vn -0.0754 -0.9872 -0.1407
vn 0.1407 -0.9872 0.0754
vn -0.1011 -0.9872 -0.1235
vn 0.1528 -0.9872 0.0461
vn -0.1235 -0.9872 -0.1011
vn 0.1588 -0.9872 0.0159
vn -0.1407 -0.9872 -0.0754
vn 0.1588 -0.9872 -0.0159
vn -0.1528 -0.9872 -0.0461
vn 0.1528 -0.9872 -0.0461
vn -0.1588 -0.9872 -0.0159
vn 0.1407 -0.9872 -0.0754
vn -0.1588 -0.9872 0.0159
vn 0.1235 -0.9872 -0.1011
vn -0.1528 -0.9872 0.0461
vn 0.1011 -0.9872 -0.1235
vn -0.1407 -0.9872 0.0754
vn 0.0754 -0.9872 -0.1407
vn 0.0159 -0.9872 0.1588
vn -0.1235 -0.9872 0.1011
vn 0.0461 -0.9872 -0.1528
vn 0.0461 -0.9872 0.1528
vn -0.1011 -0.9872 0.1235
vn 0.0159 -0.9872 -0.1588
vn 0.0754 -0.9872 0.1407
vn -0.0754 -0.9872 0.1407
vn -0.0159 -0.9872 -0.1588
vn 0.1011 -0.9872 0.1235
vn -0.0461 -0.9872 0.1528
vn -0.0461 -0.9872 -0.1528
vn -0.0159 0.9872 0.1588
vn -0.0003 1.0000 -0.0004
vn 0.1407 0.9872 0.0754
vn -0.1011 0.9872 -0.1235
vn 0.1588 0.9872 0.0159
vn -0.1407 0.9872 -0.0754
vn 0.1528 0.9872 -0.0461
vn -0.1588 0.9872 -0.0159
vn 0.0005 1.0000 0.0001
vn 0.1235 0.9872 -0.1011
vn -0.1528 0.9872 0.0461
vn -0.0005 1.0000 -0.0001
vn 0.0754 0.9872 -0.1407
vn -0.1235 0.9872 0.1011
vn 0.0461 0.9872 0.1528
vn 0.0159 0.9872 -0.1588
vn 0.0003 1.0000 0.0004
vn -0.0754 0.9872 0.1407
vn 0.1011 0.9872 0.1235
vn -0.0461 0.9872 -0.1528
vt 0.000000 0.000000
s 1
f 6/1/1 37/1/1 5/1/1
f 33/1/1 32/1/1 1/1/1
f 20/1/1 51/1/2 19/1/2
f 39/1/1 6/1/1 7/1/1
f 53/1/1 20/1/1 21/1/1
f 8/1/1 39/1/1 7/1/1
f 22/1/1 53/1/1 21/1/1
f 41/1/1 8/1/1 9/1/1
f 55/1/1 22/1/1 23/1/1
f 10/1/1 41/1/1 9/1/1
f 24/1/1 55/1/1 23/1/1
f 43/1/1 10/1/1 11/1/1
f 57/1/1 24/1/1 25/1/1
f 12/1/1 43/1/1 11/1/1
f 26/1/1 57/1/1 25/1/1
f 45/1/1 12/1/1 13/1/1
f 59/1/1 26/1/1 27/1/1
f 14/1/1 45/1/1 13/1/1
f 28/1/1 59/1/1 27/1/1
f 47/1/3 14/1/4 15/1/3
f 2/1/1 33/1/1 1/1/1
f 61/1/1 28/1/1 29/1/1
f 16/1/2 47/1/3 15/1/3
f 35/1/5 2/1/6 3/1/5
f 30/1/1 61/1/1 29/1/1
f 49/1/1 16/1/1 17/1/1
f 4/1/1 35/1/5 3/1/5
f 63/1/7 30/1/8 31/1/7
f 18/1/1 49/1/1 17/1/1
f 37/1/1 4/1/1 5/1/1
f 32/1/5 63/1/7 31/1/7
f 51/1/2 18/1/9 19/1/2
f 70/1/10 101/1/10 102/1/10
f 96/1/11 97/1/11 65/1/11
f 84/1/12 115/1/12 116/1/12
f 70/1/13 103/1/11 71/1/11
f 84/1/11 117/1/11 85/1/11
f 72/1/14 103/1/14 104/1/14
f 86/1/15 117/1/15 118/1/15
f 72/1/16 105/1/16 73/1/16
f 86/1/17 119/1/11 87/1/11
f 74/1/18 105/1/18 106/1/18
f 88/1/19 119/1/19 120/1/19
f 74/1/11 107/1/11 75/1/11
f 88/1/20 121/1/20 89/1/20
f 76/1/21 107/1/21 108/1/21
f 90/1/22 121/1/22 122/1/22
f 76/1/11 109/1/11 77/1/11
f 90/1/11 123/1/11 91/1/11
f 78/1/23 109/1/23 110/1/23
f 92/1/24 123/1/24 124/1/24
f 78/1/25 111/1/11 79/1/11
f 66/1/26 97/1/26 98/1/26
f 92/1/11 125/1/11 93/1/11
f 80/1/27 111/1/27 112/1/27
f 66/1/11 99/1/11 67/1/11
f 94/1/28 125/1/28 126/1/28
f 80/1/11 113/1/11 81/1/11
f 68/1/29 99/1/29 100/1/29
f 94/1/30 127/1/11 95/1/11
f 82/1/31 113/1/31 114/1/31
f 68/1/11 101/1/11 69/1/11
f 96/1/32 127/1/32 128/1/32
f 82/1/11 115/1/11 83/1/11
f 47/1/33 110/1/33 46/1/33
f 20/1/34 85/1/34 21/1/34
f 47/1/35 112/1/35 111/1/35
f 21/1/36 86/1/36 22/1/36
f 49/1/37 112/1/37 48/1/37
f 22/1/38 87/1/38 23/1/38
f 49/1/39 114/1/39 113/1/39
f 23/1/40 88/1/40 24/1/40
f 51/1/41 114/1/41 50/1/41
f 24/1/42 89/1/42 25/1/42
f 52/1/43 115/1/43 51/1/43
f 25/1/44 90/1/44 26/1/44
f 53/1/45 116/1/45 52/1/45
f 26/1/46 91/1/46 27/1/46
f 53/1/47 118/1/47 117/1/47
f 27/1/48 92/1/48 28/1/48
f 1/1/49 66/1/49 2/1/49
f 55/1/50 118/1/50 54/1/50
f 28/1/51 93/1/51 29/1/51
f 2/1/52 67/1/52 3/1/52
f 55/1/53 120/1/53 119/1/53
f 29/1/54 94/1/54 30/1/54
f 3/1/55 68/1/55 4/1/55
f 57/1/56 120/1/56 56/1/56
f 30/1/57 95/1/57 31/1/57
f 4/1/58 69/1/58 5/1/58
f 57/1/59 122/1/59 121/1/59
f 31/1/60 96/1/60 32/1/60
f 5/1/61 70/1/61 6/1/61
f 59/1/62 122/1/62 58/1/62
f 32/1/63 65/1/63 1/1/63
f 6/1/64 71/1/64 7/1/64
f 60/1/65 123/1/65 59/1/65
f 33/1/66 98/1/66 97/1/66
f 7/1/67 72/1/67 8/1/67
f 61/1/68 124/1/68 60/1/68
f 35/1/69 98/1/69 34/1/69
f 8/1/70 73/1/70 9/1/70
f 61/1/71 126/1/71 125/1/71
f 35/1/72 100/1/72 99/1/72
f 9/1/73 74/1/73 10/1/73
f 63/1/74 126/1/74 62/1/74
f 37/1/75 100/1/75 36/1/75
f 10/1/76 75/1/76 11/1/76
f 63/1/77 128/1/77 127/1/77
f 37/1/78 102/1/78 101/1/78
f 11/1/79 76/1/79 12/1/79
f 33/1/80 128/1/80 64/1/80
f 39/1/81 102/1/81 38/1/81
f 12/1/82 77/1/82 13/1/82
f 39/1/83 104/1/83 103/1/83
f 13/1/84 78/1/84 14/1/84
f 41/1/85 104/1/85 40/1/85
f 14/1/86 79/1/86 15/1/86
f 41/1/87 106/1/87 105/1/87
f 15/1/88 80/1/88 16/1/88
f 43/1/89 106/1/89 42/1/89
f 16/1/90 81/1/90 17/1/90
f 44/1/91 107/1/91 43/1/91
f 17/1/92 82/1/92 18/1/92
f 45/1/93 108/1/93 44/1/93
f 18/1/94 83/1/94 19/1/94
f 45/1/95 110/1/95 109/1/95
f 19/1/96 84/1/96 20/1/96
f 6/1/97 38/1/97 37/1/97
f 33/1/98 64/1/98 32/1/98
f 20/1/99 52/1/99 51/1/99
f 39/1/100 38/1/100 6/1/100
f 53/1/101 52/1/101 20/1/101
f 8/1/102 40/1/102 39/1/102
f 22/1/103 54/1/103 53/1/103
f 41/1/104 40/1/104 8/1/104
f 55/1/105 54/1/105 22/1/105
f 10/1/106 42/1/106 41/1/106
f 24/1/107 56/1/107 55/1/107
f 43/1/108 42/1/108 10/1/108
f 57/1/109 56/1/109 24/1/109
f 12/1/110 44/1/110 43/1/110
f 26/1/111 58/1/111 57/1/111
f 45/1/112 44/1/112 12/1/112
f 59/1/113 58/1/113 26/1/113
f 14/1/114 46/1/114 45/1/114
f 28/1/115 60/1/115 59/1/115
f 47/1/116 46/1/116 14/1/116
f 2/1/117 34/1/117 33/1/117
f 61/1/118 60/1/118 28/1/118
f 16/1/119 48/1/119 47/1/119
f 35/1/120 34/1/120 2/1/120
f 30/1/121 62/1/121 61/1/121
f 49/1/122 48/1/122 16/1/122
f 4/1/123 36/1/123 35/1/123
f 63/1/124 62/1/124 30/1/124
f 18/1/125 50/1/125 49/1/125
f 37/1/126 36/1/126 4/1/126
f 32/1/127 64/1/127 63/1/127
f 51/1/128 50/1/128 18/1/128
f 70/1/11 69/1/11 101/1/11
f 96/1/129 128/1/129 97/1/129
f 84/1/130 83/1/11 115/1/11
f 70/1/131 102/1/131 103/1/131
f 84/1/132 116/1/132 117/1/132
f 72/1/11 71/1/11 103/1/11
f 86/1/11 85/1/11 117/1/11
f 72/1/133 104/1/133 105/1/133
f 86/1/134 118/1/134 119/1/134
f 74/1/16 73/1/16 105/1/16
f 88/1/11 87/1/11 119/1/11
f 74/1/135 106/1/135 107/1/135
f 88/1/136 120/1/136 121/1/136
f 76/1/137 75/1/11 107/1/11
f 90/1/20 89/1/20 121/1/20
f 76/1/138 108/1/138 109/1/138
f 90/1/139 122/1/139 123/1/139
f 78/1/11 77/1/11 109/1/11
f 92/1/140 91/1/11 123/1/11
f 78/1/141 110/1/141 111/1/141
f 66/1/11 65/1/11 97/1/11
f 92/1/142 124/1/142 125/1/142
f 80/1/11 79/1/11 111/1/11
f 66/1/143 98/1/143 99/1/143
f 94/1/11 93/1/11 125/1/11
f 80/1/144 112/1/144 113/1/144
f 68/1/145 67/1/11 99/1/11
f 94/1/146 126/1/146 127/1/146
f 82/1/11 81/1/11 113/1/11
f 68/1/147 100/1/147 101/1/147
f 96/1/11 95/1/11 127/1/11
f 82/1/148 114/1/148 115/1/148
f 47/1/33 111/1/33 110/1/33
f 20/1/34 84/1/34 85/1/34
f 47/1/35 48/1/35 112/1/35
f 21/1/36 85/1/36 86/1/36
f 49/1/37 113/1/37 112/1/37
f 22/1/38 86/1/38 87/1/38
f 49/1/39 50/1/39 114/1/39
f 23/1/40 87/1/40 88/1/40
f 51/1/41 115/1/41 114/1/41
f 24/1/42 88/1/42 89/1/42
f 52/1/43 116/1/43 115/1/43
f 25/1/44 89/1/44 90/1/44
f 53/1/45 117/1/45 116/1/45
f 26/1/46 90/1/46 91/1/46
f 53/1/47 54/1/47 118/1/47
f 27/1/48 91/1/48 92/1/48
f 1/1/49 65/1/49 66/1/49
f 55/1/50 119/1/50 118/1/50
f 28/1/51 92/1/51 93/1/51
f 2/1/52 66/1/52 67/1/52
f 55/1/53 56/1/53 120/1/53
f 29/1/54 93/1/54 94/1/54
f 3/1/55 67/1/55 68/1/55
f 57/1/56 121/1/56 120/1/56
f 30/1/57 94/1/57 95/1/57
f 4/1/58 68/1/58 69/1/58
f 57/1/59 58/1/59 122/1/59
f 31/1/60 95/1/60 96/1/60
f 5/1/61 69/1/61 70/1/61
f 59/1/62 123/1/62 122/1/62
f 32/1/63 96/1/63 65/1/63
f 6/1/64 70/1/64 71/1/64
f 60/1/65 124/1/65 123/1/65
f 33/1/66 34/1/66 98/1/66
f 7/1/67 71/1/67 72/1/67
f 61/1/68 125/1/68 124/1/68
f 35/1/69 99/1/69 98/1/69
f 8/1/70 72/1/70 73/1/70
f 61/1/71 62/1/71 126/1/71
f 35/1/72 36/1/72 100/1/72
f 9/1/73 73/1/73 74/1/73
f 63/1/74 127/1/74 126/1/74
f 37/1/75 101/1/75 100/1/75
f 10/1/76 74/1/76 75/1/76
f 63/1/77 64/1/77 128/1/77
f 37/1/78 38/1/78 102/1/78
f 11/1/79 75/1/79 76/1/79
f 33/1/80 97/1/80 128/1/80
f 39/1/81 103/1/81 102/1/81
f 12/1/82 76/1/82 77/1/82
f 39/1/83 40/1/83 104/1/83
f 13/1/84 77/1/84 78/1/84
f 41/1/85 105/1/85 104/1/85
f 14/1/86 78/1/86 79/1/86
f 41/1/87 42/1/87 106/1/87
f 15/1/88 79/1/88 80/1/88
f 43/1/89 107/1/89 106/1/89
f 16/1/90 80/1/90 81/1/90
f 44/1/91 108/1/91 107/1/91
f 17/1/92 81/1/92 82/1/92
f 45/1/93 109/1/93 108/1/93
f 18/1/94 82/1/94 83/1/94
f 45/1/95 46/1/95 110/1/95
f 19/1/96 83/1/96 84/1/96
