# Blender 4.4.0
# www.blender.org
mtllib wingR.mtl
o å¹³é¢.001
v -0.017346 -0.026887 0.003151
v -0.691233 -0.189268 -1.682794
v -0.017346 0.049464 0.003151
v -0.486492 0.554015 -1.170569
v -0.115464 -0.331981 -0.242323
v -0.214813 -0.094112 -0.490877
v -0.322556 -0.470202 -0.760431
v -0.434269 -0.026952 -1.039915
v -0.431626 0.115766 -1.033304
v -0.324564 0.047771 -0.765453
v -0.218174 0.040165 -0.499285
v -0.115820 0.050089 -0.243213
v -0.483117 0.264027 -1.162125
v -0.529215 0.050625 -1.277455
v -0.378412 -0.131793 -0.900173
v -0.378095 0.081768 -0.899379
v -0.268685 -0.165373 -0.625654
v -0.271369 0.043968 -0.632369
v -0.165138 -0.122341 -0.366600
v -0.166997 0.045127 -0.371249
v -0.066583 0.049777 -0.120031
v -0.066405 -0.088728 -0.119586
v 0.001226 -0.026887 -0.004272
v -0.672662 -0.189268 -1.690217
v 0.001226 0.049464 -0.004272
v -0.467921 0.554015 -1.177992
v -0.096892 -0.331981 -0.249746
v -0.196242 -0.094112 -0.498300
v -0.303985 -0.470202 -0.767854
v -0.415697 -0.026952 -1.047338
v -0.413055 0.115766 -1.040727
v -0.305992 0.047771 -0.772876
v -0.199603 0.040165 -0.506709
v -0.097248 0.050089 -0.250637
v -0.464546 0.264027 -1.169549
v -0.510644 0.050625 -1.284878
v -0.359841 -0.131793 -0.907596
v -0.359523 0.081768 -0.906802
v -0.250113 -0.165373 -0.633077
v -0.252797 0.043968 -0.639792
v -0.146567 -0.122341 -0.374023
v -0.148425 0.045127 -0.378673
v -0.048011 0.049777 -0.127455
v -0.047833 -0.088728 -0.127009
vn -0.9286 -0.0000 0.3712
vn 0.9286 -0.0000 -0.3712
vn 0.3711 -0.0000 0.9286
vn -0.2980 0.5960 -0.7457
vn 0.0009 1.0000 0.0022
vn 0.3261 -0.4774 0.8159
vn -0.0766 -0.9785 -0.1916
vn 0.3351 -0.4299 0.8384
vn -0.2122 -0.8205 -0.5308
vn 0.2710 0.6832 0.6780
vn -0.1077 -0.9570 -0.2695
vn 0.0852 0.9733 0.2130
vn 0.0098 0.9996 0.0246
vn -0.0133 0.9994 -0.0334
vn 0.3710 0.0313 0.9281
vn 0.1788 -0.8764 0.4472
vn -0.3391 -0.4063 -0.8485
vn 0.1636 -0.8976 0.4092
vn -0.3128 -0.5381 -0.7827
vn 0.1573 -0.9058 0.3935
vn 0.0851 0.9733 0.2130
vt 0.710873 0.560706
vt 0.684154 0.501903
vt 0.803191 0.549765
vt 0.702867 0.459518
vt 0.762329 0.436674
vt 0.754472 0.481928
vt 0.802622 0.400278
vt 0.754891 0.326791
vt 0.915759 0.392960
vt 0.762243 0.277578
vt 0.814991 0.243912
vt 0.828953 0.303898
vt 0.822643 0.154474
vt 0.769595 0.228365
vt 0.740627 0.166642
vt 0.651320 0.127706
vt 0.738235 0.371962
vt 0.675132 0.594230
vt 0.667737 0.543314
vt 0.495367 0.560706
vt 0.522086 0.501903
vt 0.538503 0.543314
vt 0.443911 0.436673
vt 0.503374 0.459518
vt 0.451769 0.481928
vt 0.403618 0.400278
vt 0.451349 0.326791
vt 0.468005 0.371962
vt 0.391250 0.243912
vt 0.443997 0.277578
vt 0.377287 0.303897
vt 0.436646 0.228365
vt 0.383598 0.154474
vt 0.465613 0.166642
vt 0.554920 0.127706
vt 0.254440 0.048200
vt 0.290482 0.392960
vt 0.484661 0.417133
vt 0.403049 0.549765
vt 0.531109 0.594230
vt 0.554920 0.584725
vt 0.151319 0.073839
vt 0.158034 0.048200
vt 0.158035 0.073838
vt 0.151323 0.617010
vt 0.158034 0.927831
vt 0.151318 0.927831
vt 0.151319 0.118385
vt 0.158036 0.118385
vt 0.048202 0.881266
vt 0.054917 0.788302
vt 0.054918 0.881266
vt 0.048200 0.658851
vt 0.054916 0.704782
vt 0.048201 0.704782
vt 0.048200 0.491181
vt 0.054916 0.604554
vt 0.048200 0.604554
vt 0.048200 0.366814
vt 0.054916 0.305225
vt 0.054916 0.366814
vt 0.151325 0.519584
vt 0.158040 0.451401
vt 0.158041 0.519584
vt 0.048200 0.305224
vt 0.054916 0.215460
vt 0.151322 0.351884
vt 0.158039 0.401642
vt 0.151323 0.401643
vt 0.151322 0.303739
vt 0.158037 0.255595
vt 0.158038 0.303739
vt 0.151321 0.209263
vt 0.158036 0.162932
vt 0.158037 0.209264
vt 0.158039 0.617010
vt 0.048200 0.048200
vt 0.048201 0.215460
vt 0.054916 0.491181
vt 0.151324 0.451401
vt 0.054916 0.658851
vt 0.158038 0.351883
vt 0.048201 0.788302
vt 0.151321 0.255595
vt 0.151320 0.162932
vt 0.048202 0.930270
vt 0.054918 0.930270
vt 0.721579 0.417134
vt 0.951800 0.048200
vt 0.651320 0.584725
vt 0.151318 0.048200
vt 0.054916 0.048200
s 1
usemtl Material
f 22/1/1 12/2/1 5/3/1
f 20/4/1 6/5/1 19/6/1
f 17/7/1 10/8/1 7/9/1
f 16/10/1 8/11/1 15/12/1
f 14/13/1 9/14/1 13/15/1
f 4/16/1 14/13/1 13/15/1
f 10/8/1 15/12/1 7/9/1
f 6/5/1 18/17/1 17/7/1
f 12/2/1 19/6/1 5/3/1
f 1/18/1 21/19/1 22/1/1
f 44/20/2 34/21/2 43/22/2
f 28/23/2 42/24/2 41/25/2
f 39/26/2 32/27/2 40/28/2
f 30/29/2 38/30/2 37/31/2
f 31/32/2 36/33/2 35/34/2
f 26/35/2 36/33/2 24/36/2
f 37/31/2 32/27/2 29/37/2
f 28/23/2 40/28/2 33/38/2
f 41/25/2 34/21/2 27/39/2
f 23/40/2 43/22/2 25/41/2
f 3/42/3 23/43/3 25/44/3
f 4/45/4 24/46/4 2/47/4
f 21/48/5 25/44/5 43/49/5
f 22/50/6 27/51/6 44/52/6
f 6/53/7 41/54/7 19/55/7
f 7/56/8 39/57/8 17/58/8
f 15/59/9 30/60/9 37/61/9
f 13/62/10 31/63/10 35/64/10
f 8/65/11 36/66/11 30/60/11
f 10/67/12 38/68/12 16/69/12
f 18/70/13 33/71/13 40/72/13
f 20/73/14 34/74/14 42/75/14
f 4/45/15 35/64/15 26/76/15
f 2/77/16 36/66/16 14/78/16
f 15/59/17 29/79/17 7/56/17
f 16/69/12 31/63/12 9/80/12
f 6/53/18 39/57/18 28/81/18
f 18/70/13 32/82/13 10/67/13
f 5/83/19 41/54/19 27/51/19
f 11/84/14 42/75/14 33/71/14
f 12/85/5 43/49/5 34/74/5
f 1/86/20 44/52/20 23/87/20
f 22/1/1 21/19/1 12/2/1
f 20/4/1 11/88/1 6/5/1
f 17/7/1 18/17/1 10/8/1
f 16/10/1 9/14/1 8/11/1
f 14/13/1 8/11/1 9/14/1
f 4/16/1 2/89/1 14/13/1
f 10/8/1 16/10/1 15/12/1
f 6/5/1 11/88/1 18/17/1
f 12/2/1 20/4/1 19/6/1
f 1/18/1 3/90/1 21/19/1
f 44/20/2 27/39/2 34/21/2
f 28/23/2 33/38/2 42/24/2
f 39/26/2 29/37/2 32/27/2
f 30/29/2 31/32/2 38/30/2
f 31/32/2 30/29/2 36/33/2
f 26/35/2 35/34/2 36/33/2
f 37/31/2 38/30/2 32/27/2
f 28/23/2 39/26/2 40/28/2
f 41/25/2 42/24/2 34/21/2
f 23/40/2 44/20/2 43/22/2
f 3/42/3 1/91/3 23/43/3
f 4/45/4 26/76/4 24/46/4
f 21/48/5 3/42/5 25/44/5
f 22/50/6 5/83/6 27/51/6
f 6/53/7 28/81/7 41/54/7
f 7/56/8 29/79/8 39/57/8
f 15/59/9 8/65/9 30/60/9
f 13/62/10 9/80/10 31/63/10
f 8/65/11 14/78/11 36/66/11
f 10/67/12 32/82/21 38/68/12
f 18/70/13 11/84/13 33/71/13
f 20/73/14 12/85/14 34/74/14
f 4/45/15 13/62/15 35/64/15
f 2/77/16 24/92/16 36/66/16
f 15/59/17 37/61/17 29/79/17
f 16/69/12 38/68/12 31/63/12
f 6/53/18 17/58/18 39/57/18
f 18/70/13 40/72/13 32/82/13
f 5/83/19 19/55/19 41/54/19
f 11/84/14 20/73/14 42/75/14
f 12/85/5 21/48/5 43/49/5
f 1/86/20 22/50/20 44/52/20
